<svg width="224" height="170" viewBox="0 0 224 170" fill="none" xmlns="http://www.w3.org/2000/svg">
<path d="M73.8488 62.1887C74.3629 61.9348 74.787 61.8078 75.1212 61.8078C75.6353 61.8078 76.1237 62.0364 76.5864 62.4935C77.0491 62.9505 77.5504 63.7123 78.0902 64.7789C78.7585 66.0993 79.0927 67.1531 79.0927 67.9403C79.0927 68.8037 78.63 69.4766 77.7046 69.9591L55.1482 81.0813L77.7046 92.2035C78.63 92.686 79.0927 93.3589 79.0927 94.2223C79.0927 95.0095 78.7585 96.0633 78.0902 97.3837C77.5504 98.4503 77.0491 99.2121 76.5864 99.6691C76.1237 100.126 75.6353 100.355 75.1212 100.355C74.787 100.355 74.3629 100.228 73.8488 99.9738L43.7737 84.6617C43.131 84.3316 42.6683 83.9126 42.3856 83.4048C42.1285 82.8969 42 82.1224 42 81.0813C42 80.0402 42.1285 79.2657 42.3856 78.7578C42.6683 78.2499 43.131 77.831 43.7737 77.5009L73.8488 62.1887Z" fill="black"/>
<path d="M111.952 50C113.674 50 115.113 50.2793 116.27 50.838C117.453 51.3966 118.044 52.1076 118.044 52.971C118.044 53.2503 117.992 53.5043 117.89 53.7328L92.2101 115.362C91.7474 116.454 90.6934 117 89.0483 117C87.3261 117 85.8737 116.721 84.6913 116.162C83.5345 115.603 82.9562 114.892 82.9562 114.029C82.9562 113.75 83.0076 113.496 83.1104 113.267L108.79 51.6379C109.253 50.546 110.307 50 111.952 50Z" fill="black"/>
<path d="M157.226 77.5009C157.869 77.831 158.319 78.2499 158.576 78.7578C158.859 79.2657 159 80.0402 159 81.0813C159 82.1224 158.859 82.8969 158.576 83.4048C158.319 83.9126 157.869 84.3316 157.226 84.6617L127.151 99.9738C126.637 100.228 126.213 100.355 125.879 100.355C125.365 100.355 124.876 100.126 124.414 99.6691C123.951 99.2121 123.45 98.4503 122.91 97.3837C122.241 96.0633 121.907 95.0095 121.907 94.2223C121.907 93.3589 122.37 92.686 123.295 92.2035L145.852 81.0813L123.295 69.9591C122.37 69.4766 121.907 68.8037 121.907 67.9403C121.907 67.1531 122.241 66.0993 122.91 64.7789C123.45 63.7123 123.951 62.9505 124.414 62.4935C124.876 62.0364 125.365 61.8078 125.879 61.8078C126.213 61.8078 126.637 61.9348 127.151 62.1887L157.226 77.5009Z" fill="black"/>
<path d="M189.664 18.5C189.664 15.0942 186.903 12.3333 183.496 12.3333H18.5038C15.0974 12.3333 12.3359 15.0942 12.3359 18.5V129.5C12.3359 132.906 15.0974 135.667 18.5038 135.667H183.496C186.903 135.667 189.664 132.906 189.664 129.5V18.5ZM202 129.5C202 139.717 193.716 148 183.496 148H18.5038C8.28444 148 0 139.717 0 129.5V18.5C0 8.28273 8.28444 0 18.5038 0H183.496C193.716 0 202 8.28273 202 18.5V129.5Z" fill="black"/>
<path fill-rule="evenodd" clip-rule="evenodd" d="M192.748 7.70833H6.16794V32.375H192.748V7.70833ZM57.1391 24.6667C60.5456 24.6667 63.3071 21.9058 63.3071 18.5C63.3071 15.0942 60.5456 12.3333 57.1391 12.3333C53.7327 12.3333 50.9712 15.0942 50.9712 18.5C50.9712 21.9058 53.7327 24.6667 57.1391 24.6667ZM44.8032 18.5C44.8032 21.9058 42.0418 24.6667 38.6353 24.6667C35.2289 24.6667 32.4674 21.9058 32.4674 18.5C32.4674 15.0942 35.2289 12.3333 38.6353 12.3333C42.0418 12.3333 44.8032 15.0942 44.8032 18.5ZM18.5895 24.6667C21.996 24.6667 24.7575 21.9058 24.7575 18.5C24.7575 15.0942 21.996 12.3333 18.5895 12.3333C15.1831 12.3333 12.4216 15.0942 12.4216 18.5C12.4216 21.9058 15.1831 24.6667 18.5895 24.6667Z" fill="black"/>
<path d="M172.042 117.253C171.69 117.609 184.352 163.845 184.883 164.02C185.413 164.194 195.164 140.092 195.164 140.092C195.164 140.092 219.144 130.044 218.963 129.516C218.782 128.987 172.393 116.898 172.042 117.253Z" fill="black"/>
<path d="M195.164 140.092C195.164 140.092 194.323 142.171 193.122 145.102L208.725 160.515C209.081 160.866 212.595 157.309 212.595 157.309C212.595 157.309 216.108 153.751 215.753 153.4L200.149 137.988C197.232 139.225 195.164 140.092 195.164 140.092Z" fill="black"/>
<path d="M172.169 112.246C172.473 112.251 172.726 112.281 172.836 112.295C173.095 112.328 173.361 112.376 173.57 112.416C174.015 112.502 174.599 112.629 175.265 112.782C176.613 113.09 178.49 113.544 180.699 114.092C185.127 115.19 190.986 116.69 196.829 118.215C202.672 119.74 208.52 121.295 212.928 122.505C215.127 123.109 216.993 123.633 218.327 124.028C218.986 124.222 219.564 124.4 220.002 124.547C220.207 124.616 220.469 124.707 220.719 124.81C220.827 124.854 221.066 124.955 221.336 125.104C221.462 125.173 221.736 125.33 222.046 125.574C222.15 125.657 223.065 126.336 223.593 127.629L223.694 127.896L223.764 128.116C224.43 130.374 223.284 132.073 223.079 132.372C222.712 132.909 222.321 133.254 222.174 133.381C221.832 133.676 221.503 133.882 221.359 133.972C221.011 134.187 220.612 134.399 220.263 134.576C219.527 134.952 218.526 135.423 217.4 135.938C215.127 136.977 212.106 138.3 209.112 139.592C209.061 139.615 209.008 139.636 208.956 139.658C209.723 140.416 210.526 141.209 211.331 142.004C215.188 145.813 219.089 149.666 219.267 149.842C220.924 151.479 220.827 153.467 220.73 154.178C220.622 154.963 220.358 155.556 220.237 155.81C219.97 156.374 219.639 156.845 219.448 157.106C219.018 157.695 218.478 158.322 218.035 158.818C217.568 159.34 217.099 159.84 216.754 160.201C216.58 160.384 216.432 160.535 216.327 160.643C216.275 160.697 216.233 160.739 216.203 160.77C216.189 160.785 216.177 160.797 216.168 160.806L216.153 160.822L212.595 157.309L216.152 160.823L215.975 160.999C215.869 161.105 215.719 161.254 215.538 161.431C215.181 161.781 214.688 162.256 214.171 162.73C213.681 163.178 213.061 163.727 212.477 164.164C212.219 164.358 211.751 164.695 211.191 164.969C210.938 165.093 210.349 165.365 209.566 165.482C208.878 165.584 206.992 165.701 205.368 164.22L205.212 164.072L194.902 153.888C194.88 153.94 194.859 153.994 194.837 154.046C193.582 157.055 192.296 160.092 191.285 162.377C190.784 163.509 190.325 164.515 189.959 165.256C189.786 165.607 189.58 166.009 189.368 166.36C189.281 166.505 189.078 166.836 188.787 167.182C188.662 167.331 188.323 167.725 187.79 168.1C187.485 168.315 185.699 169.552 183.32 168.77C181.848 168.285 181.07 167.261 180.981 167.151C180.732 166.843 180.572 166.571 180.501 166.447C180.349 166.178 180.245 165.941 180.199 165.833C180.093 165.585 179.999 165.324 179.928 165.119C179.775 164.683 179.59 164.107 179.387 163.451C178.976 162.122 178.429 160.263 177.798 158.072C176.534 153.679 174.907 147.85 173.31 142.027C171.713 136.203 170.14 130.363 168.987 125.949C168.412 123.747 167.935 121.876 167.611 120.532C167.45 119.868 167.315 119.286 167.224 118.841C167.181 118.633 167.13 118.368 167.094 118.11C167.079 118 167.045 117.746 167.036 117.442C167.032 117.304 167.028 116.979 167.084 116.575C167.113 116.371 167.173 116.02 167.32 115.604C167.45 115.231 167.765 114.468 168.485 113.74C169.204 113.011 169.963 112.688 170.334 112.552C170.749 112.401 171.099 112.335 171.303 112.304C171.706 112.242 172.032 112.244 172.169 112.246ZM178.795 123.923C179.921 128.222 181.423 133.8 182.953 139.382C183.907 142.859 184.87 146.33 185.757 149.488L188.5 143.189C188.634 142.861 188.765 142.545 188.89 142.241C189.131 141.651 189.351 141.108 189.548 140.625C189.768 140.085 189.959 139.619 190.112 139.244C190.245 138.916 190.35 138.659 190.421 138.484C190.456 138.396 190.483 138.329 190.501 138.284C190.509 138.266 190.515 138.251 190.52 138.24C190.523 138.232 190.525 138.226 190.527 138.222C190.527 138.22 190.528 138.219 190.529 138.218V138.216L191.311 136.285L193.232 135.48C193.233 135.479 193.236 135.479 193.237 135.478C193.241 135.476 193.247 135.473 193.255 135.47L193.324 135.442C193.368 135.424 193.425 135.399 193.497 135.368C193.672 135.295 193.929 135.187 194.255 135.05C194.852 134.799 195.684 134.447 196.679 134.027C196.842 133.958 197.009 133.886 197.18 133.814C197.514 133.672 197.863 133.524 198.225 133.37L204.444 130.57C201.276 129.722 197.793 128.801 194.304 127.891C188.704 126.429 183.107 124.996 178.795 123.923Z" fill="black"/>
</svg>
