<svg width="1440" height="403" viewBox="0 0 1440 403" fill="none" xmlns="http://www.w3.org/2000/svg">
<path d="M334.5 270.54V104.04H343V61.5401L363 56.1812L380.5 60.8703V104.04H386.5V270.54H396.5V205.04H411.5L421.5 195.04H427.5L437.5 205.04H446.5V257.04L458 245.54L473.5 243.54V8.04004L499 0.540039L521 13.2417V228.54H547V217.54H584L601 200.54L615.5 208.912H634V257.04H646.5V197.54H669V191.04H680L685.485 200.54H691.5L698.5 207.54H704L712.5 216.04H740.5V255.04L760.5 252.54L773 255.04L793.5 250.54H852.5L871 253.54L893 266.242H901.5L906 252.54L911.5 250.54V124.54H927V116.04H943.5V124.54H961V187.04H981V141.54L1002.5 120.04H1021.5V135.54L1040.5 116.54H1063V128.54H1071V219.54H1083.5V144.04L1104.5 138.413V127.04H1119V135.54H1126.5L1147 156.04V199.04H1154V234.04H1170.5L1183 226.823H1197V95.04H1216V88.04H1233.5V95.04H1256V219.54L1272 235.54H1301L1304.46 241.54H1308.5L1311.5 236.344H1362V209.54H1380.5V200.04H1426V194.04H1440V401.54H0V187.04H13.5V214.54H23.5V210.54H46.5V218.54H51.5V210.54H89.5V265.04H133V218.54L139.928 214.54V200.54L146 197.034V190.04L162.454 180.54V173.54H179L202.494 197.034V111.04L224.145 98.54L242.332 109.04H253.5V279.54L264.47 298.54L271 287.229L284 274.229H303L311.5 265.729L334.5 270.54Z" fill="black" stroke="black"/>
</svg>
