<svg width="1440" height="292" viewBox="0 0 1440 292" fill="none" xmlns="http://www.w3.org/2000/svg">
<path d="M0 0H1440V91.8825C1433.37 94.1745 1427.1 96.025 1420.47 97.9803L1420.47 97.9815L1423.65 102.09L1406.45 108.294L1406.7 108.981L1412.86 109.644L1412.99 111.381L1400.36 112.894C1397.61 113.223 1394.86 113.553 1392.11 113.882C1387.33 114.453 1381.97 113.895 1377.97 115.964C1374.98 117.509 1372.31 118.641 1369.22 118.439C1363.67 118.075 1359.31 119.186 1357.85 125.606C1363.48 129.125 1371.5 125.496 1376.08 130.607L1371.75 136.571L1356.69 137.41L1359.32 140.975L1354.41 142.704C1363.46 145.131 1373.39 141.67 1381.92 147.641L1378.77 149.81L1391.3 152.475L1391.25 153.767C1386.96 154.191 1382.65 155.091 1378.38 154.947C1367.54 154.58 1356.72 153.351 1345.88 153.203C1333.87 153.04 1321.81 153.157 1309.85 154.139C1297.23 155.174 1284.71 157.374 1272.14 159.066L1272.28 160.428L1278.78 161.969C1277.31 163.253 1275.87 163.566 1274.41 163.621C1267.39 163.89 1260.36 164.117 1253.34 164.306C1246.27 164.495 1239.34 165.271 1233.14 169.087C1231.22 170.273 1229.49 171.823 1227.48 172.821C1218.08 177.49 1207.65 177.687 1197.59 179.494C1196.46 179.698 1195.42 180.389 1193.48 181.219L1198.15 183.211L1198.13 184.115L1181.11 187.318L1181.11 187.317L1181.11 187.317L1181.11 187.318C1187.78 188.045 1193.03 188.617 1197.92 189.511C1195.19 190.261 1192.83 190.785 1190.44 191.102C1181.78 192.252 1173.13 193.613 1164.43 194.369C1153.71 195.3 1142.94 195.601 1132.21 196.386L1131.62 196.429C1126.91 196.771 1122.11 197.12 1117.64 198.421C1114.3 199.391 1111.46 202.055 1108 203.861C1104.83 204.129 1102.05 204.483 1099.28 204.871C1090.53 206.096 1081.8 207.476 1073.02 208.482C1070.39 208.784 1067.64 208.057 1063.67 207.681L1076.13 200.35L1076.13 198.714C1073.16 197.37 1070.28 195.707 1067.19 194.752C1061.99 193.146 1056.65 191.99 1051.22 190.269C1051.72 188.227 1052.36 186.562 1053.08 184.708L1051.24 177.19C1055.02 175.382 1058.67 173.655 1062.29 171.895C1063.4 171.359 1065.19 170.933 1065.42 170.112C1066.69 165.528 1070.76 165.392 1074.15 164.127C1076.82 163.126 1079.51 162.163 1082.94 160.911C1071.15 151.689 1057.27 151.121 1043.95 146.897L1050.22 143.499C1048.31 142.988 1047.49 142.589 1046.66 142.571C1035.42 142.327 1024.18 141.713 1012.96 142.052C1001.78 142.391 990.899 137.581 979.339 141.626C973.98 143.502 967.301 141.616 961.221 141.424C949.549 141.056 937.879 140.663 926.207 140.311L924.19 140.25L924.187 140.25C912.902 139.91 901.617 139.57 890.33 139.303C880.556 139.071 870.907 133.938 860.059 139.325L888.148 144.218L887.968 145.451L880.116 147.681L884.453 150.56L875.147 152.281L875.143 153.059L894.614 156.39L894.427 158.083L880.529 159.395C885.33 160.771 888.676 162.243 892.147 162.642C915.235 165.291 937.339 172.381 959.898 177.402C963.851 178.282 967.8 179.3 971.607 180.655C973.161 181.208 974.462 182.711 975.642 183.997C976.692 185.141 977.241 186.762 978.337 187.842C979.337 188.827 980.775 189.367 982.775 190.55C980.386 191.973 978.412 192.563 977.345 193.885C972.51 199.873 965.234 200.557 958.687 202.637C952.404 204.633 945.886 205.891 939.162 207.496C938.66 207.819 938.467 208.12 938.275 208.421C939.022 208.421 939.77 208.422 940.74 208.557C940.823 209.257 940.684 209.821 940.171 210.381C930.161 212.599 920.525 214.821 910.888 217.043L910.887 217.043L910.869 217.047L911.059 217.808H928.051C927.64 218.707 927.115 218.908 926.578 219.07C913.194 223.092 898.927 222.393 885.601 227.636C878.346 230.491 869.729 229.829 861.761 230.992C860.372 231.195 859.157 232.59 857.47 233.443C844.045 235.333 831.012 237.214 817.864 239.112L817.852 239.114L820.96 239.833L820.954 239.834C813.724 241.04 806.908 242.177 799.686 243.252C788.767 243.91 778.254 244.632 767.741 245.353L767.722 245.354L767.857 246.808L793.165 248.463C792.277 249.364 791.399 249.652 790.499 249.756C777.539 251.262 764.576 252.743 751.614 254.232L750.987 254.304C742.592 255.268 734.189 256.233 725.416 257.134C723.724 257.144 722.42 257.221 720.828 257.252C720.09 257.498 719.64 257.789 718.846 258.116C717.816 258.201 717.128 258.25 716.04 258.236C714.023 258.208 712.407 258.243 710.399 258.261C708.707 258.311 707.406 258.379 705.756 258.378C704.499 258.493 703.592 258.675 702.301 258.845C700.829 258.901 699.723 258.869 698.656 259.057C694.624 259.77 690.545 260.332 686.603 261.39C683.939 262.106 681.473 263.56 678.535 264.573C672.837 265.475 667.522 266.489 662.093 267.23C661.648 266.781 661.317 266.603 660.662 266.209C658.644 265.758 656.937 265.248 655.259 265.33C636.473 266.24 617.693 267.283 598.907 268.199C590.678 268.6 582.398 269.434 574.213 268.925C562.162 268.176 550.305 268.405 538.536 271.24C536.285 271.782 533.934 271.909 531.309 272.212C529.526 272.5 526.565 271.613 528.627 274.995C528.237 275.358 528.064 275.619 527.486 275.917C525.181 276.004 523.283 276.053 521.035 276.039C520.071 275.969 519.399 275.951 518.415 275.925H518.414L518.131 275.918C508.929 276.284 500.167 276.667 491.064 277.007C489.447 277.227 488.17 277.49 486.893 277.753L487.088 278.774L487.091 278.774C488.541 278.683 489.992 278.593 491.753 278.554C492.483 278.585 492.902 278.564 493.403 278.852C493.424 279.363 493.364 279.567 492.937 279.876C487.51 280.659 482.449 281.337 477.134 281.926C476.175 281.895 475.472 281.953 474.383 281.955C471.347 281.887 468.696 281.876 465.617 281.772C454.225 282.321 443.262 282.962 431.894 283.543C427.38 283.836 423.271 284.189 418.742 284.482C415.465 284.421 412.606 284.421 409.748 284.421L409.669 285.199C412.445 285.924 415.221 286.65 417.836 287.68C414.774 288.668 411.897 289.799 408.969 289.949C400.328 290.393 391.667 290.447 383.013 290.659C363.539 291.134 344.063 292.088 324.592 291.993C279.041 291.772 233.492 291.101 187.944 290.477C179.779 290.365 171.623 289.606 163.463 289.146L163.492 288.078C169.241 288.078 174.99 288.078 181.194 288.117C186.918 288.156 192.187 288.156 197.456 288.156L197.451 286.269C191.997 286.269 186.543 286.269 180.643 286.283C168.671 285.948 157.144 285.567 145.615 285.271C142.373 285.188 139.405 285.364 136.709 288.117C135.319 289.536 132.282 289.652 129.9 289.742L129.697 289.75C126.459 289.875 123.188 289.137 119.95 289.267C115.502 289.445 111.066 290.518 106.636 290.451C94.5043 290.268 82.3811 289.584 70.2498 289.308C64.0491 289.167 57.8274 289.753 51.6342 289.516C41.3865 289.125 31.1589 288.236 20.9138 287.744C13.9505 287.41 6.97186 287.396 6.4389e-05 287.239L0 0Z" fill="black"/>
</svg>
