<svg width="1232" height="218" viewBox="0 0 1232 218" fill="none" xmlns="http://www.w3.org/2000/svg">
<path d="M1010 22.5L1000 18.5L992 10.5L984.5 7.5L981 9.5L970 0H953.5L929.5 20.5H903.5L893 16.5L889.5 19.5L883.5 16.5L872.5 27L866 24L857.5 30L842 25L837.5 19.5L826.5 28.5L806.5 34.5L774.5 52L712 60L697 52L686 57L671 51L654 48.5L643.5 53.5L614.5 54.5L598 51L586 57H582.5L571.5 62.5L565.5 60L559 65L549 66L537.5 61.5L496 52L490.5 56H470.5L463.5 52L460 56L451 52L445 56L433.5 53.5L429.5 58.5H424.5L392.5 66L386.5 58.5H364L356 52H349.5L345.5 56H339L331.5 58.5L317.5 62.5L303.5 61.5L284.5 72.7348L271 76.5L161.5 87.5L148.587 90.1067L133.5 84.5L129.5 81H113L106 74.5H69.5L50 82.5L39.5 80L0 78L0.5 217.5H1232L1010 22.5Z" fill="black" fill-opacity="0.5"/>
</svg>
