<svg width="1440" height="238" viewBox="0 0 1440 238" fill="none" xmlns="http://www.w3.org/2000/svg">
<path d="M1442 7.59759C1442 84.3957 1442 161.194 1442 237.996C961.333 238 480.667 238 0 238C0 219.148 2.79785e-08 200.34 0.344943 180.98C1.43534 182.019 2.1808 183.61 3.52681 186.483C4.32637 185.07 5.38397 184.082 5.26339 183.27C4.56569 178.568 7.28081 175.04 8.95195 171.114C9.95251 168.763 10.4431 166.195 11.2479 163.442C11.3304 162.768 11.3279 162.377 11.6754 161.975C13.9829 166.511 15.9403 171.057 18.1685 176.231C19.4623 171.643 20.5709 167.711 21.7402 163.486C22.064 162.662 22.3272 162.13 22.9527 160.866C25.189 169.32 27.1865 176.871 29.1839 184.422C29.6011 184.336 30.0184 184.25 30.4356 184.165C30.4356 183.131 30.2981 182.075 30.4613 181.068C30.9575 178.007 30.5953 173.217 32.3237 172.249C37.0858 169.583 36.1248 165.439 37.1536 161.561C37.7318 161.384 38.061 161.283 38.3865 161.475C38.6176 162.486 38.8524 163.204 39.111 164.293C40.4495 168.445 41.7643 172.225 42.9947 176.393C44.3083 182.729 45.7062 188.677 47.1042 194.625C48.4671 192.269 48.7733 189.903 49.294 187.586C49.9594 184.624 50.7979 181.701 51.808 178.531C52.4349 176.542 52.8156 174.784 53.4602 172.868C54.3889 170.95 55.0536 169.189 55.7158 167.063C55.9395 164.814 56.1657 162.932 56.7143 160.95C57.684 160.895 58.3314 160.939 58.9965 161.349C60.1519 164.955 61.2896 168.196 62.4589 171.778C63.5832 178.305 64.6757 184.49 65.8809 191.312C70.3117 184.487 70.4452 177.309 71.7528 170.318C73.4536 173.429 74.8138 176.573 76.2152 180.046C76.5941 181.624 76.9316 182.873 77.4571 184.817C78.684 182.715 79.5626 181.21 80.532 179.317C81.1142 175.737 81.6054 172.545 82.3531 169.184C83.2129 168.25 83.8164 167.485 84.4194 167.078C85.571 171.222 86.7397 175.002 87.8647 178.795C88.206 179.946 88.4266 181.132 88.7025 182.302C89.8287 181.603 91.2244 181.121 92.0107 180.147C92.9257 179.012 93.3072 177.446 94.1382 176.045C94.3563 176.024 94.7946 176.025 94.8002 176.323C95.0656 177.367 95.3254 178.111 95.571 179.233C97.2946 185.262 99.0325 190.913 100.77 196.565C101.293 196.53 101.816 196.496 102.338 196.462C102.835 192.127 103.331 187.792 103.921 183.047C104.32 176.733 105.17 171.008 108.523 166.566C111.944 177.617 115.339 188.586 118.734 199.555C120.99 197.202 121.935 195.111 123.005 193.086C123.909 191.376 125.344 189.857 125.872 188.056C127.428 182.742 128.65 177.331 130.311 170.734C132.129 174.668 133.231 177.054 134.45 179.691C135.278 178.553 135.92 177.672 137.292 175.786C139.918 183.329 142.215 189.928 144.815 197.397C147.494 189.805 149.902 182.979 152.277 176.248C154.193 182.234 156.082 188.136 157.971 194.038C158.291 193.903 158.61 193.768 158.93 193.633C160.767 187.428 162.604 181.223 164.578 174.556C165.698 176.401 166.534 177.778 167.621 179.569C168.984 175.604 170.154 172.201 171.622 167.93C172.748 170.478 173.413 171.982 174.399 174.215C175.88 169.931 177.116 166.358 178.365 162.788C178.379 162.791 178.358 162.768 178.701 162.834C179.73 165.344 180.531 167.765 181.073 170.242C181.56 172.471 181.334 174.942 182.187 176.986C183.594 180.358 183.97 183.685 183.644 187.256C183.543 188.371 184.246 189.56 184.582 190.715C185.776 190.32 187.397 190.277 188.073 189.455C189.403 187.838 190.186 185.776 191.25 183.931C191.422 183.633 191.878 183.502 192.113 183.351C192.977 184.609 193.701 185.663 194.61 186.987C197.49 179.032 200.179 171.605 203.366 162.8C204.834 167.123 205.843 170.095 206.893 173.188C207.659 172.891 208.499 172.566 209.523 172.496C211.497 174.153 213.287 175.556 216.115 177.772C216.722 173.233 217.211 169.586 217.755 165.525C221.552 165.062 221.906 161.714 220.899 158.786C219.225 153.922 222.197 151.269 224.695 148.127C224.681 148.046 224.519 148.074 224.765 147.961C225.094 147.506 225.177 147.162 225.405 146.702C225.711 146.385 225.909 146.237 226.225 146.479C227.054 149.055 227.804 151.294 228.554 153.532C229.025 153.453 229.496 153.374 229.967 153.295C230.64 150.838 231.313 148.382 232.27 145.928C233.223 146.243 233.893 146.557 234.541 147.261C234.611 148.935 234.703 150.218 234.743 151.884C237.293 155.691 234.826 161.545 240.507 163.656C239.929 167.953 239.358 172.198 238.739 176.791C239.975 176.881 241.769 177.012 243.81 177.161C244.063 178.473 244.307 179.74 244.552 181.007C244.916 181.229 245.28 181.45 245.644 181.671C246.058 180.542 246.472 179.414 247.033 177.884C249.132 181.617 250.057 185.71 254.383 182.007C254.12 179.814 253.872 177.749 253.544 175.01C258.561 177.755 258.962 173.933 259.57 171.543C260.855 166.497 261.595 161.313 262.658 155.925C263.186 154.707 263.615 153.749 264.155 153.134C265.223 156.171 266.181 158.863 267.607 162.876C269.434 158.974 270.656 156.364 272.2 153.067C273.175 157.203 273.949 160.485 274.723 163.767C275.236 163.765 275.749 163.764 276.262 163.762C277.479 159.373 278.697 154.983 280.078 150.312C280.702 148.704 281.163 147.379 281.666 145.933C284.246 151.59 286.583 156.716 288.92 161.841C289.563 161.914 290.207 161.988 290.85 162.061C292.839 156.627 294.827 151.193 296.609 146.324C299.657 152.106 302.855 158.176 306.398 164.898C308.712 161.94 310.117 160.143 311.747 158.162C313.378 157.977 314.784 157.977 316.398 157.977C316.644 157.457 317.084 156.526 317.872 154.863C318.946 158.091 319.514 160.681 320.657 162.985C321.805 165.301 323.526 167.333 325.038 169.551C326.161 168.517 327.109 167.644 328.396 166.457C330.134 170.314 331.686 173.76 333.648 178.115C335.801 172.426 337.646 167.554 339.65 162.261C340.523 164.591 341.256 166.547 342.351 169.468C344.662 164.141 346.465 159.984 348.792 154.622C349.452 157.77 349.589 159.93 350.373 161.82C351.703 165.027 353.147 168.269 355.11 171.101C356.471 173.065 358.968 172.002 358.474 169.997C357.581 166.37 359.775 165.002 361.692 163.05C362.383 162.347 362.661 161.169 362.954 160.158C363.605 157.909 364.147 155.628 364.891 153.01C366.429 150.893 363.388 146.785 368.128 147.182C368.254 148.559 368.39 149.557 368.436 150.906C368.99 153.672 370.403 156.182 370.119 158.482C369.494 163.552 372.549 165.555 376.238 168.289C377.798 165.111 379.072 162.516 380.384 159.844C381.551 160.453 382.666 161.035 383.911 161.685C385.043 159.458 386 157.578 386.952 155.706C389.176 161.739 391.313 167.533 393.449 173.327C394.162 173.316 394.874 173.305 395.587 173.294C397.675 168.194 399.762 163.094 402.412 156.62C403.941 162.607 405.16 167.381 406.29 172.384C406.59 173.471 406.98 174.33 407.399 175.488C407.583 176.151 407.738 176.516 407.982 177.086C408.473 177.418 408.874 177.546 409.545 177.795C410.287 178.519 410.759 179.122 411.087 180.003C410.944 182.174 410.944 184.068 410.944 185.962C411.496 186.169 412.049 186.377 412.601 186.585C413.559 184.85 414.517 183.116 415.555 181.337C415.635 181.291 415.619 181.107 415.823 180.914C415.7 179.37 415.374 178.018 415.047 176.309C416.303 170.338 417.559 164.724 418.93 158.597C422.381 162.754 429.689 161.588 428.869 168.928C428.769 171.865 429.604 173.654 432.549 174.145C433.334 177.342 434.045 180.239 434.814 183.373C437.245 180.653 436.13 175.68 441.023 175.359C441.092 175.354 441.106 174.496 441.45 174.065C442.453 174.824 443.151 175.554 443.836 176.45C443.823 176.616 443.994 176.901 443.953 177.29C445.135 182.737 446.359 187.797 447.583 192.856C448.117 192.863 448.651 192.87 449.185 192.877C449.966 191.31 450.747 189.742 451.822 188.266C452.854 189.616 453.591 190.876 454.329 192.136C454.726 192.183 455.122 192.229 455.519 192.276C456.252 188.713 456.985 185.149 457.869 181.234C458.344 179.135 458.667 177.387 459.3 175.855C461.268 184.622 462.842 193.191 464.674 201.705C464.963 203.047 466.416 204.138 467.33 205.345C467.732 205.041 468.133 204.737 468.535 204.433C468.264 202.974 467.245 200.863 467.849 200.167C470.812 196.754 470.5 192.755 470.946 188.732C471.527 183.488 472.798 178.322 473.989 172.965C474.991 173.589 475.776 174.37 476.596 175.495C477.587 177.043 478.544 178.248 479.464 179.788C479.075 186.999 480.332 193.37 484.285 198.765C486.097 193.845 487.655 189.353 489.422 184.944C490.16 183.104 491.343 181.442 492.478 179.966C494.569 183.865 496.505 187.496 498.938 192.056C499.491 188.58 499.97 185.578 500.772 182.444C502.465 178.132 503.834 173.953 505.48 169.702C506.134 169.607 506.512 169.582 506.901 169.938C507.836 173.78 508.761 177.241 509.712 181.03C510.395 182.543 511.051 183.726 512.073 185.57C513.673 182.798 514.786 180.87 516.064 178.645C516.731 176.039 517.232 173.729 517.923 171.467C518.376 171.519 518.633 171.482 518.935 171.766C519.569 174.694 520.152 177.259 520.828 180.168C522.185 183.809 523.449 187.106 524.712 190.403C525.168 190.988 525.623 191.574 526.078 192.159C526.935 190.752 527.793 189.345 528.569 188.072C528.733 188.416 529.125 189.243 529.501 190.396C529.783 191.762 530.083 192.8 530.36 194.207C530.822 195.606 531.103 197.314 531.829 197.532C533.742 198.105 535.848 198.03 538.383 198.26C538.4 197.979 538.466 196.839 538.645 195.339C539.759 191.671 540.759 188.362 541.993 184.283C543.394 186.445 544.267 187.793 545.873 190.271C547.554 185.696 548.878 182.092 550.48 177.732C551.311 179.926 551.846 181.339 552.423 183.115C553.516 185.947 554.568 188.417 555.619 190.887C556.155 190.857 556.692 190.826 557.229 190.796C557.229 188.038 557.229 185.281 557.371 182.205C559.238 178.707 560.962 175.527 562.812 172.114C565.718 182.31 568.485 192.019 571.339 202.038C572.35 201.538 573.183 201.126 573.875 200.783C576.401 203.783 574.852 209.484 580.648 209.936C582.888 199.561 585.065 189.48 587.242 179.398C591.066 188.302 590.06 198.318 595.776 206.537C596.58 202.895 597.384 199.253 598.359 194.836C599.78 197.646 600.741 199.547 601.701 201.447C602.057 201.353 602.412 201.259 602.767 201.164C603.876 195.147 604.984 189.13 606.092 183.113C606.659 183.133 607.226 183.153 607.792 183.174C608.518 189.15 609.245 195.126 609.971 201.102C610.478 201.086 610.985 201.07 611.492 201.055C612.484 195.159 613.476 189.264 614.468 183.369C614.929 183.385 615.389 183.402 615.849 183.418C616.842 190.056 617.835 196.694 618.827 203.332C619.343 203.349 619.86 203.366 620.376 203.383C621.636 196.701 622.896 190.018 624.155 183.336C624.628 183.331 625.101 183.327 625.573 183.322C626.408 188.973 627.243 194.624 628.078 200.275C628.524 200.312 628.97 200.35 629.416 200.387C631.36 190.274 633.304 180.161 635.249 170.048C635.564 170.086 635.879 170.124 636.194 170.162C637.089 173.719 637.984 177.276 638.863 181.194C639.231 182.736 640.171 184.064 639.904 185.072C638.749 189.438 643.465 193.383 640.63 197.944C640.208 198.623 641.894 200.617 642.733 202.254C644.709 198.24 646.732 195.08 647.862 191.626C649.735 185.899 651.034 179.983 652.787 174.117C652.999 174.087 653.401 173.94 653.606 174.014C653.812 174.089 654.245 174.138 654.325 174.469C655.226 177.107 656.048 179.414 656.814 182.07C656.557 187.785 658.186 192.499 661.882 197.559C663.229 194.042 664.244 191.39 665.278 188.69C666.76 189.333 668.002 189.872 669.318 190.703C670.201 190.871 671.416 191.04 671.749 190.576C673.597 187.993 675.231 185.256 677.031 182.426C677.763 183.759 678.457 185.023 679.668 187.229C680.603 185.426 681.761 184.263 681.616 183.294C680.879 178.345 684.174 174.675 685.569 170.404C686.607 169.468 687.412 168.484 688.408 167.3C688.761 166.773 688.925 166.446 689.376 166.285C690.023 166.712 690.381 166.972 690.741 167.579C691.485 170.603 692.227 173.28 692.975 176.264C693.58 177.618 694.179 178.666 694.746 180.098C695.252 182.067 695.792 183.65 696.332 185.234C698.012 183.767 701.288 185.456 702.025 181.643C702.782 177.729 704.697 174.041 706.144 170.62C709.039 179.683 711.895 188.379 714.692 196.893C721.108 194.578 722.672 189.481 723.576 183.082C725.051 186.485 725.983 188.634 727.284 191.634C730.259 186.74 732.658 182.795 735.059 178.845C736.156 179.427 736.944 179.846 738.216 180.522C738.727 177.686 739.137 175.408 739.693 172.786C739.886 171.456 739.933 170.47 740.175 169.417C740.618 169.191 740.761 168.965 741.052 168.846C746.77 174.224 747.241 181.667 749.897 188.135C750.692 190.071 751.786 191.957 753.084 193.595C754.663 195.585 756.058 194.859 756.786 192.695C757.621 190.208 758.335 187.681 759.211 184.812C762.435 187.279 763.474 185.451 764.246 182.921C764.878 180.85 765.567 178.791 766.335 176.767C767.896 172.65 769.515 168.556 771.152 164.469C771.296 164.108 771.751 163.871 772.281 163.368C773.115 165.112 773.862 166.673 774.609 168.233C775.067 168.243 775.526 168.253 775.984 168.262C776.674 165.183 777.364 162.104 778.326 158.923C779.84 162.901 781.084 166.981 782.421 171.37C782.828 171.257 784.043 170.92 785.36 170.555C785.547 171.465 785.469 172.273 785.834 172.635C786.797 173.595 787.951 174.362 789.029 175.206C789.058 174.019 789.033 172.827 789.133 171.646C789.205 170.803 789.212 169.819 789.648 169.165C793.422 163.497 794.567 157.23 794.187 150.265C795.166 148.658 796.058 147.346 797.002 146.391C797.936 150.796 798.713 154.873 799.778 158.872C800.034 159.834 801.249 160.54 802.022 161.364C802.659 160.495 803.683 159.701 803.865 158.746C804.67 154.524 805.233 150.256 806 146.232C806.525 147.202 806.935 147.946 807.314 149.068C809.524 155.96 808.608 163.948 816.074 168.145C817.297 166.197 818.523 164.241 819.72 162.334C822.962 164.047 825.328 163.071 826.903 160.268C829.272 156.056 831.434 151.728 834.127 146.607C835.012 150.104 835.784 153.157 836.384 156.486C837.137 160.952 836.149 166.161 842.124 168.022C842.307 169.677 842.396 171.013 842.488 172.349C842.636 174.5 842.786 176.651 842.935 178.803C843.559 178.923 844.183 179.043 844.807 179.163C846.704 176.731 849.321 174.567 850.345 171.809C852.409 166.252 855.093 160.62 853.573 154.09C853.973 153.09 854.202 152.334 854.714 151.59C855.374 151.626 855.751 151.648 856.171 151.924C856.49 152.59 856.767 153.004 857.12 153.753C858.443 159.243 859.532 164.445 861.026 169.527C861.546 171.296 863.069 172.77 864.744 175.299C867.172 168.323 869.119 162.731 871.241 156.835C872.345 153.95 873.274 151.369 874.398 148.766C874.592 148.746 874.959 148.612 875.293 148.778C875.907 149.306 876.388 149.643 876.437 150.034C877.182 155.934 877.443 161.936 878.723 167.713C879.573 171.551 882.819 174.715 882.761 179.021C882.76 179.049 883.305 179.084 882.598 179.007C884.801 170.792 886.961 162.738 889.121 154.685C889.538 154.769 889.954 154.853 890.37 154.938C890.816 156.017 891.262 157.096 891.708 158.176C892.137 158.191 892.566 158.207 892.995 158.222C893.587 154.419 894.179 150.615 894.986 146.664C896.904 147.534 898.608 148.55 900.569 149.689C901.339 150.37 901.85 150.931 902.339 151.92C902.423 154.997 901.715 158.071 902.821 160.198C904.706 163.824 905.892 166.897 903.319 170.609C903.033 171.022 904.073 172.989 904.919 173.437C907.208 174.649 909.723 175.432 912.349 176.463C913.142 174.672 914.304 172.048 916.013 168.188C916.681 169.924 917.113 171.046 917.545 172.169C919.339 169.366 919.88 167.156 920.382 164.937C920.967 162.354 921.517 159.763 922.234 156.955C923.028 155.941 923.67 155.148 924.31 154.674C924.654 156.035 925.001 157.078 925.17 157.588C927.675 155.82 929.893 154.254 932.157 153.04C933.241 157.114 934.732 160.782 935.198 164.576C935.77 169.238 936.311 173.681 939.401 176.296C941.958 176.142 943.77 176.033 946.625 175.862C948.026 167.803 949.524 159.187 951.1 150.302C951.681 149.303 952.184 148.573 952.718 148.194C953.259 149.834 953.769 151.123 954.291 152.665C954.493 153.382 954.683 153.846 954.867 154.695C955.47 157.646 956.08 160.212 956.749 163.118C956.947 165.887 957.086 168.316 957.225 170.745C957.734 170.735 958.242 170.725 958.75 170.715C958.75 168.057 958.75 165.398 958.94 162.422C959.543 160.452 959.957 158.799 960.521 156.938C960.773 156.238 960.875 155.746 961.125 154.906C961.444 153.102 961.614 151.645 961.903 149.171C963.17 150.301 963.906 150.959 964.689 152.014C966.166 160.594 967.596 168.776 969.026 176.957C969.514 176.879 970.002 176.801 970.489 176.723C970.857 169.883 971.226 163.043 971.667 155.996C971.739 155.79 971.698 155.355 972.036 155.402C973.369 158.303 974.454 161.129 975.338 164.017C976.595 168.124 976.424 172.919 981.781 176.161C983.654 170.159 985.327 164.71 987.09 159.291C987.247 158.807 987.982 158.511 988.498 158.497C990.146 164.948 991.744 171.032 993.532 177.837C997.45 173.401 1000.38 170.006 998.256 164.93C998.1 164.557 998.754 163.889 998.927 163.326C999.931 160.041 1000.9 156.747 1002.08 153.414C1002.53 153.27 1002.7 153.08 1003.08 152.841C1004.35 154.075 1005.31 155.27 1006.44 156.687C1007.36 154.767 1008.05 153.333 1008.86 151.652C1011.71 154.707 1009.19 161.018 1015.91 160.518C1019.95 161.438 1018.99 158.002 1019.73 156.286C1020.7 154.019 1021.05 151.477 1021.51 149.649C1024.67 150.293 1027.11 150.789 1029.69 151.313C1030.37 152.364 1031.28 153.774 1032.26 155.28C1033.7 154.98 1035.06 154.7 1036.56 154.693C1037.34 156.003 1037.97 157.041 1038.77 158.353C1039.58 157.235 1040.18 156.409 1041.61 154.431C1042.9 158.44 1043.67 161.652 1045 164.61C1045.67 166.105 1047.36 167.141 1048.59 168.385C1049.62 167.191 1050.8 166.094 1051.63 164.777C1052.5 163.41 1053.04 161.831 1053.83 160.102C1054.43 160.753 1054.71 161.096 1055.03 161.399C1056.25 162.557 1057.49 163.702 1058.72 164.852C1059.65 163.069 1060.8 161.362 1061.45 159.482C1062.13 157.518 1062.33 155.387 1062.96 152.229C1066.81 157.486 1065.2 164.447 1071.35 167.423C1072.01 165.548 1072.61 163.856 1073.3 161.917C1074.62 162.307 1075.78 162.65 1077.9 163.277C1077.03 160.348 1076.41 158.269 1075.8 156.208C1080.71 154.414 1082.51 150.914 1079.9 146.873C1078.27 144.357 1079.96 143.663 1081.2 142.206C1082.31 140.6 1083.05 139.062 1083.95 137.348C1084.23 136.724 1084.36 136.277 1084.75 135.776C1085.53 135.805 1086.04 135.888 1086.53 136.003C1086.51 136.035 1086.57 136.085 1086.53 136.449C1088.41 141.511 1090.33 146.208 1091.53 149.141C1097.06 155.656 1102.2 159.885 1109.35 155.254C1107.91 152.709 1106.52 150.261 1105.35 147.628C1105.67 146.353 1105.75 145.262 1105.86 143.877C1107.89 144.628 1109.49 145.217 1111.7 146.03C1110.61 143.178 1109.81 141.064 1108.85 138.557C1111.01 139.713 1112.52 140.52 1114.48 141.568C1113.7 137.559 1113.09 134.379 1112.31 130.339C1114.29 131.325 1115.37 131.859 1116.33 132.334C1116.09 130.109 1115.89 128.206 1115.94 126.196C1117.22 124.24 1118.23 122.392 1119.58 120.48C1124.58 125.674 1130.9 130.298 1126.37 139.354C1128.37 138.817 1129.64 138.474 1130.87 138.143C1131.31 139.217 1131.67 140.109 1132.22 141.163C1132.52 141.429 1132.64 141.533 1132.7 142.006C1132.44 144.118 1132.24 145.859 1131.86 147.715C1132.01 147.983 1132.33 148.137 1132.93 148.128C1136.52 145.363 1140.2 144.145 1145.22 145.36C1138.03 140.328 1141.52 133.181 1140.37 127.319C1142.68 128.153 1144.69 128.914 1147.82 130.099C1146.03 127.683 1145.09 126.41 1143.74 124.588C1145.38 125.097 1146.32 125.389 1146.46 125.436C1146.95 121.988 1147.41 118.628 1147.96 114.733C1149.31 115.572 1150.1 116.06 1151.54 116.951C1151.54 114.446 1151.54 112.595 1151.54 110.62C1155.41 111.83 1155.06 108.553 1156.07 106.257C1156.36 105.475 1156.47 104.915 1156.88 104.427C1157.48 104.761 1157.79 105.023 1158.09 105.546C1158.27 106.291 1158.46 106.775 1158.75 107.567C1160.89 111.403 1162.94 114.93 1165.08 118.614C1166.24 117.588 1167.37 116.59 1168.5 115.593C1168.95 115.678 1169.41 115.763 1169.86 115.848C1169.56 120.547 1169.25 125.245 1168.97 129.526C1170.53 128.463 1172.92 126.836 1175.04 125.396C1177.98 127.03 1180.57 128.473 1183.7 130.209C1181.99 125.523 1186.96 120.033 1180.47 117.314C1180.35 117.265 1180.39 116.726 1180.43 116.425C1180.79 113.838 1181.16 111.252 1181.55 108.438C1183.33 109.958 1185.04 111.426 1186.74 112.893C1187.06 112.727 1187.38 112.56 1187.69 112.393C1186.87 108.525 1186.04 104.656 1185.3 100.493C1185.49 99.5983 1185.6 98.9976 1186.02 98.5623C1187.56 100.082 1188.81 101.436 1190.8 103.604C1190.8 99.7441 1190.89 97.1982 1190.77 94.6633C1190.66 92.5863 1191.24 92.0369 1193.16 93.4689C1193.86 93.5117 1194.45 93.3501 1195.1 92.8593C1195.19 91.6359 1195.22 90.7418 1195.54 89.7108C1196.83 88.7418 1197.83 87.9097 1199.09 86.8507C1200.21 90.8622 1201.29 94.7462 1202.18 98.7682C1202.02 99.3319 1202.06 99.7577 1202.1 100.184C1202.41 99.8591 1202.73 99.5347 1203.25 99.0328C1204.05 98.164 1204.64 97.4728 1205.41 96.937C1205.73 97.193 1205.86 97.2937 1205.97 97.6995C1206.1 99.8479 1206.24 101.691 1206.32 103.882C1205.08 107.163 1203.91 110.096 1202.75 113.029C1203.01 113.347 1203.27 113.665 1203.54 113.983C1206.05 112.333 1208.56 110.682 1211.31 109.207C1211.76 109.938 1211.98 110.493 1212.13 111.418C1211.51 115.926 1210.95 120.064 1210.4 124.217C1214.18 122.936 1217.48 121.823 1220.77 120.71C1220.97 121.09 1221.17 121.469 1221.37 121.848C1219.96 123.911 1218.83 126.256 1217.08 127.979C1212.75 132.261 1220.64 131.648 1219.56 134.566C1219.41 134.963 1219.84 135.575 1220.05 136.25C1222.42 135.367 1224.48 134.599 1227.71 133.395C1226.44 135.399 1225.51 136.232 1225.41 137.155C1225.24 138.79 1225.4 140.518 1225.78 142.118C1225.88 142.523 1227.83 143.04 1228.13 142.734C1229.12 141.684 1230.13 140.381 1230.47 139.01C1231.43 135.121 1231.98 131.135 1232.84 127.218C1233.32 125.001 1233.46 122.227 1234.86 120.789C1237.94 117.633 1238.75 114.183 1238.5 109.95C1239.53 108.946 1240.28 108.092 1241.59 106.601C1242.54 109.531 1243.25 111.707 1243.88 114.25C1244.96 118.508 1246.11 122.398 1247.28 126.646C1247.88 128.549 1248.46 130.093 1249.23 132.128C1250.68 131.332 1252.01 130.606 1253.41 129.633C1253.47 129.215 1253.45 129.043 1253.58 128.63C1253.76 128.023 1253.8 127.657 1254.04 126.997C1255.14 123.206 1256.04 119.71 1256.97 116.133C1258.07 116.547 1258.53 116.582 1258.6 116.768C1259.82 119.898 1260.75 123.176 1262.29 126.135C1262.99 127.493 1264.79 128.818 1266.27 129.051C1267.31 129.214 1269.11 127.765 1269.75 126.589C1271.12 124.077 1271.96 121.274 1273.17 118.385C1273.41 117.682 1273.49 117.183 1273.71 116.432C1274.24 115.664 1274.63 115.15 1274.64 115.128C1277.01 119.318 1279.3 123.389 1281.6 127.46C1282.05 127.414 1282.49 127.368 1282.93 127.322C1284.01 124.204 1285.08 121.086 1286.49 116.989C1287.71 119.326 1288.6 120.618 1289.07 122.049C1289.89 124.55 1289.92 126.992 1294.13 126.183C1295.75 125.871 1300.17 127.103 1300.04 131.349C1300.02 132.074 1300.85 132.825 1301.52 133.94C1304.72 126.698 1307.72 119.927 1310.95 112.606C1312.54 116.686 1313.81 120.097 1315.2 123.458C1315.62 124.476 1316.26 125.979 1317.01 126.127C1317.85 126.292 1319.17 125.356 1319.87 124.544C1320.83 123.434 1321.4 121.989 1322.27 121.023C1323.17 123.569 1323.93 125.777 1324.73 128.316C1327.16 131.328 1329.54 134.01 1331.79 136.525C1338.33 131.872 1338.38 124.454 1340.4 116.733C1341.87 120.596 1342.8 123.041 1344 126.207C1344.91 124.941 1345.14 124.333 1345.58 124.08C1346.16 123.742 1346.9 123.678 1347.66 123.861C1348.41 126.411 1349.08 128.597 1349.99 131.561C1352.2 128.808 1353.75 126.976 1355.17 125.05C1355.48 124.628 1355.34 123.874 1355.53 122.937C1358.5 115.334 1358.5 115.334 1361.15 116.122C1362.18 113.613 1363.21 111.111 1364.53 108.643C1365.54 109.783 1366.27 110.888 1367.05 112.314C1368.52 114.675 1369.94 116.715 1371.42 118.704C1371.47 118.653 1371.53 118.77 1371.53 118.77C1371.53 118.77 1371.27 118.712 1371.41 118.477C1371.7 117.718 1371.86 117.194 1372.36 116.54C1373.28 114.31 1373.84 112.21 1374.73 110.231C1375.82 111.788 1376.7 113.174 1377.31 114.668C1378.7 118.035 1379.96 121.455 1381.27 124.853C1381.77 124.9 1382.27 124.948 1382.77 124.995C1384.15 121.102 1385.53 117.209 1386.92 113.316C1388.07 122.503 1392.85 126.54 1402.41 124.703C1402.96 122.176 1403.53 119.502 1404.08 116.913C1399.24 115.072 1395.3 113.082 1394.05 107.288C1396.54 108.418 1398.32 109.224 1400.8 110.352C1400.39 108.257 1400.11 106.831 1399.83 105.41C1394.7 106.264 1393.22 105.093 1392.29 99.8728C1392.17 99.1822 1391.59 98.5734 1391.11 97.5959C1390.37 96.1093 1389.74 94.9536 1389.1 93.798C1389.44 93.6218 1389.77 93.4457 1390.11 93.2696C1391.47 93.8819 1392.83 94.4943 1394.19 95.1066C1388.14 91.0449 1392.03 86.5346 1392.9 81.9911C1395.81 85.0696 1398.47 87.8745 1401.78 91.3794C1402.71 93.127 1404.24 96.0102 1406.16 99.6203C1406.87 97.3299 1407.23 96.0751 1407.65 94.8414C1408.13 93.43 1408.67 92.0376 1409.41 90.0255C1411.6 91.9749 1413.81 93.1782 1414.88 95.0372C1416.98 98.6872 1424.71 102.739 1429.03 101.828C1425.86 99.1778 1426.19 95.757 1427.28 92.1151C1429.16 92.1715 1430.69 92.3588 1433.3 92.6777C1432 90.8228 1430.95 88.8181 1430.6 88.933C1428.99 89.4606 1427.57 90.5808 1425.67 91.5301C1419.54 91.3625 1415.6 87.6811 1410.64 84.4024C1417.07 82.0116 1424.69 84.7452 1428.91 77.8052C1427.57 77.1434 1426.33 76.7981 1425.46 76.0301C1424.65 75.3035 1424.22 74.1331 1423.54 73.0162C1420.33 77.6085 1420.33 77.6085 1416.91 76.0738C1415.61 77.0723 1413.82 78.9091 1413.45 78.6573C1410.86 76.8861 1408.56 74.6848 1405.69 72.207C1408.35 71.5003 1409.92 71.0855 1412.87 70.302C1410.56 68.2514 1409.07 66.9315 1407.47 65.466C1407.13 65.3787 1406.91 65.437 1406.7 65.4954C1406.87 65.6525 1407.04 65.8096 1407 66.2379C1403.61 66.2478 1400.43 65.9864 1397.16 65.4595C1396.49 64.7713 1395.91 64.3484 1395.21 63.645C1394.12 62.3398 1393.16 61.3152 1392.22 59.9915C1392.32 59.2989 1392.39 58.9056 1392.77 58.5846C1394.49 58.906 1395.91 59.1551 1397.33 59.4042C1397.22 57.0924 1397.12 54.7806 1397.01 52.3827C1390.45 54.0545 1388.58 53.15 1387.13 47.6677C1386.64 45.0557 1386.05 42.7876 1385.52 40.2232C1385.09 39.1305 1384.61 38.334 1384.07 37.3094C1383.75 36.7028 1383.48 36.3242 1383.52 35.81C1385.17 32.1762 1386.52 28.6781 1388.15 25.0791C1389.41 26.0856 1390.4 27.1929 1391.39 28.5704C1391.98 29.1306 1392.56 29.4205 1393.46 29.8617C1394.93 31.0054 1396.08 31.9979 1397.19 32.9641C1397.01 33.6442 1396.98 34.1393 1396.76 34.5204C1393.52 40.0738 1399.85 39.8569 1401.54 42.4269C1401.58 42.4927 1402.04 42.2849 1402.68 42.0917C1402.06 40.8818 1401.48 39.7506 1400.99 38.7992C1402.27 37.4222 1403.33 36.2834 1404.86 34.6388C1405.77 39.9829 1407.06 44.7198 1411.68 45.3424C1414.05 42.5107 1415.89 40.3115 1417.65 38.1955C1412.09 38.7218 1409.26 36.5456 1408.59 31.707C1411.02 31.1102 1413.4 30.5274 1415.77 29.9446C1415.66 29.4966 1415.55 29.0486 1415.45 28.6006C1408.59 28.379 1404.04 26.2827 1403.36 19.5649C1402.88 15.1668 1404.93 10.8754 1402.97 6.84839C1403.67 6.72887 1404.06 6.65033 1404.81 6.6292C1405.37 6.33578 1405.58 5.98495 1405.75 5.27457C1405.91 3.30094 1406.12 1.68687 1406.58 0C1408.51 2.61375 1410.2 5.30017 1411.88 7.98666C1412.19 7.81316 1412.5 7.63967 1412.82 7.46618C1412.52 9.37729 1412.23 11.2885 1411.79 14.1125C1414.38 13.5158 1416.14 13.1093 1418.07 12.6639C1417.45 14.4893 1416.84 16.2798 1416.24 18.0471C1421.01 20.8051 1421.15 15.7236 1423.75 14.6126C1424.76 15.8871 1425.44 16.9867 1426.05 18.1196C1426.74 19.385 1427.08 20.9974 1428.08 21.899C1430.35 23.9524 1432.93 25.6638 1436.19 28.123C1436.5 26.9428 1436.94 25.2941 1437.5 23.1391C1437.62 23.084 1438.52 22.6501 1439.7 22.084C1438.86 21.2011 1438.31 20.621 1437.76 20.0408C1437.83 20.2053 1437.97 20.512 1437.96 20.5143C1437.15 20.896 1436.3 21.5779 1435.51 21.5185C1434.83 21.4671 1434.14 20.6374 1433.58 20.0318C1433.02 19.4306 1432.69 18.135 1432.16 18.0822C1428.58 17.7229 1428.04 14.8091 1426.92 11.9979C1424.03 9.34215 1424.03 9.34215 1426.35 8.77334C1431.75 9.88634 1437.05 11.8595 1441.41 6.99691C1441.61 7.1971 1441.8 7.39735 1442 7.59759ZM1423.07 42.1618C1421.01 42.1618 1418.94 42.1618 1416.33 42.1618C1417.48 44.7183 1418.17 46.2574 1418.9 47.9008C1423.07 47.195 1427.43 47.3677 1430.93 44.3554C1428.1 43.6098 1425.95 43.0407 1423.07 42.1618ZM1102.26 163.674C1101.5 162.002 1100.74 160.331 1099.66 157.952C1097.99 164.407 1098.79 168.351 1101.31 169.478C1101.73 167.746 1102.14 165.99 1102.26 163.674ZM1401.18 102.976L1401.05 103.23C1401.05 103.23 1401.32 103.185 1401.18 102.976Z" fill="#020100"/>
</svg>
