<svg width="1440" height="258" viewBox="0 0 1440 258" fill="none" xmlns="http://www.w3.org/2000/svg">
<path d="M1010 37.5L1000 33.5L992 25.5L984.5 22.5L981 24.5L970 15H953.5L929.5 35.5H903.5L893 31.5L889.5 34.5L883.5 31.5L872.5 42L866 39L857.5 45L842 40L837.5 34.5L826.5 43.5L806.5 49.5L774.5 67L712 75L697 67L686 72L671 66L654 63.5L643.5 68.5L614.5 69.5L598 66L586 72H582.5L571.5 77.5L565.5 75L559 80L549 81L537.5 76.5L496 67L490.5 71H470.5L463.5 67L460 71L451 67L445 71L433.5 68.5L429.5 73.5H424.5L392.5 81L386.5 73.5H364L356 67H349.5L345.5 71H339L331.5 73.5L317.5 77.5L303.5 76.5L284.5 87.7348L271 91.5L161.5 102.5L148.587 105.107L133.5 99.5L129.5 96H113L106 89.5H69.5L50 97.5L39.5 95L0 93L0.5 232.5H1232L1010 37.5Z" fill="black" fill-opacity="0.5"/>
<path d="M1440 20L1324.54 5L1289.55 20L1270.06 17L1228.57 28L1195.58 22.5L1121.11 28H1083.62L1051.14 44H1013.65L959.167 65L888.691 73L844.707 90.5L789.726 92.5L761.735 102H714.252L684.262 112.5H650.774L639.278 115.5L549.309 92.5L466.838 119L418.355 123L398.362 113.5H351.878L284.401 104L146.449 136.5H120.458L0 159V258H1440V20Z" fill="black"/>
<path d="M29 145L26 156H32L29 145Z" fill="black"/>
<path d="M23 148L20 159H26L23 148Z" fill="black"/>
<path d="M47 142L44 153H50L47 142Z" fill="black"/>
<path d="M41 145L38 156H44L41 145Z" fill="black"/>
<path d="M35 147L32 156H38L35 147Z" fill="black"/>
<path d="M61 140L58 151H64L61 140Z" fill="black"/>
<path d="M55 143L52 154H58L55 143Z" fill="black"/>
<path d="M79 137L76 148H82L79 137Z" fill="black"/>
<path d="M73 140L70 151H76L73 140Z" fill="black"/>
<path d="M67 142L64 151H70L67 142Z" fill="black"/>
<path d="M90 135L87 146H93L90 135Z" fill="black"/>
<path d="M84 138L81 149H87L84 138Z" fill="black"/>
<path d="M108 132L105 143H111L108 132Z" fill="black"/>
<path d="M102 135L99 146H105L102 135Z" fill="black"/>
<path d="M96 137L93 146H99L96 137Z" fill="black"/>
<path d="M131 135L134 146H128L131 135Z" fill="black"/>
<path d="M137 138L140 149H134L137 138Z" fill="black"/>
<path d="M113 132L116 143H110L113 132Z" fill="black"/>
<path d="M119 135L122 146H116L119 135Z" fill="black"/>
<path d="M125 137L128 146H122L125 137Z" fill="black"/>
<path d="M1008 40L1005 51H1011L1008 40Z" fill="black"/>
<path d="M1002 43L999 54H1005L1002 43Z" fill="black"/>
<path d="M1026 37L1023 48H1029L1026 37Z" fill="black"/>
<path d="M1020 40L1017 51H1023L1020 40Z" fill="black"/>
<path d="M1014 42L1011 51H1017L1014 42Z" fill="black"/>
<path d="M1040 35L1037 46H1043L1040 35Z" fill="black"/>
<path d="M1034 38L1031 49H1037L1034 38Z" fill="black"/>
<path d="M1058 32L1055 43H1061L1058 32Z" fill="black"/>
<path d="M1052 35L1049 46H1055L1052 35Z" fill="black"/>
<path d="M1046 37L1043 46H1049L1046 37Z" fill="black"/>
<path d="M1069 30L1066 41H1072L1069 30Z" fill="black"/>
<path d="M1063 33L1060 44H1066L1063 33Z" fill="black"/>
<path d="M1087 27L1084 38H1090L1087 27Z" fill="black"/>
<path d="M1081 30L1078 41H1084L1081 30Z" fill="black"/>
<path d="M1075 32L1072 41H1078L1075 32Z" fill="black"/>
<path d="M1110 30L1113 41H1107L1110 30Z" fill="black"/>
<path d="M1116 33L1119 44H1113L1116 33Z" fill="black"/>
<path d="M1092 27L1095 38H1089L1092 27Z" fill="black"/>
<path d="M1098 30L1101 41H1095L1098 30Z" fill="black"/>
<path d="M1104 32L1107 41H1101L1104 32Z" fill="black"/>
<path d="M1267 13L1264 24H1270L1267 13Z" fill="black"/>
<path d="M1261 16L1258 27H1264L1261 16Z" fill="black"/>
<path d="M1285 10L1282 21H1288L1285 10Z" fill="black"/>
<path d="M1279 13L1276 24H1282L1279 13Z" fill="black"/>
<path d="M1273 15L1270 24H1276L1273 15Z" fill="black"/>
<path d="M1299 8L1296 19H1302L1299 8Z" fill="black"/>
<path d="M1293 11L1290 22H1296L1293 11Z" fill="black"/>
<path d="M1317 5L1314 16H1320L1317 5Z" fill="black"/>
<path d="M1311 8L1308 19H1314L1311 8Z" fill="black"/>
<path d="M1305 10L1302 19H1308L1305 10Z" fill="black"/>
<path d="M1328 3L1325 14H1331L1328 3Z" fill="black"/>
<path d="M1322 6L1319 17H1325L1322 6Z" fill="black"/>
<path d="M1346 0L1343 11H1349L1346 0Z" fill="black"/>
<path d="M1340 3L1337 14H1343L1340 3Z" fill="black"/>
<path d="M1334 5L1331 14H1337L1334 5Z" fill="black"/>
<path d="M1369 3L1372 14H1366L1369 3Z" fill="black"/>
<path d="M1375 6L1378 17H1372L1375 6Z" fill="black"/>
<path d="M1351 0L1354 11H1348L1351 0Z" fill="black"/>
<path d="M1357 3L1360 14H1354L1357 3Z" fill="black"/>
<path d="M1363 5L1366 14H1360L1363 5Z" fill="black"/>
<path d="M1267 13L1264 24H1270L1267 13Z" fill="black"/>
<path d="M1261 16L1258 27H1264L1261 16Z" fill="black"/>
<path d="M1285 10L1282 21H1288L1285 10Z" fill="black"/>
<path d="M1279 13L1276 24H1282L1279 13Z" fill="black"/>
<path d="M1273 15L1270 24H1276L1273 15Z" fill="black"/>
<path d="M1299 8L1296 19H1302L1299 8Z" fill="black"/>
<path d="M1293 11L1290 22H1296L1293 11Z" fill="black"/>
<path d="M1317 5L1314 16H1320L1317 5Z" fill="black"/>
<path d="M1311 8L1308 19H1314L1311 8Z" fill="black"/>
<path d="M1305 10L1302 19H1308L1305 10Z" fill="black"/>
<path d="M1328 3L1325 14H1331L1328 3Z" fill="black"/>
<path d="M1322 6L1319 17H1325L1322 6Z" fill="black"/>
<path d="M1346 0L1343 11H1349L1346 0Z" fill="black"/>
<path d="M1340 3L1337 14H1343L1340 3Z" fill="black"/>
<path d="M1334 5L1331 14H1337L1334 5Z" fill="black"/>
<path d="M1369 3L1372 14H1366L1369 3Z" fill="black"/>
<path d="M1375 6L1378 17H1372L1375 6Z" fill="black"/>
<path d="M1351 0L1354 11H1348L1351 0Z" fill="black"/>
<path d="M1357 3L1360 14H1354L1357 3Z" fill="black"/>
<path d="M1363 5L1366 14H1360L1363 5Z" fill="black"/>
<path d="M661 108L658 119H664L661 108Z" fill="black"/>
<path d="M655 111L652 122H658L655 111Z" fill="black"/>
<path d="M679 105L676 116H682L679 105Z" fill="black"/>
<path d="M673 108L670 119H676L673 108Z" fill="black"/>
<path d="M667 110L664 119H670L667 110Z" fill="black"/>
<path d="M693 103L690 114H696L693 103Z" fill="black"/>
<path d="M687 106L684 117H690L687 106Z" fill="black"/>
<path d="M711 100L708 111H714L711 100Z" fill="black"/>
<path d="M705 103L702 114H708L705 103Z" fill="black"/>
<path d="M699 105L696 114H702L699 105Z" fill="black"/>
<path d="M722 98L719 109H725L722 98Z" fill="black"/>
<path d="M716 101L713 112H719L716 101Z" fill="black"/>
<path d="M740 95L737 106H743L740 95Z" fill="black"/>
<path d="M734 98L731 109H737L734 98Z" fill="black"/>
<path d="M728 100L725 109H731L728 100Z" fill="black"/>
<path d="M763 98L766 109H760L763 98Z" fill="black"/>
<path d="M769 101L772 112H766L769 101Z" fill="black"/>
<path d="M745 95L748 106H742L745 95Z" fill="black"/>
<path d="M751 98L754 109H748L751 98Z" fill="black"/>
<path d="M757 100L760 109H754L757 100Z" fill="black"/>
<path d="M1436 13L1439 24H1433L1436 13Z" fill="black"/>
<path d="M1418 10L1421 21H1415L1418 10Z" fill="black"/>
<path d="M1424 13L1427 24H1421L1424 13Z" fill="black"/>
<path d="M1430 15L1433 24H1427L1430 15Z" fill="black"/>
<path d="M1407 8L1410 19H1404L1407 8Z" fill="black"/>
<path d="M1413 11L1416 22H1410L1413 11Z" fill="black"/>
<path d="M1389 5L1392 16H1386L1389 5Z" fill="black"/>
<path d="M1395 8L1398 19H1392L1395 8Z" fill="black"/>
<path d="M1401 10L1404 19H1398L1401 10Z" fill="black"/>
<path d="M1366 8L1363 19H1369L1366 8Z" fill="black"/>
<path d="M1360 11L1357 22H1363L1360 11Z" fill="black"/>
<path d="M1384 5L1381 16H1387L1384 5Z" fill="black"/>
<path d="M1378 8L1375 19H1381L1378 8Z" fill="black"/>
<path d="M1372 10L1369 19H1375L1372 10Z" fill="black"/>
<path d="M385 111L388 122H382L385 111Z" fill="black"/>
<path d="M391 114L394 125H388L391 114Z" fill="black"/>
<path d="M367 108L370 119H364L367 108Z" fill="black"/>
<path d="M373 111L376 122H370L373 111Z" fill="black"/>
<path d="M379 113L382 122H376L379 113Z" fill="black"/>
<path d="M353 106L356 117H350L353 106Z" fill="black"/>
<path d="M359 109L362 120H356L359 109Z" fill="black"/>
<path d="M335 103L338 114H332L335 103Z" fill="black"/>
<path d="M341 106L344 117H338L341 106Z" fill="black"/>
<path d="M347 108L350 117H344L347 108Z" fill="black"/>
<path d="M324 101L327 112H321L324 101Z" fill="black"/>
<path d="M330 104L333 115H327L330 104Z" fill="black"/>
<path d="M306 98L309 109H303L306 98Z" fill="black"/>
<path d="M312 101L315 112H309L312 101Z" fill="black"/>
<path d="M318 103L321 112H315L318 103Z" fill="black"/>
<path d="M283 101L280 112H286L283 101Z" fill="black"/>
<path d="M277 104L274 115H280L277 104Z" fill="black"/>
<path d="M301 98L298 109H304L301 98Z" fill="black"/>
<path d="M295 101L292 112H298L295 101Z" fill="black"/>
<path d="M289 103L286 112H292L289 103Z" fill="black"/>
<path d="M888 67L885 78H891L888 67Z" fill="black"/>
<path d="M882 70L879 81H885L882 70Z" fill="black"/>
<path d="M906 64L903 75H909L906 64Z" fill="black"/>
<path d="M900 67L897 78H903L900 67Z" fill="black"/>
<path d="M894 69L891 78H897L894 69Z" fill="black"/>
<path d="M920 62L917 73H923L920 62Z" fill="black"/>
<path d="M914 65L911 76H917L914 65Z" fill="black"/>
<path d="M938 59L935 70H941L938 59Z" fill="black"/>
<path d="M932 62L929 73H935L932 62Z" fill="black"/>
<path d="M926 64L923 73H929L926 64Z" fill="black"/>
<path d="M949 57L946 68H952L949 57Z" fill="black"/>
<path d="M943 60L940 71H946L943 60Z" fill="black"/>
<path d="M967 54L964 65H970L967 54Z" fill="black"/>
<path d="M961 57L958 68H964L961 57Z" fill="black"/>
<path d="M955 59L952 68H958L955 59Z" fill="black"/>
<path d="M990 57L993 68H987L990 57Z" fill="black"/>
<path d="M996 60L999 71H993L996 60Z" fill="black"/>
<path d="M972 54L975 65H969L972 54Z" fill="black"/>
<path d="M978 57L981 68H975L978 57Z" fill="black"/>
<path d="M984 59L987 68H981L984 59Z" fill="black"/>
<path d="M752 94L749 105H755L752 94Z" fill="black"/>
<path d="M746 97L743 108H749L746 97Z" fill="black"/>
<path d="M770 91L767 102H773L770 91Z" fill="black"/>
<path d="M764 94L761 105H767L764 94Z" fill="black"/>
<path d="M758 96L755 105H761L758 96Z" fill="black"/>
<path d="M784 89L781 100H787L784 89Z" fill="black"/>
<path d="M778 92L775 103H781L778 92Z" fill="black"/>
<path d="M802 86L799 97H805L802 86Z" fill="black"/>
<path d="M796 89L793 100H799L796 89Z" fill="black"/>
<path d="M790 91L787 100H793L790 91Z" fill="black"/>
<path d="M813 84L810 95H816L813 84Z" fill="black"/>
<path d="M807 87L804 98H810L807 87Z" fill="black"/>
<path d="M831 81L828 92H834L831 81Z" fill="black"/>
<path d="M825 84L822 95H828L825 84Z" fill="black"/>
<path d="M819 86L816 95H822L819 86Z" fill="black"/>
<path d="M854 84L857 95H851L854 84Z" fill="black"/>
<path d="M860 87L863 98H857L860 87Z" fill="black"/>
<path d="M836 81L839 92H833L836 81Z" fill="black"/>
<path d="M842 84L845 95H839L842 84Z" fill="black"/>
<path d="M848 86L851 95H845L848 86Z" fill="black"/>
<path d="M683 113L686 124H680L683 113Z" fill="black"/>
<path d="M689 116L692 127H686L689 116Z" fill="black"/>
<path d="M665 110L668 121H662L665 110Z" fill="black"/>
<path d="M671 113L674 124H668L671 113Z" fill="black"/>
<path d="M677 115L680 124H674L677 115Z" fill="black"/>
<path d="M651 108L654 119H648L651 108Z" fill="black"/>
<path d="M657 111L660 122H654L657 111Z" fill="black"/>
<path d="M633 105L636 116H630L633 105Z" fill="black"/>
<path d="M639 108L642 119H636L639 108Z" fill="black"/>
<path d="M645 110L648 119H642L645 110Z" fill="black"/>
<path d="M622 103L625 114H619L622 103Z" fill="black"/>
<path d="M628 106L631 117H625L628 106Z" fill="black"/>
<path d="M604 100L607 111H601L604 100Z" fill="black"/>
<path d="M610 103L613 114H607L610 103Z" fill="black"/>
<path d="M616 105L619 114H613L616 105Z" fill="black"/>
<path d="M581 103L578 114H584L581 103Z" fill="black"/>
<path d="M575 106L572 117H578L575 106Z" fill="black"/>
<path d="M599 100L596 111H602L599 100Z" fill="black"/>
<path d="M593 103L590 114H596L593 103Z" fill="black"/>
<path d="M587 105L584 114H590L587 105Z" fill="black"/>
<path d="M395 120L392 131H398L395 120Z" fill="black"/>
<path d="M389 123L386 134H392L389 123Z" fill="black"/>
<path d="M413 117L410 128H416L413 117Z" fill="black"/>
<path d="M407 120L404 131H410L407 120Z" fill="black"/>
<path d="M401 122L398 131H404L401 122Z" fill="black"/>
<path d="M427 115L424 126H430L427 115Z" fill="black"/>
<path d="M421 118L418 129H424L421 118Z" fill="black"/>
<path d="M445 112L442 123H448L445 112Z" fill="black"/>
<path d="M439 115L436 126H442L439 115Z" fill="black"/>
<path d="M433 117L430 126H436L433 117Z" fill="black"/>
<path d="M456 110L453 121H459L456 110Z" fill="black"/>
<path d="M450 113L447 124H453L450 113Z" fill="black"/>
<path d="M474 107L471 118H477L474 107Z" fill="black"/>
<path d="M468 110L465 121H471L468 110Z" fill="black"/>
<path d="M462 112L459 121H465L462 112Z" fill="black"/>
<path d="M497 110L500 121H494L497 110Z" fill="black"/>
<path d="M503 113L506 124H500L503 113Z" fill="black"/>
<path d="M479 107L482 118H476L479 107Z" fill="black"/>
<path d="M485 110L488 121H482L485 110Z" fill="black"/>
<path d="M491 112L494 121H488L491 112Z" fill="black"/>
<path d="M486 105L483 116H489L486 105Z" fill="black"/>
<path d="M480 108L477 119H483L480 108Z" fill="black"/>
<path d="M504 102L501 113H507L504 102Z" fill="black"/>
<path d="M498 105L495 116H501L498 105Z" fill="black"/>
<path d="M492 107L489 116H495L492 107Z" fill="black"/>
<path d="M518 100L515 111H521L518 100Z" fill="black"/>
<path d="M512 103L509 114H515L512 103Z" fill="black"/>
<path d="M536 97L533 108H539L536 97Z" fill="black"/>
<path d="M530 100L527 111H533L530 100Z" fill="black"/>
<path d="M524 102L521 111H527L524 102Z" fill="black"/>
<path d="M547 95L544 106H550L547 95Z" fill="black"/>
<path d="M541 98L538 109H544L541 98Z" fill="black"/>
<path d="M565 92L562 103H568L565 92Z" fill="black"/>
<path d="M559 95L556 106H562L559 95Z" fill="black"/>
<path d="M553 97L550 106H556L553 97Z" fill="black"/>
<path d="M588 95L591 106H585L588 95Z" fill="black"/>
<path d="M594 98L597 109H591L594 98Z" fill="black"/>
<path d="M570 92L573 103H567L570 92Z" fill="black"/>
<path d="M576 95L579 106H573L576 95Z" fill="black"/>
<path d="M582 97L585 106H579L582 97Z" fill="black"/>
<path d="M184 117L181 128H187L184 117Z" fill="black"/>
<path d="M178 120L175 131H181L178 120Z" fill="black"/>
<path d="M202 114L199 125H205L202 114Z" fill="black"/>
<path d="M196 117L193 128H199L196 117Z" fill="black"/>
<path d="M190 119L187 128H193L190 119Z" fill="black"/>
<path d="M216 112L213 123H219L216 112Z" fill="black"/>
<path d="M210 115L207 126H213L210 115Z" fill="black"/>
<path d="M234 109L231 120H237L234 109Z" fill="black"/>
<path d="M228 112L225 123H231L228 112Z" fill="black"/>
<path d="M222 114L219 123H225L222 114Z" fill="black"/>
<path d="M245 107L242 118H248L245 107Z" fill="black"/>
<path d="M239 110L236 121H242L239 110Z" fill="black"/>
<path d="M263 104L260 115H266L263 104Z" fill="black"/>
<path d="M257 107L254 118H260L257 107Z" fill="black"/>
<path d="M251 109L248 118H254L251 109Z" fill="black"/>
<path d="M286 107L289 118H283L286 107Z" fill="black"/>
<path d="M292 110L295 121H289L292 110Z" fill="black"/>
<path d="M268 104L271 115H265L268 104Z" fill="black"/>
<path d="M274 107L277 118H271L274 107Z" fill="black"/>
<path d="M280 109L283 118H277L280 109Z" fill="black"/>
<path d="M999 43L996 54H1002L999 43Z" fill="black"/>
<path d="M1011 42L1008 51H1014L1011 42Z" fill="black"/>
<path d="M1031 38L1028 49H1034L1031 38Z" fill="black"/>
<path d="M1084 27L1081 38H1087L1084 27Z" fill="black"/>
<path d="M1078 30L1075 41H1081L1078 30Z" fill="black"/>
<path d="M1072 32L1069 41H1075L1072 32Z" fill="black"/>
<path d="M1107 30L1110 41H1104L1107 30Z" fill="black"/>
<path d="M1113 33L1116 44H1110L1113 33Z" fill="black"/>
<path d="M1089 27L1092 38H1086L1089 27Z" fill="black"/>
<path d="M1095 30L1098 41H1092L1095 30Z" fill="black"/>
<path d="M1101 32L1104 41H1098L1101 32Z" fill="black"/>
<path d="M1267 13L1264 24H1270L1267 13Z" fill="black"/>
<path d="M1261 16L1258 27H1264L1261 16Z" fill="black"/>
<path d="M1285 10L1282 21H1288L1285 10Z" fill="black"/>
<path d="M1279 13L1276 24H1282L1279 13Z" fill="black"/>
<path d="M1273 15L1270 24H1276L1273 15Z" fill="black"/>
<path d="M1299 8L1296 19H1302L1299 8Z" fill="black"/>
<path d="M1293 11L1290 22H1296L1293 11Z" fill="black"/>
<path d="M1317 5L1314 16H1320L1317 5Z" fill="black"/>
<path d="M1311 8L1308 19H1314L1311 8Z" fill="black"/>
<path d="M1305 10L1302 19H1308L1305 10Z" fill="black"/>
<path d="M1328 3L1325 14H1331L1328 3Z" fill="black"/>
<path d="M1322 6L1319 17H1325L1322 6Z" fill="black"/>
<path d="M1346 0L1343 11H1349L1346 0Z" fill="black"/>
<path d="M1340 3L1337 14H1343L1340 3Z" fill="black"/>
<path d="M1334 5L1331 14H1337L1334 5Z" fill="black"/>
<path d="M1369 3L1372 14H1366L1369 3Z" fill="black"/>
<path d="M1375 6L1378 17H1372L1375 6Z" fill="black"/>
<path d="M1351 0L1354 11H1348L1351 0Z" fill="black"/>
<path d="M1357 3L1360 14H1354L1357 3Z" fill="black"/>
<path d="M1363 5L1366 14H1360L1363 5Z" fill="black"/>
<path d="M1110 28L1107 39H1113L1110 28Z" fill="black"/>
<path d="M1104 31L1101 42H1107L1104 31Z" fill="black"/>
<path d="M1128 25L1125 36H1131L1128 25Z" fill="black"/>
<path d="M1122 28L1119 39H1125L1122 28Z" fill="black"/>
<path d="M1116 30L1113 39H1119L1116 30Z" fill="black"/>
<path d="M1142 23L1139 34H1145L1142 23Z" fill="black"/>
<path d="M1136 26L1133 37H1139L1136 26Z" fill="black"/>
<path d="M1160 20L1157 31H1163L1160 20Z" fill="black"/>
<path d="M1154 23L1151 34H1157L1154 23Z" fill="black"/>
<path d="M1148 25L1145 34H1151L1148 25Z" fill="black"/>
<path d="M1171 18L1168 29H1174L1171 18Z" fill="black"/>
<path d="M1165 21L1162 32H1168L1165 21Z" fill="black"/>
<path d="M1189 15L1186 26H1192L1189 15Z" fill="black"/>
<path d="M1183 18L1180 29H1186L1183 18Z" fill="black"/>
<path d="M1177 20L1174 29H1180L1177 20Z" fill="black"/>
<path d="M1212 18L1215 29H1209L1212 18Z" fill="black"/>
<path d="M1218 21L1221 32H1215L1218 21Z" fill="black"/>
<path d="M1194 15L1197 26H1191L1194 15Z" fill="black"/>
<path d="M1200 18L1203 29H1197L1200 18Z" fill="black"/>
<path d="M1206 20L1209 29H1203L1206 20Z" fill="black"/>
<path d="M91 135L88 146H94L91 135Z" fill="black"/>
<path d="M85 138L82 149H88L85 138Z" fill="black"/>
<path d="M109 132L106 143H112L109 132Z" fill="black"/>
<path d="M103 135L100 146H106L103 135Z" fill="black"/>
<path d="M97 137L94 146H100L97 137Z" fill="black"/>
<path d="M123 130L120 141H126L123 130Z" fill="black"/>
<path d="M117 133L114 144H120L117 133Z" fill="black"/>
<path d="M141 127L138 138H144L141 127Z" fill="black"/>
<path d="M135 130L132 141H138L135 130Z" fill="black"/>
<path d="M129 132L126 141H132L129 132Z" fill="black"/>
<path d="M152 125L149 136H155L152 125Z" fill="black"/>
<path d="M146 128L143 139H149L146 128Z" fill="black"/>
<path d="M170 122L167 133H173L170 122Z" fill="black"/>
<path d="M164 125L161 136H167L164 125Z" fill="black"/>
<path d="M158 127L155 136H161L158 127Z" fill="black"/>
<path d="M193 125L196 136H190L193 125Z" fill="black"/>
<path d="M199 128L202 139H196L199 128Z" fill="black"/>
<path d="M175 122L178 133H172L175 122Z" fill="black"/>
<path d="M181 125L184 136H178L181 125Z" fill="black"/>
<path d="M187 127L190 136H184L187 127Z" fill="black"/>
</svg>
