<svg width="164" height="180" viewBox="0 0 164 180" fill="none" xmlns="http://www.w3.org/2000/svg">
<path d="M87 129.739C87 109.305 70.4345 92.7393 50 92.7393C29.5655 92.7393 13 109.305 13 129.739C13 150.174 29.5655 166.739 50 166.739V179.739C22.3858 179.739 0 157.353 0 129.739C0 102.125 22.3858 79.7393 50 79.7393C77.6142 79.7393 100 102.125 100 129.739C100 157.353 77.6142 179.739 50 179.739V166.739C70.4345 166.739 87 150.174 87 129.739Z" fill="black"/>
<path d="M63 130.239C63 123.336 57.4036 117.739 50.5 117.739C43.5964 117.739 38 123.336 38 130.239C38 137.143 43.5964 142.739 50.5 142.739V155.739C36.4167 155.739 25 144.323 25 130.239C25 116.156 36.4167 104.739 50.5 104.739C64.5833 104.739 76 116.156 76 130.239C76 144.323 64.5833 155.739 50.5 155.739V142.739C57.4036 142.739 63 137.143 63 130.239Z" fill="black"/>
<path d="M134.812 1.47852L131.488 23.7139L143.5 9.06836L151.232 15.4102L138.955 30.3789L160.23 23.0146L163.502 32.4639L126.836 45.1572L122.235 50.7686L140.438 47.3262L142.295 57.1523L112.356 62.8145L53.2324 134.91L45.5 128.568L104.643 56.4502V24.7393H114.643V44.2568L119.124 38.791L124.921 0L134.812 1.47852Z" fill="black"/>
</svg>
