<svg width="266" height="203" viewBox="0 0 266 203" fill="none" xmlns="http://www.w3.org/2000/svg">
<path d="M205 119.548C204.011 120.548 99.3939 176.564 50.6909 202.821L0 172.063L139.773 100.821L205 119.548Z" fill="url(#paint0_linear_148_29)"/>
<path d="M264.502 4.05664L259.824 5.82129C264.364 4.10879 264.499 4.05987 264.504 4.06055L264.506 4.06543C264.507 4.0687 264.508 4.0725 264.51 4.07617C264.513 4.08349 264.515 4.09169 264.519 4.10059C264.525 4.11836 264.533 4.13907 264.542 4.16309C264.559 4.2114 264.581 4.27282 264.605 4.3457C264.655 4.49139 264.719 4.68568 264.792 4.9248C264.938 5.40251 265.121 6.06323 265.3 6.87695C265.656 8.49698 266.007 10.7673 266 13.4326C265.987 18.8006 264.509 25.8753 258.678 32.2441C255.931 35.244 253.177 37.887 249.993 41.5176C246.982 44.9515 244.304 48.5127 242.604 52.1123C240.922 55.6711 240.329 58.9793 241.033 62.1348C241.733 65.2711 243.881 69.0046 249.137 73.1045L252.973 76.0967L240.795 92.6211L240.731 92.707L240.665 92.79C233.487 101.707 228.43 107.941 222.688 112.982C216.823 118.131 210.407 121.909 200.617 126.371L198.862 127.171L183.691 122.339L184.368 120.605L181.997 121.895L166.354 117.332L166.803 116.469L165.663 117.086L148.908 112.823L150.851 109.759L146.798 111.434L121.67 105.153L133.796 99.0928C133.827 99.0771 133.878 99.051 133.948 99.0146C134.089 98.9418 134.307 98.8277 134.596 98.6729C135.173 98.3631 136.033 97.8904 137.124 97.2578C139.308 95.9917 142.409 94.089 146.024 91.5762C153.26 86.5465 162.439 79.1452 170.432 69.5889L181.578 55.0693L183.934 54.9863C201.934 54.3539 212.869 48.3384 219.927 41.4189C227.135 34.3516 230.669 26.0116 233.283 19.8516C236.557 12.1374 243.269 7.44149 248.537 4.75781C251.237 3.3822 253.742 2.44121 255.573 1.8418C256.493 1.54088 257.253 1.32208 257.798 1.17578C258.07 1.10261 258.29 1.04761 258.449 1.00879C258.529 0.989369 258.594 0.974219 258.643 0.962891C258.667 0.957259 258.687 0.951935 258.703 0.948242C258.711 0.946397 258.719 0.944726 258.725 0.943359C258.728 0.942674 258.731 0.941972 258.733 0.941406H258.736C258.736 0.941406 258.74 0.940305 259.705 5.28516L258.74 0.94043L262.972 0L264.502 4.05664ZM176.059 78.3789C169.298 86.0236 162.003 92.2358 155.67 96.9502L176.182 88.4814L165.039 106.055L190.721 92.1797L180.854 111.135L203.646 98.75L196.887 116.046L198.209 116.467C206.494 112.591 211.557 109.448 216.091 105.468C219.866 102.154 223.368 98.1832 228.051 92.4717L176.059 78.3789ZM182.834 69.8545L234.774 83.9336L237.722 79.9355L186.025 65.6973L182.834 69.8545ZM255.972 12.3447C255.064 12.7161 254.084 13.1544 253.076 13.668C248.676 15.9094 244.42 19.206 242.488 23.7578C239.897 29.8642 235.718 39.9411 226.928 48.5596C221.796 53.5908 215.211 58.0181 206.685 61.0146L232.484 68.1211C231.963 66.8706 231.56 65.6002 231.272 64.3115C229.941 58.3426 231.258 52.7184 233.562 47.8418C235.846 43.006 239.227 38.6278 242.476 34.9238C245.551 31.4167 249.259 27.7232 251.303 25.4912C255.052 21.3962 255.991 16.9472 256 13.4082C256.001 13.0423 255.989 12.6872 255.972 12.3447ZM260.91 10.7012L260.911 10.7021L260.914 10.7012L260.918 10.7002L260.921 10.6992C260.921 10.6992 260.917 10.6996 260.91 10.7012Z" fill="black"/>
<defs>
<linearGradient id="paint0_linear_148_29" x1="161.018" y1="112.734" x2="132.011" y2="205.076" gradientUnits="userSpaceOnUse">
<stop offset="0.246757"/>
<stop offset="1" stop-opacity="0"/>
</linearGradient>
</defs>
</svg>
