<svg width="1440" height="414" viewBox="0 0 1440 414" fill="none" xmlns="http://www.w3.org/2000/svg">
<path d="M891.169 308.952C880.099 308.389 879.795 308.352 879.795 307.376C879.795 306.963 882.529 298.414 885.824 288.335C889.156 278.293 893.41 265.061 895.337 258.99C897.236 252.918 899.543 245.57 900.455 242.689C901.328 239.798 902.202 236.354 902.353 235.003C902.467 233.539 902.923 231.925 903.417 231.071C904.176 229.72 904.556 229.457 907.281 228.593C910.766 227.505 915.057 225.666 915.057 225.3C915.057 225.149 914.563 224.549 913.956 223.986L912.892 222.972L904.395 223.573C895.821 224.173 875.731 225.45 843.384 227.505C792.532 230.724 747.557 233.577 737.778 234.252C726.669 235.003 680.973 237.884 663.455 238.935C647.343 239.911 648.701 239.686 647.116 241.488C645.217 243.665 644.799 244.631 645.483 245.307C645.786 245.607 647.381 246.433 649.043 247.146L652.081 248.46L653.107 264.686C653.676 273.611 654.436 285.454 654.815 290.962C655.195 296.471 655.423 301.191 655.271 301.379C655.119 301.642 648.293 301.98 637.26 302.28C627.481 302.58 613.752 302.993 606.774 303.218C578.528 304.044 573.287 304.082 563.356 303.406C558.163 303.068 553.767 302.693 553.615 302.618C553.045 302.242 553.349 301.266 556.871 292.088C558.846 286.993 562.862 276.351 565.825 268.44C568.825 260.529 571.512 253.744 571.853 253.331C572.195 252.918 573.297 252.392 574.322 252.13L576.221 251.679L576.677 249.164C576.942 247.775 577.246 246.461 577.36 246.311C577.474 246.124 578.5 245.786 579.677 245.523C580.816 245.26 581.766 244.96 581.766 244.81C581.728 243.984 580.892 243.496 579.259 243.346C576.335 243.083 576.411 243.233 577.474 239.789C578.576 236.157 580.845 229.598 582.326 225.731C583.541 222.512 584.149 222.287 585.924 224.492C586.95 225.806 587.329 225.994 588.621 225.994C589.494 225.994 590.178 225.806 590.292 225.544C590.481 224.943 603.793 189.714 611.531 169.209C614.787 160.547 618.395 150.994 619.496 147.991C621.889 141.544 622.459 140.342 623.588 139.629C624.044 139.329 631.174 137.902 639.397 136.41C662.335 132.328 670.946 130.789 697.227 126.106C710.576 123.704 724.343 121.273 727.789 120.635C731.274 120.034 735.186 119.359 736.515 119.171C737.844 119.021 739.695 118.683 740.645 118.458C743.417 117.857 755.969 115.605 767.001 113.737C772.65 112.799 777.996 111.861 778.945 111.673C780.844 111.26 815.992 105.076 836.396 101.557C843.716 100.28 849.935 99.1916 850.239 99.079C850.543 99.004 851.188 98.2532 851.682 97.4274C852.479 96.0385 852.669 95.9259 854.188 95.9259C855.062 95.9259 857.559 96.1886 859.762 96.4889C861.926 96.7892 867.044 97.4274 871.098 97.9529C875.152 98.4784 884.295 99.6796 891.387 100.618C898.48 101.557 906.256 102.608 908.639 102.908C912.123 103.358 913.187 103.659 913.946 104.334C914.478 104.785 915.351 105.348 915.883 105.573C917.516 106.249 917.44 106.174 932.033 130.798C933.932 133.98 938.024 140.915 941.138 146.17C949.863 160.904 966.659 189.573 968.102 192.238L969.393 194.603L972.688 194.378C974.473 194.228 976.742 194.04 977.729 193.927L979.514 193.702L981.337 196.292C983.73 199.624 985.353 201.275 986.341 201.275C986.835 201.275 987.594 201.914 988.354 202.927C989.037 203.866 989.873 204.729 990.177 204.841C990.48 204.954 992.417 205.179 994.421 205.292L998.133 205.517V206.718C998.133 207.544 997.791 208.22 996.994 208.971L995.892 210.022L996.804 211.11C997.639 212.086 997.753 212.574 997.753 215.23V218.233L993.585 222.428C991.306 224.755 989.417 226.886 989.417 227.223C989.417 227.674 995.712 231.343 997.877 232.131C998.218 232.282 998.522 232.619 998.522 232.92C998.522 234.722 1002.42 288.917 1003.3 299.408C1003.64 303.378 1003.79 306.756 1003.64 306.906C1003.53 307.057 995.446 307.357 985.705 307.62C975.964 307.882 955.978 308.408 941.261 308.858C911.307 309.722 905.088 309.722 891.207 308.971L891.169 308.952ZM629.143 246.133C629.143 245.72 627.51 245.57 621.481 245.345C617.237 245.232 610.6 245.007 606.688 244.857C600.204 244.631 599.558 244.669 599.558 245.232C599.558 245.758 600.052 245.87 602.701 245.908C604.41 245.945 609.072 246.095 613.012 246.208C626.133 246.696 629.124 246.658 629.124 246.133H629.143ZM967.96 228.518C969.175 227.617 968.264 227.242 964.285 226.979C948.81 226.041 940.777 225.628 940.473 225.816C939.79 226.229 940.056 227.129 940.967 227.505C941.917 227.88 956.775 228.894 963.07 228.969C966.032 229.006 967.428 228.856 967.96 228.518ZM611.246 223.498C615.642 223.16 619.287 222.747 619.287 222.634C619.287 222.034 610.22 201.829 609.926 201.754C609.394 201.566 601.466 222.259 601.466 223.751C601.466 224.239 601.96 224.239 611.246 223.488V223.498ZM641.125 220.645C641.39 220.382 643.251 216.112 645.255 211.092L648.929 202.017L646.46 196.283C642.444 187.067 631.554 161.805 631.288 161.091C631.136 160.716 630.871 160.416 630.643 160.416C630.187 160.416 630.111 197.071 630.529 212.293L630.757 221.583L635.722 221.321C638.685 221.17 640.878 220.908 641.106 220.645H641.125ZM656.031 219.406C656.335 219.143 654.74 215.512 654.284 215.512C653.828 215.512 652.271 218.552 652.271 219.444C652.271 219.781 652.765 219.857 654.094 219.706C655.081 219.631 655.955 219.481 656.031 219.406ZM674.383 217.867C674.839 217.604 674.725 167.079 674.232 167.229C674.004 167.304 672.485 170.635 670.823 174.652L667.861 181.962L667.823 200.29V218.58L670.966 218.318C672.675 218.167 674.184 217.98 674.374 217.867H674.383ZM690.002 216.778C694.17 216.478 697.626 216.14 697.702 216.103C697.74 216.028 696.562 213.287 695.005 210.031C691.863 203.359 687.305 193.58 683.631 185.707C682.302 182.816 680.973 180.423 680.669 180.348C680.137 180.236 680.023 188.935 680.251 210.744L680.327 217.379H681.39C681.96 217.379 685.824 217.116 690.002 216.778ZM623.759 190.802C623.835 171.874 623.721 165.239 623.418 165.352C622.886 165.54 612.841 193.308 612.841 194.547C612.841 195.147 615.006 200.055 619.098 208.755C620.503 211.758 621.908 214.751 622.212 215.427C623.579 218.571 623.655 217.229 623.769 190.802H623.759ZM732.252 213.25C737.521 212.837 741.955 212.424 742.069 212.311C742.297 212.086 728.91 184.468 728.378 184.13C727.884 183.83 727.619 184.355 724.476 191.328C722.995 194.622 721.143 198.638 720.384 200.29L719.017 203.218V214.348L720.84 214.16C721.827 214.085 726.944 213.672 732.252 213.259V213.25ZM660.664 205.639C660.132 204.325 659.297 204.363 658.727 205.752C658.309 206.728 658.423 207.141 659.525 209.571L660.816 212.311L660.93 209.459C660.968 207.882 660.854 206.165 660.664 205.639ZM765.549 205.864C766.612 203.424 769.299 197.54 771.502 192.783C775.632 183.858 776.733 180.414 775.328 180.677C774.834 180.789 774.075 182.065 772.973 184.571C770.543 189.967 768.274 194.95 764.856 202.111C761.637 208.858 761.295 210.247 762.729 210.247C763.488 210.247 763.868 209.646 765.539 205.864H765.549ZM783.673 209.083C789.512 208.67 794.364 208.257 794.44 208.182C794.554 208.032 793.339 205.893 785.677 192.332C782.677 187.086 782.601 186.974 781.433 187.086C780.521 187.161 780.104 187.499 779.572 188.513C778.129 191.328 769.831 209.543 769.831 209.918C769.831 210.144 770.476 210.219 771.464 210.106C772.337 209.994 777.834 209.543 783.673 209.093V209.083ZM701.272 204.738C700.664 203.537 696.838 195.485 692.736 186.823C681.856 163.663 681.02 161.898 680.64 161.898C680.071 161.898 680.602 163.212 684.504 171.452C686.555 175.797 690.875 184.984 694.094 191.882C702.136 209.121 702.098 209.046 702.25 207.882C702.325 207.357 701.87 205.93 701.262 204.738H701.272ZM755.798 174.83C755.798 153.912 755.684 142.745 755.418 142.595C755.152 142.444 755.038 153.274 755.038 174.83C755.038 196.377 755.152 207.216 755.418 207.066C755.684 206.915 755.798 195.748 755.798 174.83ZM835.238 205.001C843.393 204.363 850.6 203.762 851.274 203.65L852.489 203.424V170.363C852.489 150.346 852.337 137.114 852.109 136.776C851.881 136.401 851.615 136.363 851.388 136.589C851.008 136.964 846.84 145.551 833.832 172.568C829.854 180.817 824.727 191.459 822.458 196.18C816.961 207.535 817.303 206.521 819.05 206.296C819.809 206.183 827.129 205.583 835.238 204.982V205.001ZM712 201.782L712.988 199.567L712.95 177.645C712.912 158.604 712.836 155.686 712.342 155.123C712.038 154.785 711.469 153.696 711.089 152.683C710.709 151.669 710.177 150.806 709.949 150.731C709.646 150.618 709.532 157.854 709.532 177.383C709.532 192.154 709.646 204.485 709.76 204.823C709.987 205.348 710.063 205.348 710.519 204.71C710.785 204.335 711.469 203.021 712 201.782ZM797.887 176.294C797.887 158.154 797.773 150.243 797.469 150.356C797.279 150.431 794.772 155.376 792.01 161.335L786.892 172.202V182.244L790.642 189.216C792.693 193.036 795.076 197.578 795.95 199.295C796.823 200.984 797.583 202.373 797.697 202.373C797.811 202.373 797.887 190.643 797.887 176.285V176.294ZM891.473 200.506C898.603 199.943 904.556 199.38 904.67 199.305C904.746 199.192 904.442 198.366 903.911 197.465C888.928 170.213 888.216 168.946 887.457 169.096C887.039 169.171 884.048 174.642 878.959 184.571C874.677 193.045 870.955 200.421 870.728 201.022L870.31 202.073L874.402 201.81C876.643 201.66 884.295 201.097 891.463 200.497L891.473 200.506ZM871.487 180.114C880.516 162.386 880.706 161.936 880.849 159.421L880.963 156.831L874.858 145.964C871.487 140.004 867.234 132.431 865.42 129.212C860.455 120.213 860.645 119.809 860.948 139.104C861.1 147.803 861.214 164.93 861.214 177.223C861.252 196.264 861.328 199.445 861.746 198.882C862.05 198.507 866.408 190.033 871.487 180.104V180.114ZM747.832 169.922C747.832 142.895 747.794 141.253 747.187 141.365C746.731 141.44 745.516 143.693 743.436 148.225C741.765 151.932 738.964 158.079 737.217 161.908C735.47 165.727 734.075 169.256 734.075 169.781C734.075 170.307 736.429 175.553 739.23 181.474C742.079 187.396 745.069 193.655 745.905 195.42C746.74 197.184 747.538 198.638 747.652 198.638C747.766 198.638 747.842 185.707 747.842 169.931L747.832 169.922ZM928.862 181.352C933.41 172.465 937.056 164.939 937.056 164.376C937.056 163.062 936.144 161.373 929.545 150.13C926.507 144.959 922.529 138.099 920.668 134.909C917.374 129.287 916.69 128.236 916.5 128.574C916.424 128.649 916.462 143.233 916.576 160.96L916.766 193.195L918.247 195.748C919.462 197.85 919.804 198.225 920.184 197.813C920.45 197.55 924.352 190.127 928.871 181.362L928.862 181.352ZM930.989 197.127C931.254 196.527 931.634 195.851 931.9 195.664C932.128 195.476 934.976 195.176 938.233 195.025C943.92 194.8 944.186 194.8 944.945 195.551C945.743 196.339 945.819 196.339 950.936 195.776C953.823 195.476 956.206 195.213 956.244 195.138C956.396 194.988 942.401 171.264 942.135 171.264C941.907 171.264 927.95 197.691 927.95 198.141C927.95 198.216 928.52 198.254 929.242 198.254C930.305 198.254 930.609 198.066 930.989 197.127ZM809.081 195.926C809.422 195.025 811.549 190.343 813.818 185.51C823.825 164.029 829.37 152.148 835.399 139.263C838.959 131.652 841.808 125.318 841.694 125.243C841.542 125.093 811.093 129.513 809.802 129.851C809.574 129.926 809.005 130.977 808.549 132.178L807.713 134.43L807.789 165.952C807.827 183.304 808.017 197.512 808.169 197.512C808.321 197.512 808.701 196.799 809.081 195.936V195.926ZM655.812 186.636C657.369 182.816 659.259 178.237 660.018 176.444L661.386 173.188V162.095C661.386 153.584 661.272 150.966 660.93 150.853C660.664 150.778 655.357 150.252 649.176 149.764C638.751 148.901 637.802 148.863 636.206 149.389C635.257 149.727 634.384 150.102 634.27 150.29C634.08 150.628 635.979 155.273 641.856 168.655C644.058 173.713 647.429 181.437 649.328 185.819C651.227 190.202 652.812 193.73 652.888 193.655C652.964 193.618 654.255 190.436 655.812 186.645V186.636ZM702.563 146.977C702.373 146.789 683.754 149.492 683.299 149.792C682.615 150.168 683.109 152.42 684.666 155.789C686.679 160.284 698.813 185.998 700.968 190.38L702.525 193.561L702.639 170.363C702.677 157.582 702.639 147.09 702.563 146.977ZM768.767 176.96L772.935 167.482L768.881 159.533C763.916 149.83 762.283 146.902 761.827 146.902C761.637 146.902 761.485 156.23 761.523 169.875L761.561 192.811L763.08 189.629C763.916 187.865 766.451 182.169 768.767 176.96ZM720.764 182.694C722.131 179.513 722.245 179.062 722.359 174.821L722.473 170.326L720.953 167.247C720.118 165.521 719.245 164.141 719.017 164.141C718.751 164.141 718.637 167.886 718.637 175.459C718.637 181.793 718.789 186.626 718.979 186.439C719.131 186.213 719.966 184.562 720.764 182.694ZM909.379 152.711C909.379 134.646 909.265 125.158 909 125.158C908.81 125.158 905.363 131.568 901.414 139.404L894.169 153.687L898.869 162.011C907.86 177.936 909.18 180.264 909.294 180.264C909.332 180.264 909.37 167.857 909.37 152.711H909.379ZM782.116 168.937C782.42 168.449 783.939 165.305 785.487 161.889C787.044 158.482 790.414 151.172 792.959 145.588C795.503 140.042 797.621 135.059 797.659 134.533C797.697 133.933 797.469 133.557 797.051 133.482C796.595 133.407 796.064 134.045 795.114 135.922C793.747 138.587 788.554 149.755 787.49 152.336C787.148 153.161 785.288 157.169 783.398 161.223C780.512 167.407 780.028 168.721 780.436 169.209C781.082 169.997 781.461 169.922 782.107 168.946L782.116 168.937ZM731.606 157.131C732.594 154.879 734.53 150.496 735.926 147.353C737.293 144.209 738.357 141.544 738.243 141.431C738.053 141.243 728.426 142.482 724.818 143.195C722.653 143.608 722.083 144.396 722.577 146.339C722.881 147.54 729.366 161.148 729.631 161.148C729.745 161.148 730.619 159.346 731.606 157.14V157.131ZM782.078 146.827C785.335 139.554 787.918 133.557 787.804 133.445C787.614 133.257 769.983 135.772 766.716 136.485C764.97 136.823 764.894 136.898 764.894 138.175C764.894 139.113 766.337 142.257 770.315 149.755C773.277 155.414 775.812 160.021 775.926 160.021C776.04 160.021 778.812 154.1 782.069 146.827H782.078ZM668.203 157.131C668.203 156.493 668.051 155.817 667.823 155.705C667.595 155.555 667.443 156.23 667.443 157.469C667.443 158.895 667.557 159.308 667.823 158.895C668.013 158.595 668.203 157.807 668.203 157.131ZM896.628 133.37C900.113 126.322 903.075 120.025 903.189 119.387C903.265 118.749 903.189 117.773 902.961 117.21C902.657 116.384 902.316 116.159 901.442 116.159C900.341 116.159 875.161 119.866 874.972 120.053C874.896 120.091 877.782 125.186 881.342 131.371C884.903 137.518 888.245 143.364 888.738 144.378C889.232 145.354 889.802 146.142 889.954 146.142C890.106 146.142 893.096 140.37 896.628 133.36V133.37ZM661.376 143.261C661.376 141.159 661.148 141.121 656.221 141.985C653.752 142.398 651.597 142.923 651.407 143.111C650.989 143.524 654.891 144.012 659.791 144.199C661.31 144.274 661.386 144.199 661.386 143.261H661.376ZM690.306 140.896C695.157 140.07 699.857 139.244 700.806 139.094L702.515 138.831L702.629 136.804C702.705 135.678 702.629 134.665 702.439 134.515C702.022 134.139 677.032 138.372 676.501 138.897C676.197 139.197 676.805 139.723 678.703 140.849C680.109 141.675 681.362 142.388 681.4 142.388C681.476 142.388 685.492 141.712 690.315 140.887L690.306 140.896ZM731.141 134.149C737.284 133.135 742.363 132.272 742.363 132.272C742.553 132.272 744.034 128.452 744.034 128.002C744.034 127.176 743.769 127.214 734.711 128.715C722.881 130.705 722.805 130.705 722.425 131.643C722.273 132.093 721.4 133.144 720.564 133.97C718.969 135.472 718.665 136.035 719.501 136.035C719.729 136.035 724.998 135.209 731.141 134.158V134.149ZM777.217 126.5C784.12 125.337 790.187 124.286 790.756 124.173C791.478 124.023 792.01 123.497 792.541 122.371C793.605 120.232 793.605 119.152 792.503 119.152C792.01 119.152 786.246 120.053 779.648 121.179L767.704 123.206L765.159 125.571C762.387 128.161 761.941 129.09 763.678 128.79C764.248 128.715 770.353 127.664 777.217 126.5ZM827.728 118.627C835.845 117.275 843.346 116.074 844.485 115.887L846.536 115.586L847.409 113.334C848.473 110.594 848.511 110.153 847.675 110.153C847.295 110.153 840.545 111.166 832.617 112.442C823.218 113.981 818.129 114.957 817.825 115.333C816.989 116.346 816.23 116.947 814.416 118.148C813.391 118.824 812.29 119.762 811.986 120.213C811.492 120.964 811.492 121.039 812.252 121.039C812.669 121.039 819.648 119.95 827.728 118.636V118.627Z" fill="#FF6200"/>
<path d="M1378.38 319.54C1361.78 318.695 1361.32 318.639 1361.32 317.175C1361.32 316.555 1365.42 303.732 1370.36 288.613C1375.36 273.551 1381.74 253.703 1384.63 244.596C1387.48 235.488 1390.94 224.466 1392.31 220.145C1393.62 215.809 1394.93 210.643 1395.16 208.616C1395.33 206.42 1396.01 203.999 1396.75 202.718C1397.89 200.691 1398.46 200.296 1402.55 199.001C1407.78 197.368 1414.21 194.609 1414.21 194.061C1414.21 193.835 1413.47 192.934 1412.56 192.09L1410.97 190.57L1398.22 191.47C1385.36 192.371 1355.23 194.286 1306.7 197.369C1230.43 202.197 1162.96 206.476 1148.3 207.49C1131.63 208.616 1063.09 212.937 1036.81 214.514C1012.64 215.978 1014.68 215.64 1012.3 218.343C1009.45 221.608 1008.83 223.058 1009.85 224.072C1010.31 224.522 1012.7 225.761 1015.19 226.831L1019.75 228.802L1021.29 253.14C1022.14 266.527 1023.28 284.292 1023.85 292.555C1024.42 300.818 1024.76 307.898 1024.54 308.18C1024.31 308.574 1014.07 309.081 997.52 309.531C982.851 309.982 962.258 310.601 951.79 310.939C909.421 312.178 901.56 312.234 886.663 311.22C878.873 310.714 872.279 310.151 872.051 310.038C871.197 309.475 871.653 308.011 876.936 294.244C879.898 286.6 885.923 270.637 890.366 258.771C894.866 246.904 898.897 236.727 899.409 236.107C899.922 235.488 901.574 234.7 903.112 234.306L905.961 233.63L906.644 229.857C907.043 227.774 907.499 225.803 907.67 225.578C907.84 225.297 909.379 224.79 911.144 224.396C912.853 224.002 914.278 223.551 914.278 223.326C914.221 222.087 912.967 221.355 910.518 221.13C906.131 220.736 906.245 220.961 907.84 215.795C909.492 210.347 912.896 200.508 915.118 194.708C916.941 189.88 917.852 189.542 920.515 192.85C922.054 194.821 922.623 195.102 924.56 195.102C925.87 195.102 926.896 194.821 927.067 194.426C927.351 193.526 947.318 140.682 958.925 109.924C963.81 96.9317 969.222 82.6017 970.874 78.0972C974.463 68.4265 975.317 66.6247 977.012 65.5549C977.695 65.1044 988.391 62.9648 1000.72 60.7266C1035.13 54.6033 1048.05 52.2947 1087.47 45.2705C1107.49 41.6668 1128.14 38.021 1133.31 37.0638C1138.54 36.1629 1144.41 35.1494 1146.4 34.8678C1148.4 34.6426 1151.17 34.1358 1152.6 33.798C1156.76 32.8971 1175.58 29.5187 1192.13 26.7175C1200.6 25.3098 1208.62 23.9021 1210.05 23.6206C1212.9 23.0012 1265.62 13.7247 1296.22 8.44598C1307.2 6.53156 1316.53 4.89867 1316.99 4.72975C1317.44 4.61713 1318.41 3.491 1319.15 2.25226C1320.35 0.168917 1320.63 0 1322.91 0C1324.22 0 1327.97 0.394144 1331.27 0.844596C1334.52 1.29505 1342.19 2.25226 1348.28 3.04055C1354.36 3.82884 1368.07 5.63065 1378.71 7.03832C1389.35 8.44598 1401.01 10.0226 1404.59 10.473C1409.81 11.1487 1411.41 11.5991 1412.55 12.6127C1413.35 13.2883 1414.66 14.1329 1415.45 14.4708C1417.9 15.4843 1417.79 15.3717 1439.68 52.3088C1442.53 57.0808 1448.66 67.4834 1453.34 75.3663C1466.42 97.4666 1491.62 140.471 1493.78 144.469L1495.72 148.016L1500.66 147.678C1503.34 147.453 1506.74 147.171 1508.22 147.002L1510.9 146.664L1513.64 150.55C1517.22 155.547 1519.66 158.024 1521.14 158.024C1521.88 158.024 1523.02 158.982 1524.16 160.502C1525.19 161.909 1526.44 163.205 1526.89 163.373C1527.35 163.542 1530.26 163.88 1533.26 164.049L1538.83 164.387V166.189C1538.83 167.428 1538.32 168.441 1537.12 169.567L1535.47 171.144L1536.83 172.777C1538.09 174.241 1538.26 174.973 1538.26 178.956V183.461L1532.01 189.753C1528.59 193.244 1525.75 196.439 1525.75 196.946C1525.75 197.622 1535.2 203.126 1538.44 204.308C1538.96 204.534 1539.41 205.04 1539.41 205.491C1539.41 208.193 1545.27 289.486 1546.58 305.224C1547.09 311.178 1547.32 316.246 1547.09 316.471C1546.92 316.696 1534.8 317.147 1520.19 317.541C1505.57 317.935 1475.6 318.723 1453.52 319.399C1408.59 320.694 1399.26 320.694 1378.44 319.568L1378.38 319.54ZM985.343 225.311C985.343 224.691 982.894 224.466 973.85 224.128C967.484 223.959 957.529 223.621 951.662 223.396C941.935 223.058 940.966 223.115 940.966 223.959C940.966 224.748 941.707 224.917 945.68 224.973C948.244 225.029 955.236 225.254 961.147 225.423C980.829 226.155 985.315 226.099 985.315 225.311H985.343ZM1493.57 198.889C1495.39 197.537 1494.02 196.974 1488.06 196.58C1464.84 195.173 1452.8 194.553 1452.34 194.835C1451.31 195.454 1451.71 196.805 1453.08 197.369C1454.5 197.932 1476.79 199.452 1486.23 199.564C1490.68 199.621 1492.77 199.396 1493.57 198.889ZM958.498 191.358C965.092 190.851 970.56 190.232 970.56 190.063C970.56 189.162 956.96 158.855 956.518 158.742C955.721 158.461 943.829 189.5 943.829 191.738C943.829 192.47 944.569 192.47 958.498 191.344V191.358ZM1003.32 187.078C1003.71 186.684 1006.51 180.279 1009.51 172.748L1015.02 159.136L1011.32 150.536C1005.3 136.712 988.961 98.818 988.562 97.7482C988.334 97.1851 987.935 96.7346 987.593 96.7346C986.91 96.7346 986.796 151.718 987.422 174.55L987.764 188.486L995.213 188.092C999.656 187.867 1002.95 187.473 1003.29 187.078H1003.32ZM1025.68 185.22C1026.13 184.826 1023.74 179.379 1023.05 179.379C1022.37 179.379 1020.04 183.939 1020.04 185.277C1020.04 185.783 1020.78 185.896 1022.77 185.671C1024.25 185.558 1025.56 185.333 1025.68 185.22ZM1053.2 182.912C1053.89 182.518 1053.72 106.729 1052.98 106.954C1052.63 107.067 1050.36 112.064 1047.86 118.089L1043.42 129.055L1043.36 156.546V183.982L1048.08 183.587C1050.64 183.362 1052.91 183.081 1053.19 182.912H1053.2ZM1076.63 181.279C1082.88 180.828 1088.07 180.322 1088.18 180.265C1088.24 180.153 1086.47 176.042 1084.14 171.158C1079.42 161.149 1072.59 146.481 1067.08 134.671C1065.08 130.336 1063.09 126.746 1062.63 126.633C1061.83 126.464 1061.66 139.514 1062.01 172.228L1062.12 182.18H1063.71C1064.57 182.18 1070.37 181.786 1076.63 181.279ZM977.268 142.315C977.382 113.922 977.211 103.97 976.756 104.139C975.958 104.42 960.89 146.073 960.89 147.931C960.89 148.832 964.138 156.194 970.276 169.243C972.383 173.748 974.491 178.238 974.947 179.252C976.998 183.968 977.112 181.955 977.282 142.315H977.268ZM1140.01 175.986C1147.91 175.367 1154.56 174.747 1154.73 174.578C1155.07 174.241 1134.99 132.813 1134.2 132.306C1133.46 131.856 1133.06 132.644 1128.34 143.103C1126.12 148.044 1123.34 154.069 1122.2 156.546L1120.15 160.938V177.633L1122.89 177.352C1124.37 177.239 1132.05 176.62 1140.01 176V175.986ZM1032.63 164.57C1031.83 162.599 1030.57 162.656 1029.72 164.739C1029.09 166.203 1029.26 166.822 1030.92 170.468L1032.85 174.578L1033.02 170.299C1033.08 167.934 1032.91 165.358 1032.63 164.57ZM1189.95 164.908C1191.55 161.248 1195.58 152.422 1198.88 145.285C1205.08 131.898 1206.73 126.732 1204.62 127.126C1203.88 127.295 1202.74 129.209 1201.09 132.968C1197.44 141.062 1194.04 148.537 1188.91 159.277C1184.08 169.398 1183.57 171.482 1185.72 171.482C1186.86 171.482 1187.43 170.581 1189.94 164.908H1189.95ZM1217.14 169.736C1225.9 169.117 1233.18 168.497 1233.29 168.385C1233.46 168.159 1231.64 164.95 1220.14 144.609C1215.64 136.74 1215.53 136.572 1213.78 136.74C1212.41 136.853 1211.78 137.36 1210.99 138.88C1208.82 143.103 1196.38 170.426 1196.38 170.989C1196.38 171.327 1197.34 171.439 1198.82 171.27C1200.13 171.101 1208.38 170.426 1217.14 169.75V169.736ZM1093.54 163.219C1092.63 161.417 1086.89 149.339 1080.73 136.346C1064.41 101.605 1063.16 98.9588 1062.59 98.9588C1061.74 98.9588 1062.53 100.929 1068.39 113.289C1071.46 119.806 1077.94 133.587 1082.77 143.934C1094.83 169.792 1094.78 169.68 1095 167.934C1095.12 167.146 1094.43 165.006 1093.52 163.219H1093.54ZM1175.33 118.356C1175.33 86.9795 1175.16 70.2283 1174.76 70.0031C1174.36 69.7779 1174.19 86.0223 1174.19 118.356C1174.19 150.676 1174.36 166.935 1174.76 166.71C1175.16 166.484 1175.33 149.733 1175.33 118.356ZM1294.49 163.613C1306.72 162.656 1317.53 161.755 1318.54 161.586L1320.36 161.248V111.656C1320.36 81.6304 1320.13 61.7824 1319.79 61.2756C1319.45 60.7125 1319.05 60.6562 1318.71 60.9941C1318.14 61.5571 1311.89 74.4372 1292.38 114.964C1286.41 127.337 1278.72 143.3 1275.32 150.381C1267.07 167.413 1267.58 165.893 1270.2 165.555C1271.34 165.386 1282.32 164.485 1294.49 163.585V163.613ZM1109.63 158.784L1111.11 155.462L1111.05 122.579C1111 94.0179 1110.88 89.64 1110.14 88.7954C1109.69 88.2887 1108.83 86.6558 1108.26 85.1355C1107.69 83.6152 1106.9 82.3202 1106.55 82.2076C1106.1 82.0386 1105.93 92.8917 1105.93 122.185C1105.93 144.342 1106.1 162.839 1106.27 163.345C1106.61 164.134 1106.72 164.134 1107.41 163.176C1107.81 162.613 1108.83 160.643 1109.63 158.784ZM1238.46 120.552C1238.46 93.3422 1238.29 81.4756 1237.83 81.6445C1237.55 81.7571 1233.79 89.1755 1229.64 98.1142L1221.97 114.415V129.477L1227.59 139.936C1230.67 145.665 1234.24 152.478 1235.55 155.054C1236.86 157.588 1238 159.671 1238.17 159.671C1238.35 159.671 1238.46 142.075 1238.46 120.538V120.552ZM1378.84 156.87C1389.53 156.025 1398.46 155.181 1398.63 155.068C1398.75 154.899 1398.29 153.661 1397.49 152.309C1375.02 111.431 1373.95 109.53 1372.81 109.756C1372.19 109.868 1367.7 118.075 1360.07 132.968C1353.65 145.679 1348.06 156.743 1347.72 157.644L1347.09 159.221L1353.23 158.827C1356.59 158.601 1368.07 157.757 1378.82 156.856L1378.84 156.87ZM1348.86 126.282C1362.4 99.6907 1362.69 99.0151 1362.9 95.2425L1363.07 91.3574L1353.92 75.0566C1348.86 66.118 1342.48 54.7581 1339.76 49.9298C1332.31 36.4303 1332.6 35.825 1333.05 64.7666C1333.28 77.8156 1333.45 103.506 1333.45 121.946C1333.51 150.507 1333.62 155.279 1334.25 154.435C1334.7 153.872 1341.24 141.161 1348.86 126.267V126.282ZM1163.38 110.994C1163.38 70.4536 1163.32 67.9902 1162.41 68.1591C1161.73 68.2717 1159.9 71.6501 1156.78 78.4491C1154.28 84.0094 1150.08 93.2296 1147.46 98.9728C1144.83 104.702 1142.74 109.995 1142.74 110.783C1142.74 111.571 1146.27 119.44 1150.47 128.323C1154.75 137.205 1159.23 146.594 1160.49 149.24C1161.74 151.887 1162.94 154.069 1163.11 154.069C1163.28 154.069 1163.39 134.671 1163.39 111.008L1163.38 110.994ZM1434.92 128.14C1441.74 114.809 1447.21 103.52 1447.21 102.675C1447.21 100.704 1445.85 98.1705 1435.95 81.3067C1431.39 73.5504 1425.42 63.2604 1422.63 58.4743C1417.69 50.0424 1416.66 48.4659 1416.38 48.9726C1416.27 49.0852 1416.32 70.9603 1416.49 97.5511L1416.78 145.904L1419 149.733C1420.82 152.886 1421.34 153.449 1421.91 152.83C1422.3 152.436 1428.16 141.301 1434.94 128.154L1434.92 128.14ZM1438.11 151.802C1438.51 150.902 1439.08 149.888 1439.48 149.606C1439.82 149.325 1444.09 148.875 1448.98 148.649C1457.51 148.311 1457.91 148.311 1459.05 149.438C1460.24 150.62 1460.36 150.62 1468.03 149.775C1472.36 149.325 1475.94 148.931 1475.99 148.818C1476.22 148.593 1455.23 113.007 1454.83 113.007C1454.49 113.007 1433.55 152.647 1433.55 153.323C1433.55 153.435 1434.41 153.492 1435.49 153.492C1437.09 153.492 1437.54 153.21 1438.11 151.802ZM1255.25 150.001C1255.76 148.649 1258.95 141.625 1262.36 134.376C1277.37 102.154 1285.68 84.3331 1294.73 65.0059C1300.07 53.5898 1304.34 44.088 1304.17 43.9754C1303.94 43.7502 1258.27 50.3803 1256.33 50.887C1255.99 50.9997 1255.14 52.5762 1254.45 54.3781L1253.2 57.7564L1253.31 105.04C1253.37 131.068 1253.65 152.38 1253.88 152.38C1254.11 152.38 1254.68 151.31 1255.25 150.015V150.001ZM1025.35 136.065C1027.68 130.336 1030.52 123.466 1031.66 120.778L1033.71 115.893V99.2544C1033.71 86.4869 1033.54 82.5595 1033.02 82.3905C1032.63 82.2779 1024.66 81.4896 1015.39 80.7577C999.756 79.4626 998.332 79.4063 995.939 80.1946C994.515 80.7014 993.205 81.2644 993.034 81.546C992.749 82.0527 995.597 89.0206 1004.41 109.094C1007.72 116.681 1012.77 128.266 1015.62 134.84C1018.47 141.414 1020.85 146.707 1020.96 146.594C1021.08 146.538 1023.01 141.766 1025.35 136.079V136.065ZM1095.47 76.5769C1095.19 76.2954 1067.26 80.3494 1066.58 80.7999C1065.55 81.363 1066.29 84.7413 1068.63 89.7949C1071.65 96.5376 1089.85 135.108 1093.08 141.681L1095.42 146.453L1095.59 111.656C1095.64 92.4835 1095.59 76.7458 1095.47 76.5769ZM1194.78 121.552L1201.03 107.334L1194.95 95.4114C1187.5 80.8562 1185.05 76.4643 1184.37 76.4643C1184.08 76.4643 1183.86 90.4565 1183.91 110.924L1183.97 145.327L1186.25 140.555C1187.5 137.909 1191.31 129.364 1194.78 121.552ZM1122.77 130.153C1124.83 125.381 1125 124.705 1125.17 118.342L1125.34 111.6L1123.06 106.982C1121.81 104.392 1120.5 102.323 1120.15 102.323C1119.76 102.323 1119.58 107.94 1119.58 119.299C1119.58 128.801 1119.81 136.051 1120.1 135.769C1120.33 135.431 1121.58 132.954 1122.77 130.153ZM1405.7 85.1777C1405.7 58.0802 1405.53 43.8487 1405.13 43.8487C1404.84 43.8487 1399.67 53.4631 1393.75 65.2171L1382.88 86.6417L1389.93 99.1277C1403.42 123.016 1405.4 126.507 1405.57 126.507C1405.63 126.507 1405.68 107.897 1405.68 85.1777H1405.7ZM1214.8 109.516C1215.26 108.784 1217.54 104.069 1219.86 98.9447C1222.2 93.8349 1227.25 82.8692 1231.07 74.4936C1234.88 66.1743 1238.06 58.6996 1238.12 57.9113C1238.17 57.0104 1237.83 56.4473 1237.21 56.3347C1236.52 56.2221 1235.72 57.1793 1234.3 59.9946C1232.25 63.9924 1224.46 80.7436 1222.86 84.6147C1222.35 85.8534 1219.56 91.8641 1216.73 97.9452C1212.4 107.222 1211.67 109.192 1212.28 109.924C1213.25 111.107 1213.82 110.994 1214.79 109.53L1214.8 109.516ZM1139.04 91.8078C1140.52 88.4294 1143.42 81.8556 1145.52 77.14C1147.57 72.4243 1149.16 68.4265 1148.99 68.2576C1148.71 67.9761 1134.27 69.8342 1128.86 70.904C1125.61 71.5234 1124.75 72.7058 1125.49 75.6197C1125.95 77.4215 1135.68 97.8326 1136.08 97.8326C1136.25 97.8326 1137.56 95.1299 1139.04 91.8219V91.8078ZM1214.75 76.3517C1219.63 65.4423 1223.51 56.4473 1223.33 56.2784C1223.05 55.9969 1196.6 59.7694 1191.7 60.8392C1189.08 61.346 1188.97 61.4586 1188.97 63.373C1188.97 64.7807 1191.13 69.4964 1197.1 80.7436C1201.54 89.2318 1205.35 96.1434 1205.52 96.1434C1205.69 96.1434 1209.85 87.2611 1214.73 76.3517H1214.75ZM1043.93 91.8078C1043.93 90.8506 1043.71 89.8371 1043.36 89.6682C1043.02 89.4429 1042.79 90.4565 1042.79 92.3146C1042.79 94.4542 1042.96 95.0736 1043.36 94.4542C1043.65 94.0038 1043.93 92.8213 1043.93 91.8078ZM1386.57 56.1658C1391.8 45.5942 1396.24 36.1488 1396.41 35.1916C1396.53 34.2344 1396.41 32.7704 1396.07 31.9258C1395.62 30.6871 1395.1 30.3492 1393.79 30.3492C1392.14 30.3492 1354.37 35.9095 1354.09 36.191C1353.97 36.2473 1358.3 43.891 1363.64 53.1675C1368.98 62.3877 1374 71.1574 1374.74 72.6777C1375.48 74.1416 1376.33 75.3241 1376.56 75.3241C1376.79 75.3241 1381.27 66.6669 1386.57 56.1517V56.1658ZM1033.69 71.0026C1033.69 67.8494 1033.35 67.7931 1025.96 69.0881C1022.26 69.7075 1019.02 70.4958 1018.74 70.7773C1018.11 71.3967 1023.97 72.1287 1031.32 72.4102C1033.59 72.5228 1033.71 72.4102 1033.71 71.0026H1033.69ZM1077.09 67.4552C1084.36 66.2165 1091.41 64.9778 1092.84 64.7525L1095.4 64.3584L1095.57 61.3178C1095.69 59.6286 1095.57 58.1084 1095.29 57.8831C1094.66 57.3201 1057.18 63.6686 1056.38 64.4569C1055.92 64.9074 1056.84 65.6957 1059.68 67.3849C1061.79 68.6236 1063.67 69.6934 1063.73 69.6934C1063.84 69.6934 1069.87 68.6799 1077.1 67.4412L1077.09 67.4552ZM1138.34 57.3341C1147.55 55.8139 1155.17 54.5188 1155.17 54.5188C1155.46 54.5188 1157.68 48.7896 1157.68 48.1139C1157.68 46.8752 1157.28 46.9315 1143.7 49.1838C1125.95 52.168 1125.84 52.168 1125.27 53.5757C1125.04 54.2514 1123.73 55.8279 1122.48 57.0667C1120.08 59.3189 1119.63 60.1635 1120.88 60.1635C1121.22 60.1635 1129.13 58.9248 1138.34 57.3482V57.3341ZM1207.46 45.8617C1217.81 44.1162 1226.91 42.5396 1227.76 42.3707C1228.85 42.1454 1229.64 41.3572 1230.44 39.668C1232.04 36.4585 1232.04 34.8397 1230.38 34.8397C1229.64 34.8397 1221 36.191 1211.1 37.8802L1193.19 40.9208L1189.37 44.4681C1185.21 48.3532 1184.54 49.7468 1187.15 49.2964C1188 49.1838 1197.16 47.6072 1207.46 45.8617ZM1283.22 34.0514C1295.4 32.0243 1306.65 30.2225 1308.36 29.941L1311.43 29.4905L1312.74 26.1122C1314.34 22.0018 1314.4 21.3402 1313.14 21.3402C1312.57 21.3402 1302.45 22.8605 1290.55 24.7749C1276.46 27.0834 1268.82 28.5474 1268.37 29.1105C1267.11 30.6308 1265.97 31.5317 1263.25 33.3335C1261.72 34.347 1260.06 35.7547 1259.61 36.4303C1258.87 37.5565 1258.87 37.6691 1260.01 37.6691C1260.63 37.6691 1271.1 36.0362 1283.22 34.0655V34.0514Z" fill="#FF6200"/>
<path d="M562.989 302.186C555.445 301.802 555.238 301.776 555.238 301.111C555.238 300.83 557.102 295.004 559.347 288.136C561.618 281.293 564.516 272.276 565.83 268.138C567.124 264.001 568.696 258.993 569.317 257.03C569.912 255.06 570.507 252.713 570.611 251.793C570.689 250.795 570.999 249.695 571.336 249.113C571.853 248.192 572.112 248.013 573.969 247.425C576.343 246.683 579.268 245.43 579.268 245.18C579.268 245.078 578.931 244.668 578.517 244.285L577.793 243.594L572.002 244.003C566.16 244.413 552.469 245.282 530.426 246.683C495.773 248.876 465.124 250.821 458.46 251.281C450.89 251.793 419.75 253.756 407.813 254.472C396.834 255.137 397.759 254.984 396.678 256.212C395.384 257.695 395.1 258.354 395.566 258.814C395.773 259.019 396.86 259.582 397.992 260.068L400.062 260.963L400.761 272.02C401.149 278.102 401.667 286.172 401.926 289.926C402.184 293.68 402.34 296.897 402.236 297.025C402.133 297.204 397.481 297.434 389.963 297.639C383.298 297.843 373.943 298.125 369.187 298.278C349.939 298.841 346.368 298.867 339.6 298.406C336.061 298.176 333.066 297.92 332.962 297.869C332.574 297.613 332.781 296.948 335.181 290.694C336.527 287.221 339.264 279.969 341.282 274.578C343.327 269.187 345.158 264.564 345.391 264.282C345.624 264.001 346.374 263.643 347.073 263.464L348.367 263.157L348.678 261.443C348.859 260.496 349.066 259.601 349.143 259.499C349.221 259.371 349.92 259.141 350.722 258.961C351.499 258.782 352.146 258.578 352.146 258.475C352.12 257.913 351.55 257.58 350.437 257.478C348.445 257.299 348.496 257.401 349.221 255.054C349.972 252.579 351.518 248.109 352.527 245.474C353.355 243.281 353.769 243.127 354.979 244.63C355.678 245.525 355.937 245.653 356.817 245.653C357.412 245.653 357.878 245.525 357.956 245.346C358.085 244.937 367.156 220.93 372.429 206.957C374.648 201.054 377.107 194.544 377.857 192.498C379.488 188.104 379.876 187.286 380.646 186.8C380.956 186.595 385.815 185.623 391.418 184.606C407.05 181.824 412.918 180.775 430.827 177.584C439.924 175.947 449.305 174.291 451.654 173.856C454.028 173.447 456.694 172.986 457.6 172.858C458.506 172.756 459.767 172.526 460.414 172.372C462.303 171.963 470.857 170.428 478.375 169.156C482.224 168.516 485.867 167.877 486.514 167.749C487.808 167.467 511.76 163.253 525.664 160.855C530.652 159.985 534.89 159.243 535.097 159.167C535.304 159.115 535.744 158.604 536.081 158.041C536.624 157.095 536.754 157.018 537.789 157.018C538.384 157.018 540.086 157.197 541.587 157.402C543.062 157.606 546.549 158.041 549.312 158.399C552.074 158.757 558.305 159.576 563.138 160.215C567.971 160.855 573.27 161.571 574.894 161.776C577.269 162.083 577.993 162.287 578.511 162.748C578.873 163.055 579.468 163.438 579.831 163.592C580.944 164.052 580.892 164.001 590.836 180.782C592.13 182.95 594.919 187.676 597.041 191.257C602.987 201.297 614.432 220.834 615.416 222.65L616.296 224.262L618.541 224.108C619.757 224.006 621.303 223.878 621.976 223.801L623.193 223.648L624.435 225.413C626.065 227.683 627.172 228.809 627.844 228.809C628.181 228.809 628.698 229.244 629.216 229.934C629.682 230.574 630.251 231.162 630.458 231.239C630.665 231.316 631.985 231.469 633.35 231.546L635.88 231.699V232.518C635.88 233.081 635.647 233.541 635.104 234.053L634.353 234.769L634.974 235.511C635.544 236.176 635.621 236.508 635.621 238.318V240.365L632.781 243.223C631.228 244.809 629.941 246.261 629.941 246.491C629.941 246.798 634.23 249.299 635.705 249.836C635.938 249.938 636.145 250.168 636.145 250.373C636.145 251.601 638.805 288.532 639.4 295.682C639.633 298.387 639.736 300.689 639.633 300.792C639.555 300.894 634.049 301.098 627.411 301.278C620.773 301.457 607.153 301.815 597.125 302.122C576.712 302.71 572.474 302.71 563.015 302.198L562.989 302.186ZM384.431 259.377C384.431 259.096 383.318 258.993 379.209 258.84C376.317 258.763 371.795 258.61 369.129 258.507C364.71 258.354 364.27 258.38 364.27 258.763C364.27 259.121 364.607 259.198 366.412 259.224C367.576 259.249 370.753 259.352 373.438 259.428C382.38 259.761 384.418 259.735 384.418 259.377H384.431ZM615.319 247.374C616.147 246.76 615.526 246.504 612.815 246.325C602.269 245.685 596.795 245.404 596.588 245.532C596.122 245.813 596.303 246.427 596.924 246.683C597.571 246.939 607.697 247.629 611.986 247.681C614.005 247.706 614.956 247.604 615.319 247.374ZM372.235 243.952C375.23 243.722 377.715 243.441 377.715 243.364C377.715 242.955 371.536 229.186 371.335 229.135C370.973 229.007 365.571 243.108 365.571 244.125C365.571 244.457 365.907 244.457 372.235 243.946V243.952ZM392.596 242.008C392.777 241.829 394.045 238.919 395.41 235.498L397.914 229.314L396.232 225.407C393.495 219.127 386.074 201.911 385.893 201.425C385.789 201.169 385.608 200.965 385.453 200.965C385.142 200.965 385.091 225.944 385.375 236.317L385.531 242.648L388.914 242.469C390.933 242.366 392.428 242.187 392.583 242.008H392.596ZM402.754 241.164C402.961 240.985 401.874 238.51 401.563 238.51C401.253 238.51 400.192 240.582 400.192 241.19C400.192 241.42 400.528 241.471 401.434 241.369C402.107 241.317 402.702 241.215 402.754 241.164ZM415.26 240.115C415.571 239.936 415.493 205.505 415.157 205.607C415.001 205.659 413.966 207.929 412.834 210.666L410.815 215.648L410.789 228.137V240.601L412.931 240.422C414.096 240.32 415.124 240.192 415.254 240.115H415.26ZM425.903 239.373C428.744 239.169 431.099 238.939 431.15 238.913C431.176 238.862 430.374 236.994 429.313 234.775C427.171 230.228 424.066 223.565 421.562 218.199C420.656 216.23 419.75 214.599 419.543 214.548C419.181 214.471 419.103 220.399 419.259 235.261L419.31 239.783H420.035C420.423 239.783 423.057 239.604 425.903 239.373ZM380.762 221.672C380.814 208.773 380.736 204.252 380.529 204.328C380.167 204.456 373.322 223.379 373.322 224.223C373.322 224.633 374.797 227.977 377.585 233.906C378.543 235.952 379.501 237.992 379.708 238.452C380.639 240.595 380.691 239.68 380.769 221.672H380.762ZM454.695 236.969C458.286 236.687 461.307 236.406 461.385 236.329C461.54 236.176 452.417 217.355 452.055 217.125C451.719 216.92 451.537 217.278 449.396 222.03C448.386 224.275 447.125 227.012 446.607 228.137L445.676 230.133V237.717L446.918 237.589C447.591 237.538 451.078 237.257 454.695 236.975V236.969ZM405.911 231.782C405.549 230.887 404.979 230.913 404.591 231.859C404.307 232.524 404.384 232.806 405.135 234.462L406.015 236.329L406.092 234.385C406.118 233.311 406.04 232.141 405.911 231.782ZM477.385 231.936C478.11 230.273 479.941 226.264 481.442 223.021C484.256 216.94 485.007 214.593 484.049 214.772C483.713 214.848 483.195 215.718 482.444 217.426C480.788 221.103 479.242 224.498 476.913 229.378C474.719 233.976 474.486 234.922 475.463 234.922C475.981 234.922 476.24 234.513 477.378 231.936H477.385ZM489.736 234.129C493.715 233.848 497.021 233.567 497.073 233.516C497.151 233.413 496.323 231.955 491.101 222.714C489.057 219.139 489.005 219.063 488.209 219.139C487.588 219.191 487.303 219.421 486.941 220.111C485.958 222.03 480.303 234.443 480.303 234.699C480.303 234.852 480.743 234.903 481.416 234.827C482.011 234.75 485.757 234.443 489.736 234.136V234.129ZM433.583 231.169C433.169 230.35 430.562 224.863 427.767 218.96C420.352 203.177 419.783 201.975 419.524 201.975C419.136 201.975 419.498 202.87 422.157 208.485C423.555 211.446 426.499 217.707 428.692 222.407C434.172 234.155 434.146 234.104 434.25 233.311C434.301 232.953 433.991 231.981 433.577 231.169H433.583ZM470.74 210.787C470.74 196.533 470.663 188.923 470.481 188.82C470.3 188.718 470.223 196.098 470.223 210.787C470.223 225.471 470.3 232.857 470.481 232.755C470.663 232.652 470.74 225.042 470.74 210.787ZM524.875 231.348C530.432 230.913 535.343 230.503 535.802 230.427L536.631 230.273V207.743C536.631 194.103 536.527 185.086 536.372 184.856C536.217 184.6 536.035 184.574 535.88 184.728C535.621 184.983 532.781 190.835 523.917 209.246C521.206 214.868 517.712 222.12 516.166 225.336C512.42 233.074 512.653 232.384 513.843 232.23C514.361 232.153 519.349 231.744 524.875 231.335V231.348ZM440.894 229.154L441.567 227.645L441.541 212.706C441.515 199.73 441.464 197.742 441.127 197.358C440.92 197.128 440.532 196.386 440.273 195.695C440.014 195.004 439.652 194.416 439.497 194.365C439.29 194.288 439.212 199.219 439.212 212.527C439.212 222.593 439.29 230.996 439.367 231.226C439.523 231.584 439.574 231.584 439.885 231.149C440.066 230.894 440.532 229.998 440.894 229.154ZM499.422 211.785C499.422 199.423 499.344 194.032 499.137 194.109C499.008 194.16 497.3 197.531 495.417 201.591L491.929 208.997V215.84L494.485 220.591C495.883 223.194 497.507 226.289 498.102 227.459C498.697 228.611 499.215 229.557 499.292 229.557C499.37 229.557 499.422 221.563 499.422 211.779V211.785ZM563.196 228.284C568.055 227.901 572.112 227.517 572.19 227.466C572.241 227.389 572.034 226.826 571.672 226.212C561.462 207.641 560.977 206.778 560.46 206.88C560.175 206.931 558.137 210.66 554.669 217.426C551.751 223.2 549.215 228.227 549.059 228.636L548.775 229.352L551.563 229.173C553.09 229.071 558.305 228.687 563.19 228.278L563.196 228.284ZM549.577 214.388C555.73 202.308 555.859 202.001 555.956 200.287L556.034 198.522L551.874 191.116C549.577 187.055 546.679 181.895 545.443 179.701C542.059 173.568 542.188 173.293 542.395 186.442C542.499 192.37 542.577 204.041 542.577 212.418C542.602 225.394 542.654 227.562 542.939 227.178C543.146 226.922 546.116 221.147 549.577 214.382V214.388ZM465.312 207.443C465.312 189.025 465.286 187.906 464.872 187.983C464.561 188.034 463.733 189.569 462.316 192.658C461.178 195.184 459.269 199.372 458.079 201.981C456.888 204.584 455.937 206.989 455.937 207.347C455.937 207.705 457.542 211.28 459.45 215.315C461.391 219.35 463.429 223.616 463.999 224.818C464.568 226.021 465.111 227.012 465.189 227.012C465.267 227.012 465.318 218.199 465.318 207.449L465.312 207.443ZM588.675 215.232C591.774 209.176 594.259 204.047 594.259 203.663C594.259 202.768 593.638 201.617 589.141 193.956C587.071 190.432 584.36 185.757 583.092 183.583C580.846 179.752 580.381 179.036 580.251 179.266C580.199 179.317 580.225 189.255 580.303 201.336L580.432 223.303L581.442 225.042C582.27 226.475 582.503 226.73 582.762 226.449C582.943 226.27 585.602 221.211 588.682 215.238L588.675 215.232ZM590.124 225.982C590.306 225.573 590.564 225.112 590.746 224.985C590.901 224.857 592.842 224.652 595.061 224.55C598.937 224.396 599.118 224.396 599.635 224.908C600.179 225.445 600.231 225.445 603.718 225.061C605.685 224.857 607.309 224.678 607.335 224.626C607.438 224.524 597.901 208.357 597.72 208.357C597.565 208.357 588.054 226.366 588.054 226.673C588.054 226.724 588.442 226.75 588.934 226.75C589.659 226.75 589.866 226.622 590.124 225.982ZM507.05 225.164C507.283 224.55 508.732 221.359 510.278 218.065C517.098 203.427 520.876 195.331 524.985 186.55C527.411 181.364 529.352 177.047 529.274 176.996C529.171 176.894 508.421 179.906 507.542 180.136C507.386 180.187 506.998 180.903 506.688 181.722L506.118 183.257L506.17 204.738C506.196 216.562 506.325 226.244 506.429 226.244C506.532 226.244 506.791 225.758 507.05 225.17V225.164ZM402.605 218.832C403.666 216.23 404.954 213.109 405.471 211.887L406.403 209.668V202.109C406.403 196.309 406.325 194.525 406.092 194.448C405.911 194.397 402.294 194.039 398.082 193.706C390.978 193.118 390.331 193.092 389.244 193.45C388.597 193.681 388.002 193.937 387.925 194.064C387.795 194.295 389.089 197.46 393.094 206.58C394.595 210.026 396.892 215.29 398.186 218.276C399.48 221.263 400.56 223.667 400.612 223.616C400.664 223.59 401.544 221.422 402.605 218.839V218.832ZM434.463 191.807C434.334 191.679 421.646 193.521 421.335 193.725C420.87 193.981 421.206 195.516 422.267 197.812C423.639 200.875 431.907 218.398 433.376 221.384L434.437 223.552L434.515 207.743C434.541 199.033 434.515 191.884 434.463 191.807ZM479.578 212.239L482.419 205.78L479.656 200.364C476.272 193.751 475.159 191.756 474.849 191.756C474.719 191.756 474.616 198.112 474.642 207.411L474.668 223.04L475.703 220.872C476.272 219.67 478 215.788 479.578 212.239ZM446.866 216.147C447.798 213.979 447.875 213.672 447.953 210.781L448.031 207.718L446.995 205.62C446.426 204.444 445.831 203.504 445.676 203.504C445.494 203.504 445.417 206.055 445.417 211.216C445.417 215.533 445.52 218.826 445.65 218.698C445.753 218.545 446.323 217.419 446.866 216.147ZM575.399 195.714C575.399 183.404 575.321 176.938 575.14 176.938C575.011 176.938 572.662 181.306 569.97 186.646L565.034 196.379L568.236 202.052C574.364 212.904 575.263 214.49 575.341 214.49C575.366 214.49 575.392 206.036 575.392 195.714H575.399ZM488.675 206.771C488.882 206.439 489.917 204.297 490.972 201.969C492.033 199.647 494.33 194.666 496.064 190.861C497.798 187.081 499.241 183.685 499.266 183.327C499.292 182.918 499.137 182.662 498.852 182.611C498.542 182.56 498.179 182.995 497.532 184.274C496.601 186.09 493.062 193.7 492.337 195.459C492.104 196.021 490.836 198.752 489.548 201.515C487.582 205.729 487.252 206.624 487.53 206.957C487.97 207.494 488.229 207.443 488.669 206.778L488.675 206.771ZM454.255 198.726C454.928 197.192 456.248 194.205 457.199 192.063C458.13 189.92 458.855 188.104 458.777 188.027C458.648 187.9 452.087 188.744 449.629 189.23C448.154 189.511 447.765 190.048 448.102 191.372C448.309 192.191 452.728 201.464 452.909 201.464C452.987 201.464 453.582 200.236 454.255 198.733V198.726ZM488.649 191.705C490.868 186.748 492.628 182.662 492.551 182.585C492.421 182.457 480.406 184.171 478.181 184.657C476.99 184.888 476.939 184.939 476.939 185.808C476.939 186.448 477.922 188.59 480.633 193.7C482.652 197.556 484.379 200.696 484.457 200.696C484.534 200.696 486.423 196.661 488.643 191.705H488.649ZM411.048 198.726C411.048 198.292 410.945 197.831 410.789 197.754C410.634 197.652 410.531 198.112 410.531 198.957C410.531 199.929 410.608 200.21 410.789 199.929C410.919 199.724 411.048 199.187 411.048 198.726ZM566.71 182.534C569.084 177.731 571.103 173.44 571.18 173.005C571.232 172.571 571.18 171.906 571.025 171.522C570.818 170.959 570.585 170.806 569.99 170.806C569.239 170.806 552.081 173.332 551.952 173.46C551.9 173.485 553.867 176.958 556.293 181.172C558.719 185.361 560.997 189.345 561.333 190.036C561.669 190.701 562.058 191.238 562.161 191.238C562.265 191.238 564.303 187.305 566.71 182.528V182.534ZM406.396 189.275C406.396 187.842 406.241 187.816 402.883 188.405C401.201 188.686 399.732 189.044 399.603 189.172C399.318 189.454 401.977 189.786 405.316 189.914C406.351 189.965 406.403 189.914 406.403 189.275H406.396ZM426.11 187.663C429.416 187.1 432.619 186.537 433.266 186.435L434.431 186.256L434.508 184.875C434.56 184.107 434.508 183.417 434.379 183.314C434.094 183.059 417.065 185.943 416.703 186.301C416.496 186.505 416.91 186.864 418.204 187.631C419.162 188.194 420.016 188.68 420.041 188.68C420.093 188.68 422.83 188.219 426.117 187.657L426.11 187.663ZM453.938 183.065C458.124 182.374 461.585 181.786 461.585 181.786C461.715 181.786 462.724 179.183 462.724 178.876C462.724 178.313 462.543 178.339 456.37 179.362C448.309 180.718 448.257 180.718 447.998 181.357C447.895 181.664 447.299 182.381 446.73 182.943C445.643 183.967 445.436 184.35 446.006 184.35C446.161 184.35 449.752 183.788 453.938 183.071V183.065ZM485.337 177.853C490.04 177.06 494.175 176.344 494.563 176.267C495.054 176.165 495.417 175.807 495.779 175.039C496.504 173.581 496.504 172.846 495.753 172.846C495.417 172.846 491.489 173.46 486.993 174.227L478.854 175.608L477.12 177.22C475.23 178.985 474.926 179.618 476.11 179.413C476.499 179.362 480.659 178.646 485.337 177.853ZM519.757 172.487C525.289 171.567 530.4 170.748 531.176 170.62L532.574 170.415L533.169 168.881C533.894 167.013 533.92 166.713 533.35 166.713C533.092 166.713 528.491 167.403 523.089 168.273C516.684 169.322 513.216 169.987 513.009 170.243C512.439 170.933 511.922 171.343 510.686 172.161C509.987 172.622 509.237 173.261 509.03 173.568C508.693 174.08 508.693 174.131 509.211 174.131C509.495 174.131 514.251 173.389 519.757 172.494V172.487Z" fill="#FF6200"/>
<path d="M72.9167 289.062C70.0584 288.916 69.9799 288.907 69.9799 288.655C69.9799 288.548 70.686 286.341 71.5366 283.738C72.397 281.146 73.4953 277.729 73.9929 276.162C74.4832 274.594 75.0789 272.697 75.3142 271.953C75.5397 271.206 75.7653 270.317 75.8045 269.968C75.8339 269.59 75.9516 269.174 76.0791 268.953C76.2752 268.604 76.3732 268.536 77.0768 268.313C77.9765 268.032 79.0845 267.557 79.0845 267.463C79.0845 267.424 78.957 267.269 78.8001 267.124L78.5256 266.862L76.3316 267.017C74.1179 267.172 68.9307 267.502 60.5788 268.032C47.449 268.863 35.8367 269.6 33.3117 269.774C30.4436 269.968 18.6449 270.712 14.122 270.984C9.962 271.236 10.3126 271.177 9.90317 271.643C9.41289 272.205 9.30502 272.454 9.48153 272.629C9.55997 272.706 9.97181 272.92 10.4008 273.104L11.1853 273.443L11.45 277.632C11.5971 279.937 11.7932 282.994 11.8913 284.417C11.9893 285.839 12.0482 287.058 12.0089 287.106C11.9697 287.174 10.2071 287.261 7.3586 287.339C4.83365 287.417 1.28891 287.523 -0.512883 287.581C-7.80584 287.795 -9.15902 287.804 -11.7232 287.63C-13.0641 287.543 -14.1991 287.446 -14.2383 287.426C-14.3854 287.329 -14.307 287.077 -13.3975 284.708C-12.8876 283.392 -11.8507 280.644 -11.0858 278.602C-10.3112 276.559 -9.61743 274.807 -9.52918 274.701C-9.44093 274.594 -9.15657 274.458 -8.89182 274.39L-8.40153 274.274L-8.28386 273.625C-8.21523 273.266 -8.13678 272.927 -8.10736 272.888C-8.07795 272.84 -7.81319 272.752 -7.50922 272.685C-7.21505 272.617 -6.96991 272.539 -6.96991 272.5C-6.97971 272.287 -7.19544 272.161 -7.61708 272.122C-8.37211 272.055 -8.3525 272.093 -8.07795 271.204C-7.79358 270.266 -7.20769 268.573 -6.82527 267.574C-6.51149 266.743 -6.3546 266.685 -5.89619 267.255C-5.63144 267.594 -5.53338 267.642 -5.19999 267.642C-4.97446 267.642 -4.79796 267.594 -4.76854 267.526C-4.71951 267.371 -1.28263 258.275 0.715272 252.98C1.55611 250.744 2.48764 248.277 2.77201 247.502C3.38976 245.837 3.53685 245.527 3.82857 245.343C3.94624 245.266 5.78725 244.897 7.91017 244.512C13.8328 243.458 16.0562 243.061 22.8417 241.852C26.2884 241.231 29.843 240.604 30.7328 240.439C31.6325 240.284 32.6425 240.109 32.9857 240.061C33.3289 240.022 33.8069 239.935 34.052 239.877C34.7678 239.722 38.0086 239.14 40.8572 238.658C42.3157 238.416 43.6959 238.173 43.941 238.125C44.4313 238.018 53.5065 236.422 58.7745 235.513C60.6646 235.183 62.2703 234.902 62.3487 234.873C62.4271 234.854 62.5938 234.66 62.7213 234.447C62.9272 234.088 62.9763 234.059 63.3685 234.059C63.594 234.059 64.2387 234.127 64.8075 234.204C65.3664 234.282 66.6877 234.447 67.7345 234.582C68.7812 234.718 71.1419 235.028 72.9731 235.271C74.8043 235.513 76.812 235.784 77.4273 235.862C78.327 235.978 78.6016 236.056 78.7977 236.23C78.935 236.346 79.1605 236.492 79.2978 236.55C79.7194 236.724 79.6998 236.705 83.4676 243.063C83.9579 243.884 85.0145 245.675 85.8185 247.032C88.0714 250.836 92.4079 258.238 92.7805 258.927L93.1139 259.537L93.9646 259.479C94.4254 259.44 95.0113 259.392 95.2663 259.363L95.7271 259.305L96.1978 259.973C96.8156 260.834 97.2347 261.26 97.4897 261.26C97.6172 261.26 97.8133 261.425 98.0094 261.686C98.1859 261.929 98.4016 262.152 98.4801 262.181C98.5585 262.21 99.0586 262.268 99.5759 262.297L100.534 262.355V262.665C100.534 262.879 100.446 263.053 100.24 263.247L99.9558 263.518L100.191 263.799C100.407 264.051 100.436 264.177 100.436 264.863V265.638L99.3601 266.721C98.7718 267.322 98.284 267.872 98.284 267.96C98.284 268.076 99.9092 269.023 100.468 269.227C100.556 269.266 100.635 269.353 100.635 269.43C100.635 269.896 101.642 283.889 101.868 286.598C101.956 287.622 101.995 288.495 101.956 288.534C101.927 288.572 99.8406 288.65 97.3255 288.718C94.8103 288.786 89.6501 288.921 85.8504 289.038C78.1162 289.26 76.5105 289.26 72.9265 289.067L72.9167 289.062ZM5.26264 272.842C5.26264 272.735 4.841 272.697 3.28435 272.639C2.18857 272.609 0.475035 272.551 -0.534947 272.513C-2.20926 272.454 -2.37596 272.464 -2.37596 272.609C-2.37596 272.745 -2.24849 272.774 -1.56454 272.784C-1.12329 272.794 0.0803552 272.832 1.09769 272.861C4.48554 272.987 5.25774 272.978 5.25774 272.842H5.26264ZM92.7438 268.294C93.0575 268.061 92.8222 267.964 91.7951 267.897C87.7993 267.654 85.7254 267.548 85.6469 267.596C85.4704 267.703 85.5391 267.935 85.7744 268.032C86.0195 268.129 89.856 268.391 91.4813 268.41C92.2461 268.42 92.6065 268.381 92.7438 268.294ZM0.64173 266.998C1.77673 266.91 2.71808 266.804 2.71808 266.775C2.71808 266.62 0.376978 261.403 0.300984 261.384C0.163705 261.335 -1.88323 266.678 -1.88323 267.063C-1.88323 267.189 -1.75575 267.189 0.64173 266.995V266.998ZM8.35633 266.261C8.42497 266.193 8.90544 265.091 9.42269 263.794L10.3714 261.451L9.73402 259.971C8.69707 257.592 5.88531 251.069 5.81667 250.885C5.77744 250.788 5.7088 250.71 5.64997 250.71C5.5323 250.71 5.51269 260.174 5.62055 264.105L5.67938 266.503L6.96147 266.436C7.72631 266.397 8.29259 266.329 8.35142 266.261H8.35633ZM12.205 265.941C12.2835 265.873 11.8717 264.936 11.754 264.936C11.6363 264.936 11.2343 265.721 11.2343 265.951C11.2343 266.038 11.3618 266.058 11.705 266.019C11.9599 265.999 12.1854 265.961 12.205 265.941ZM16.9436 265.544C17.0613 265.476 17.0319 252.43 16.9044 252.469C16.8456 252.489 16.4533 253.349 16.0243 254.386L15.2595 256.273L15.2497 261.006V265.728L16.0611 265.66C16.5024 265.621 16.8921 265.573 16.9412 265.544H16.9436ZM20.9762 265.263C22.0524 265.185 22.9447 265.098 22.9643 265.088C22.9741 265.069 22.6701 264.361 22.2681 263.521C21.4567 261.798 20.28 259.273 19.3313 257.24C18.9881 256.494 18.6449 255.876 18.5665 255.857C18.4292 255.828 18.3998 258.074 18.4586 263.705L18.4782 265.418H18.7528C18.8998 265.418 19.8976 265.35 20.9762 265.263ZM3.87269 258.556C3.8923 253.669 3.86289 251.956 3.78444 251.985C3.64716 252.033 1.05357 259.203 1.05357 259.523C1.05357 259.678 1.61249 260.945 2.66905 263.191C3.03186 263.966 3.39467 264.739 3.47311 264.914C3.82612 265.726 3.84573 265.379 3.87514 258.556H3.87269ZM31.885 264.352C33.2455 264.245 34.3903 264.139 34.4197 264.109C34.4786 264.051 31.0221 256.92 30.8848 256.833C30.7573 256.756 30.6887 256.891 29.8773 258.692C29.4949 259.542 29.0168 260.579 28.8207 261.006L28.4677 261.762V264.635L28.9384 264.587C29.1933 264.567 30.5146 264.461 31.885 264.354V264.352ZM13.4013 262.387C13.2641 262.047 13.0483 262.057 12.9012 262.416C12.7934 262.668 12.8228 262.774 13.1072 263.402L13.4406 264.109L13.47 263.373C13.4798 262.966 13.4504 262.522 13.4013 262.387ZM40.4821 262.445C40.7566 261.815 41.4504 260.296 42.0191 259.067C43.0855 256.763 43.3699 255.874 43.007 255.941C42.8796 255.97 42.6835 256.3 42.3991 256.947C41.7715 258.34 41.1856 259.627 40.3031 261.476C39.4721 263.218 39.3839 263.576 39.754 263.576C39.9501 263.576 40.0482 263.421 40.4796 262.445H40.4821ZM45.1618 263.276C46.6695 263.169 47.9221 263.063 47.9417 263.043C47.9711 263.005 47.6574 262.452 45.6791 258.951C44.9044 257.596 44.8848 257.567 44.5833 257.596C44.348 257.616 44.2401 257.703 44.1028 257.965C43.7302 258.692 41.5877 263.395 41.5877 263.492C41.5877 263.55 41.7544 263.569 42.0093 263.54C42.2348 263.511 43.6542 263.395 45.1618 263.278V263.276ZM23.886 262.154C23.7291 261.844 22.7412 259.765 21.6822 257.529C18.8729 251.549 18.6572 251.093 18.5591 251.093C18.412 251.093 18.5493 251.432 19.5568 253.56C20.0863 254.681 21.2017 257.054 22.0328 258.835C24.1091 263.286 24.0993 263.266 24.1385 262.966C24.1581 262.83 24.0405 262.462 23.8836 262.154H23.886ZM37.9645 254.432C37.9645 249.031 37.9351 246.148 37.8664 246.109C37.7978 246.07 37.7684 248.866 37.7684 254.432C37.7684 259.995 37.7978 262.794 37.8664 262.755C37.9351 262.716 37.9645 259.833 37.9645 254.432ZM58.4755 262.222C60.5812 262.057 62.4418 261.902 62.6159 261.873L62.9297 261.815V253.279C62.9297 248.11 62.8905 244.694 62.8316 244.607C62.7728 244.51 62.7042 244.5 62.6453 244.558C62.5473 244.655 61.4711 246.872 58.1127 253.848C57.0855 255.978 55.7617 258.725 55.1759 259.944C53.7565 262.876 53.8447 262.614 54.2958 262.556C54.4919 262.527 56.382 262.372 58.4755 262.217V262.222ZM26.6561 261.391L26.9111 260.819L26.9013 255.159C26.8915 250.242 26.8718 249.489 26.7444 249.344C26.6659 249.256 26.5188 248.975 26.4208 248.714C26.3227 248.452 26.1855 248.229 26.1266 248.21C26.0482 248.181 26.0187 250.049 26.0187 255.091C26.0187 258.905 26.0482 262.089 26.0776 262.176C26.1364 262.312 26.156 262.312 26.2737 262.147C26.3423 262.05 26.5188 261.711 26.6561 261.391ZM48.8316 254.81C48.8316 250.126 48.8022 248.084 48.7237 248.113C48.6747 248.132 48.0275 249.409 47.3142 250.948L45.9929 253.753V256.346L46.9612 258.146C47.4907 259.133 48.106 260.305 48.3315 260.749C48.557 261.185 48.7532 261.543 48.7826 261.543C48.812 261.543 48.8316 258.515 48.8316 254.807V254.81ZM72.9952 261.061C74.8362 260.916 76.3732 260.771 76.4026 260.751C76.4223 260.722 76.3438 260.509 76.2065 260.276C72.3382 253.24 72.1543 252.913 71.9582 252.951C71.8504 252.971 71.0782 254.383 69.7642 256.947C68.6586 259.135 67.6977 261.039 67.6388 261.195L67.531 261.466L68.5875 261.398C69.1661 261.359 71.1419 261.214 72.9927 261.059L72.9952 261.061ZM67.835 255.796C70.1662 251.219 70.2153 251.103 70.2521 250.453L70.2815 249.785L68.7052 246.979C67.835 245.44 66.7367 243.485 66.2685 242.654C64.9864 240.33 65.0354 240.226 65.1139 245.207C65.1531 247.454 65.1825 251.876 65.1825 255.05C65.1923 259.966 65.2119 260.788 65.3198 260.642C65.3983 260.545 66.5234 258.357 67.835 255.794V255.796ZM35.9077 253.165C35.9077 246.186 35.8979 245.762 35.7411 245.791C35.6234 245.811 35.3096 246.392 34.7727 247.563C34.3413 248.52 33.6181 250.107 33.1671 251.095C32.716 252.082 32.3557 252.993 32.3557 253.128C32.3557 253.264 32.9636 254.618 33.6868 256.147C34.4222 257.676 35.1944 259.292 35.4101 259.748C35.6258 260.204 35.8318 260.579 35.8612 260.579C35.8906 260.579 35.9102 257.24 35.9102 253.167L35.9077 253.165ZM82.6488 256.116C83.8231 253.821 84.7644 251.878 84.7644 251.733C84.7644 251.393 84.5291 250.957 82.8254 248.054C82.0409 246.719 81.0138 244.948 80.5333 244.124C79.6826 242.673 79.5061 242.402 79.4571 242.489C79.4375 242.508 79.4473 246.274 79.4767 250.851L79.5257 259.174L79.9082 259.833C80.2219 260.376 80.3102 260.472 80.4082 260.366C80.4769 260.298 81.4844 258.381 82.6513 256.118L82.6488 256.116ZM83.198 260.189C83.2666 260.034 83.3647 259.859 83.4333 259.811C83.4921 259.763 84.2276 259.685 85.0684 259.646C86.5368 259.588 86.6054 259.588 86.8015 259.782C87.0075 259.985 87.0271 259.985 88.3484 259.84C89.0936 259.763 89.7089 259.695 89.7187 259.675C89.7579 259.637 86.1446 253.511 86.0759 253.511C86.0171 253.511 82.4135 260.334 82.4135 260.451C82.4135 260.47 82.5606 260.48 82.7469 260.48C83.0215 260.48 83.0999 260.431 83.198 260.189ZM51.7218 259.879C51.8101 259.646 52.3592 258.437 52.9451 257.189C55.5289 251.643 56.9605 248.575 58.5171 245.249C59.4364 243.284 60.1718 241.648 60.1424 241.629C60.1032 241.59 52.2415 242.731 51.9081 242.818C51.8493 242.838 51.7022 243.109 51.5845 243.419L51.3688 244.001L51.3884 252.14C51.3982 256.62 51.4473 260.288 51.4865 260.288C51.5257 260.288 51.6238 260.104 51.7218 259.881V259.879ZM12.1487 257.48C12.5507 256.494 13.0385 255.311 13.2346 254.849L13.5876 254.008V251.144C13.5876 248.946 13.5582 248.27 13.47 248.241C13.4013 248.222 12.031 248.086 10.4351 247.96C7.74347 247.737 7.49833 247.727 7.0865 247.863C6.84136 247.95 6.61582 248.047 6.58641 248.096C6.53738 248.183 7.02766 249.382 8.54509 252.838C9.11381 254.144 9.98406 256.138 10.4743 257.269C10.9646 258.401 11.374 259.312 11.3936 259.292C11.4132 259.283 11.7466 258.461 12.1487 257.482V257.48ZM24.2194 247.24C24.1704 247.192 19.3632 247.89 19.2455 247.967C19.069 248.064 19.1965 248.646 19.5985 249.516C20.1182 250.676 23.2511 257.315 23.8076 258.447L24.2096 259.268L24.239 253.279C24.2488 249.978 24.239 247.269 24.2194 247.24ZM41.3131 254.982L42.3893 252.535L41.3425 250.482C40.0604 247.977 39.6388 247.221 39.5211 247.221C39.4721 247.221 39.4329 249.629 39.4427 253.153L39.4525 259.074L39.8447 258.253C40.0604 257.797 40.715 256.327 41.3131 254.982ZM28.9188 256.462C29.2718 255.641 29.3012 255.525 29.3306 254.429L29.36 253.269L28.9678 252.474C28.7521 252.028 28.5266 251.672 28.4677 251.672C28.3991 251.672 28.3697 252.639 28.3697 254.594C28.3697 256.23 28.4089 257.478 28.4579 257.429C28.4971 257.371 28.7129 256.945 28.9188 256.462ZM77.6185 248.721C77.6185 244.056 77.5891 241.607 77.5205 241.607C77.4715 241.607 76.5816 243.262 75.5618 245.285L73.6914 248.973L74.9048 251.122C77.2263 255.234 77.5671 255.835 77.5965 255.835C77.6063 255.835 77.6161 252.632 77.6161 248.721H77.6185ZM44.7598 252.91C44.8382 252.784 45.2305 251.973 45.6301 251.091C46.0321 250.211 46.9023 248.323 47.5593 246.882C48.2163 245.45 48.763 244.163 48.7728 244.027C48.7826 243.872 48.7237 243.775 48.6159 243.756C48.4982 243.737 48.3609 243.901 48.1158 244.386C47.7628 245.074 46.4219 247.958 46.1473 248.624C46.0591 248.837 45.5786 249.872 45.0907 250.919C44.3455 252.515 44.2205 252.855 44.3259 252.98C44.4926 253.184 44.5907 253.165 44.7574 252.913L44.7598 252.91ZM31.7183 249.862C31.9732 249.281 32.4733 248.149 32.8337 247.337C33.1867 246.526 33.4612 245.837 33.4318 245.808C33.3828 245.76 30.8971 246.08 29.9655 246.264C29.4066 246.37 29.2595 246.574 29.387 247.076C29.4654 247.386 31.1397 250.899 31.2084 250.899C31.2378 250.899 31.4633 250.434 31.7183 249.864V249.862ZM44.75 247.202C45.5908 245.324 46.2576 243.775 46.2282 243.746C46.1792 243.698 41.6269 244.347 40.7836 244.531C40.3325 244.619 40.3129 244.638 40.3129 244.968C40.3129 245.21 40.6856 246.022 41.7127 247.958C42.4775 249.419 43.1321 250.608 43.1615 250.608C43.1909 250.608 43.9067 249.079 44.7475 247.202H44.75ZM15.3478 249.862C15.3478 249.697 15.3085 249.523 15.2497 249.494C15.1909 249.455 15.1516 249.629 15.1516 249.949C15.1516 250.318 15.1811 250.424 15.2497 250.318C15.2987 250.24 15.3478 250.037 15.3478 249.862ZM74.3263 243.727C75.226 241.907 75.9908 240.281 76.0202 240.117C76.0398 239.952 76.0202 239.7 75.9614 239.555C75.883 239.341 75.7947 239.283 75.5692 239.283C75.2848 239.283 68.7836 240.24 68.7346 240.289C68.715 240.298 69.4602 241.614 70.3795 243.211C71.2988 244.798 72.1617 246.307 72.2892 246.569C72.4167 246.821 72.5637 247.025 72.603 247.025C72.6422 247.025 73.4144 245.535 74.3263 243.725V243.727ZM13.5852 246.281C13.5852 245.738 13.5264 245.728 12.2541 245.951C11.6167 246.058 11.0602 246.194 11.0112 246.242C10.9033 246.349 11.9109 246.475 13.1758 246.523C13.568 246.543 13.5876 246.523 13.5876 246.281H13.5852ZM21.0546 245.67C22.3073 245.457 23.5208 245.244 23.7659 245.205L24.2072 245.137L24.2366 244.614C24.2562 244.323 24.2366 244.061 24.1875 244.023C24.0797 243.926 17.6276 245.018 17.4903 245.154C17.4118 245.232 17.5687 245.367 18.059 245.658C18.4218 245.871 18.7454 246.055 18.7552 246.055C18.7748 246.055 19.8118 245.881 21.0571 245.668L21.0546 245.67ZM31.5982 243.928C33.1842 243.666 34.4957 243.443 34.4957 243.443C34.5448 243.443 34.9272 242.457 34.9272 242.341C34.9272 242.128 34.8585 242.137 32.5199 242.525C29.4654 243.039 29.4458 243.039 29.3478 243.281C29.3085 243.397 29.083 243.669 28.8673 243.882C28.4555 244.27 28.377 244.415 28.5927 244.415C28.6516 244.415 30.0121 244.202 31.5982 243.93V243.928ZM43.4949 241.953C45.2771 241.653 46.8435 241.381 46.9906 241.352C47.1769 241.314 47.3142 241.178 47.4515 240.887C47.726 240.335 47.726 240.056 47.4417 240.056C47.3142 240.056 45.8262 240.289 44.1224 240.579L41.0386 241.103L40.3816 241.713C39.6658 242.382 39.5505 242.622 39.9992 242.545C40.1462 242.525 41.7225 242.254 43.4949 241.953ZM56.5364 239.92C58.6324 239.571 60.569 239.261 60.8631 239.213L61.3926 239.135L61.6182 238.554C61.8927 237.846 61.9025 237.732 61.6868 237.732C61.5888 237.732 59.8458 237.994 57.7989 238.324C55.372 238.721 54.058 238.973 53.9796 239.07C53.7638 239.332 53.5677 239.487 53.0995 239.797C52.8348 239.971 52.5504 240.214 52.472 240.33C52.3445 240.524 52.3445 240.543 52.5406 240.543C52.6485 240.543 54.4502 240.262 56.5364 239.923V239.92Z" fill="#FF6200"/>
<path d="M190.419 293.605C186.39 293.4 186.279 293.386 186.279 293.031C186.279 292.881 187.275 289.77 188.474 286.102C189.686 282.447 191.234 277.632 191.936 275.422C192.627 273.213 193.466 270.539 193.798 269.49C194.116 268.438 194.434 267.185 194.489 266.693C194.531 266.16 194.696 265.573 194.876 265.262C195.153 264.77 195.291 264.675 196.282 264.36C197.55 263.964 199.112 263.295 199.112 263.162C199.112 263.107 198.933 262.888 198.711 262.684L198.324 262.315L195.232 262.533C192.112 262.752 184.801 263.216 173.029 263.964C154.522 265.136 138.155 266.174 134.596 266.42C130.553 266.693 113.923 267.741 107.548 268.124C101.685 268.479 102.179 268.397 101.602 269.053C100.911 269.845 100.759 270.197 101.008 270.443C101.118 270.552 101.699 270.853 102.303 271.112L103.409 271.59L103.782 277.495C103.99 280.743 104.266 285.053 104.404 287.058C104.542 289.063 104.625 290.781 104.57 290.849C104.515 290.945 102.03 291.068 98.0154 291.177C94.4565 291.286 89.4602 291.436 86.9206 291.518C76.6413 291.819 74.734 291.833 71.1198 291.587C69.2298 291.464 67.6301 291.327 67.5748 291.3C67.3675 291.163 67.478 290.808 68.7599 287.468C69.4786 285.613 70.9402 281.741 72.0182 278.861C73.1101 275.982 74.0879 273.513 74.2123 273.363C74.3367 273.213 74.7375 273.021 75.1106 272.926L75.8017 272.762L75.9675 271.847C76.0643 271.341 76.1749 270.863 76.2163 270.808C76.2578 270.74 76.6309 270.617 77.0594 270.522C77.474 270.426 77.8195 270.317 77.8195 270.262C77.8057 269.961 77.5017 269.784 76.9074 269.729C75.8432 269.634 75.8708 269.688 76.2578 268.435C76.6586 267.113 77.4844 264.726 78.0234 263.319C78.4657 262.147 78.6868 262.065 79.3329 262.868C79.7061 263.346 79.8443 263.414 80.3142 263.414C80.6321 263.414 80.8809 263.346 80.9223 263.25C80.9915 263.032 85.8357 250.211 88.6517 242.749C89.8369 239.597 91.1499 236.12 91.5507 235.027C92.4214 232.681 92.6287 232.244 93.0399 231.984C93.2057 231.875 95.8006 231.356 98.7928 230.813C107.141 229.327 110.275 228.767 119.839 227.063C124.697 226.188 129.707 225.304 130.961 225.072C132.229 224.853 133.653 224.607 134.136 224.539C134.62 224.484 135.294 224.361 135.639 224.279C136.648 224.061 141.216 223.241 145.231 222.562C147.287 222.22 149.232 221.878 149.578 221.81C150.269 221.66 163.06 219.409 170.486 218.129C173.15 217.664 175.413 217.268 175.523 217.227C175.634 217.2 175.869 216.926 176.049 216.626C176.339 216.12 176.408 216.079 176.961 216.079C177.279 216.079 178.187 216.175 178.989 216.284C179.777 216.394 181.639 216.626 183.114 216.817C184.59 217.008 187.917 217.445 190.498 217.787C193.079 218.129 195.909 218.511 196.776 218.62C198.045 218.784 198.432 218.894 198.708 219.139C198.901 219.303 199.219 219.508 199.413 219.59C200.007 219.836 199.979 219.809 205.29 228.77C205.981 229.928 207.47 232.452 208.604 234.365C211.779 239.726 217.891 250.16 218.417 251.13L218.887 251.99L220.086 251.909C220.735 251.854 221.561 251.786 221.92 251.745L222.57 251.663L223.233 252.605C224.104 253.818 224.695 254.419 225.054 254.419C225.234 254.419 225.51 254.651 225.787 255.02C226.035 255.361 226.34 255.676 226.45 255.717C226.561 255.757 227.265 255.839 227.995 255.88L229.346 255.962V256.4C229.346 256.7 229.221 256.946 228.931 257.219L228.53 257.602L228.862 257.998C229.166 258.353 229.207 258.531 229.207 259.497V260.59L227.69 262.117C226.861 262.964 226.174 263.739 226.174 263.862C226.174 264.026 228.464 265.361 229.252 265.648C229.377 265.703 229.487 265.826 229.487 265.935C229.487 266.591 230.907 286.313 231.225 290.132C231.35 291.576 231.405 292.806 231.35 292.861C231.308 292.915 228.368 293.024 224.823 293.12C221.278 293.216 214.004 293.407 208.649 293.571C197.747 293.885 195.484 293.885 190.433 293.612L190.419 293.605ZM95.0612 270.743C95.0612 270.593 94.4669 270.539 92.2728 270.457C90.7283 270.416 88.3131 270.334 86.8895 270.279C84.5296 270.197 84.2947 270.211 84.2947 270.416C84.2947 270.607 84.4743 270.648 85.4383 270.662C86.0603 270.675 87.7568 270.73 89.1907 270.771C93.9659 270.948 95.0543 270.935 95.0543 270.743H95.0612ZM218.365 264.333C218.807 264.005 218.475 263.869 217.028 263.773C211.396 263.431 208.472 263.281 208.362 263.35C208.113 263.5 208.21 263.828 208.542 263.964C208.887 264.101 214.295 264.47 216.585 264.497C217.663 264.511 218.171 264.456 218.365 264.333ZM88.5481 262.506C90.1478 262.383 91.4746 262.233 91.4746 262.192C91.4746 261.973 88.1749 254.62 88.0678 254.593C87.8743 254.525 84.9892 262.055 84.9892 262.598C84.9892 262.776 85.1688 262.776 88.5481 262.503V262.506ZM99.4217 261.468C99.5184 261.372 100.196 259.818 100.925 257.991L102.262 254.689L101.364 252.602C99.902 249.248 95.9388 240.054 95.8421 239.795C95.7868 239.658 95.69 239.549 95.6071 239.549C95.4413 239.549 95.4136 252.889 95.5656 258.428L95.6486 261.809L97.4557 261.714C98.5337 261.659 99.3319 261.563 99.4148 261.468H99.4217ZM104.846 261.017C104.957 260.921 104.376 259.6 104.211 259.6C104.045 259.6 103.478 260.706 103.478 261.031C103.478 261.154 103.658 261.181 104.142 261.126C104.501 261.099 104.819 261.044 104.846 261.017ZM111.525 260.457C111.691 260.361 111.65 241.974 111.47 242.028C111.387 242.056 110.834 243.268 110.23 244.73L109.152 247.39L109.138 254.06V260.716L110.282 260.621C110.903 260.566 111.453 260.498 111.522 260.457H111.525ZM117.209 260.061C118.726 259.951 119.984 259.828 120.011 259.815C120.025 259.787 119.597 258.79 119.03 257.605C117.886 255.177 116.228 251.618 114.891 248.753C114.407 247.701 113.923 246.83 113.813 246.803C113.619 246.762 113.578 249.928 113.661 257.865L113.688 260.279H114.075C114.283 260.279 115.689 260.184 117.209 260.061ZM93.1021 250.607C93.1297 243.719 93.0882 241.304 92.9777 241.345C92.7842 241.414 89.1285 251.519 89.1285 251.97C89.1285 252.189 89.9163 253.975 91.4055 257.141C91.9169 258.233 92.4283 259.323 92.5389 259.569C93.0364 260.713 93.0641 260.225 93.1055 250.607H93.1021ZM132.585 258.777C134.503 258.626 136.116 258.476 136.158 258.435C136.241 258.353 131.369 248.302 131.175 248.179C130.996 248.07 130.899 248.261 129.755 250.799C129.216 251.997 128.542 253.459 128.266 254.06L127.768 255.126V259.176L128.432 259.108C128.791 259.08 130.654 258.93 132.585 258.78V258.777ZM106.533 256.007C106.339 255.529 106.035 255.542 105.828 256.048C105.676 256.403 105.717 256.553 106.118 257.438L106.588 258.435L106.629 257.397C106.643 256.823 106.602 256.198 106.533 256.007ZM144.703 256.089C145.09 255.201 146.067 253.059 146.869 251.328C148.372 248.08 148.773 246.827 148.261 246.922C148.082 246.963 147.805 247.428 147.405 248.34C146.52 250.303 145.694 252.117 144.45 254.723C143.279 257.178 143.155 257.684 143.676 257.684C143.953 257.684 144.091 257.465 144.699 256.089H144.703ZM151.299 257.26C153.424 257.11 155.189 256.96 155.217 256.932C155.258 256.878 154.816 256.099 152.028 251.164C150.936 249.255 150.908 249.214 150.483 249.255C150.151 249.282 149.999 249.405 149.806 249.774C149.281 250.799 146.261 257.428 146.261 257.564C146.261 257.646 146.496 257.673 146.855 257.632C147.173 257.591 149.174 257.428 151.299 257.264V257.26ZM121.311 255.679C121.089 255.242 119.697 252.312 118.204 249.159C114.245 240.73 113.941 240.088 113.802 240.088C113.595 240.088 113.789 240.567 115.209 243.565C115.955 245.146 117.527 248.49 118.698 251C121.625 257.274 121.611 257.247 121.667 256.823C121.694 256.632 121.528 256.113 121.307 255.679H121.311ZM141.154 244.795C141.154 237.182 141.113 233.118 141.016 233.063C140.919 233.009 140.878 236.95 140.878 244.795C140.878 252.636 140.919 256.581 141.016 256.526C141.113 256.471 141.154 252.407 141.154 244.795ZM170.064 255.775C173.032 255.542 175.655 255.324 175.9 255.283L176.342 255.201V243.169C176.342 235.884 176.287 231.069 176.204 230.946C176.121 230.809 176.024 230.796 175.941 230.878C175.803 231.014 174.286 234.139 169.553 243.972C168.105 246.974 166.239 250.846 165.413 252.564C163.413 256.697 163.537 256.328 164.173 256.246C164.449 256.205 167.113 255.986 170.064 255.768V255.775ZM125.215 254.603L125.574 253.797L125.561 245.819C125.547 238.89 125.519 237.828 125.339 237.623C125.229 237.5 125.022 237.104 124.883 236.735C124.745 236.366 124.552 236.052 124.469 236.024C124.358 235.983 124.317 238.616 124.317 245.724C124.317 251.099 124.358 255.587 124.4 255.71C124.483 255.901 124.51 255.901 124.676 255.669C124.773 255.532 125.022 255.054 125.215 254.603ZM156.471 245.327C156.471 238.726 156.43 235.847 156.319 235.888C156.25 235.915 155.338 237.715 154.332 239.884L152.47 243.838V247.493L153.835 250.03C154.581 251.42 155.448 253.073 155.766 253.698C156.084 254.313 156.361 254.818 156.402 254.818C156.444 254.818 156.471 250.549 156.471 245.324V245.327ZM190.529 254.139C193.124 253.934 195.291 253.729 195.332 253.702C195.36 253.661 195.249 253.36 195.056 253.032C189.603 243.114 189.344 242.653 189.068 242.708C188.916 242.735 187.827 244.726 185.975 248.34C184.417 251.424 183.063 254.108 182.98 254.327L182.828 254.709L184.317 254.613C185.132 254.559 187.917 254.354 190.526 254.135L190.529 254.139ZM183.256 246.717C186.542 240.266 186.611 240.102 186.663 239.187L186.704 238.244L184.483 234.289C183.256 232.121 181.708 229.365 181.048 228.193C179.241 224.918 179.31 224.771 179.421 231.793C179.476 234.959 179.518 241.192 179.518 245.665C179.531 252.595 179.559 253.753 179.711 253.548C179.822 253.411 181.408 250.327 183.256 246.714V246.717ZM138.255 243.008C138.255 233.173 138.241 232.575 138.02 232.616C137.854 232.643 137.412 233.463 136.655 235.112C136.047 236.461 135.028 238.698 134.392 240.092C133.756 241.482 133.248 242.766 133.248 242.957C133.248 243.148 134.105 245.058 135.125 247.213C136.161 249.368 137.25 251.646 137.554 252.288C137.858 252.93 138.148 253.459 138.189 253.459C138.231 253.459 138.259 248.753 138.259 243.012L138.255 243.008ZM204.136 247.168C205.791 243.934 207.118 241.195 207.118 240.99C207.118 240.512 206.786 239.897 204.385 235.806C203.279 233.924 201.831 231.427 201.154 230.266C199.955 228.221 199.707 227.838 199.637 227.961C199.61 227.988 199.624 233.296 199.665 239.747L199.734 251.478L200.273 252.407C200.715 253.172 200.84 253.309 200.978 253.159C201.075 253.063 202.495 250.361 204.14 247.172L204.136 247.168ZM204.91 252.909C205.007 252.691 205.145 252.445 205.242 252.376C205.325 252.308 206.361 252.199 207.546 252.144C209.616 252.062 209.713 252.062 209.989 252.335C210.28 252.622 210.307 252.622 212.17 252.417C213.22 252.308 214.087 252.212 214.101 252.185C214.156 252.131 209.063 243.497 208.967 243.497C208.884 243.497 203.804 253.114 203.804 253.278C203.804 253.305 204.012 253.319 204.274 253.319C204.661 253.319 204.772 253.251 204.91 252.909ZM160.545 252.472C160.669 252.144 161.443 250.44 162.269 248.681C165.911 240.864 167.929 236.54 170.123 231.851C171.419 229.081 172.455 226.776 172.414 226.749C172.358 226.694 161.277 228.302 160.807 228.425C160.725 228.453 160.517 228.835 160.351 229.272L160.047 230.092L160.075 241.564C160.089 247.879 160.158 253.049 160.213 253.049C160.268 253.049 160.407 252.79 160.545 252.475V252.472ZM104.767 249.091C105.334 247.701 106.021 246.034 106.298 245.382L106.795 244.197V240.16C106.795 237.063 106.754 236.11 106.629 236.069C106.533 236.041 104.601 235.85 102.352 235.673C98.5579 235.358 98.2124 235.345 97.6319 235.536C97.2864 235.659 96.9685 235.795 96.927 235.864C96.8579 235.987 97.549 237.677 99.6877 242.547C100.489 244.388 101.716 247.199 102.407 248.794C103.098 250.389 103.675 251.673 103.703 251.646C103.73 251.632 104.2 250.474 104.767 249.094V249.091ZM121.781 234.658C121.711 234.59 114.936 235.573 114.77 235.683C114.521 235.819 114.701 236.639 115.267 237.865C116 239.501 120.416 248.859 121.2 250.454L121.767 251.611L121.808 243.169C121.822 238.517 121.808 234.699 121.781 234.658ZM145.874 245.57L147.391 242.12L145.915 239.228C144.108 235.696 143.514 234.631 143.348 234.631C143.279 234.631 143.224 238.026 143.238 242.991L143.251 251.338L143.804 250.18C144.108 249.538 145.031 247.465 145.874 245.57ZM128.404 247.657C128.902 246.499 128.943 246.335 128.985 244.791L129.026 243.155L128.473 242.035C128.169 241.407 127.851 240.905 127.768 240.905C127.672 240.905 127.63 242.267 127.63 245.023C127.63 247.329 127.686 249.088 127.755 249.019C127.81 248.937 128.114 248.336 128.404 247.657ZM197.046 236.745C197.046 230.171 197.005 226.718 196.908 226.718C196.839 226.718 195.584 229.05 194.147 231.902L191.511 237.1L193.221 240.129C196.493 245.925 196.973 246.772 197.015 246.772C197.029 246.772 197.043 242.257 197.043 236.745H197.046ZM150.732 242.65C150.843 242.472 151.395 241.328 151.959 240.085C152.525 238.845 153.752 236.185 154.678 234.153C155.604 232.134 156.374 230.321 156.388 230.13C156.402 229.911 156.319 229.774 156.167 229.747C156.001 229.72 155.808 229.952 155.462 230.635C154.965 231.605 153.075 235.669 152.688 236.608C152.563 236.909 151.886 238.367 151.198 239.843C150.148 242.093 149.972 242.571 150.12 242.749C150.355 243.036 150.494 243.008 150.729 242.653L150.732 242.65ZM132.35 238.354C132.709 237.534 133.414 235.939 133.922 234.795C134.42 233.651 134.807 232.681 134.765 232.64C134.696 232.572 131.193 233.022 129.88 233.282C129.092 233.432 128.885 233.719 129.064 234.426C129.175 234.863 131.535 239.815 131.631 239.815C131.673 239.815 131.991 239.159 132.35 238.357V238.354ZM150.718 234.604C151.903 231.957 152.843 229.774 152.802 229.733C152.733 229.665 146.316 230.58 145.128 230.84C144.492 230.963 144.464 230.99 144.464 231.455C144.464 231.796 144.989 232.94 146.437 235.669C147.515 237.729 148.438 239.405 148.479 239.405C148.521 239.405 149.53 237.25 150.715 234.604H150.718ZM109.276 238.354C109.276 238.121 109.221 237.875 109.138 237.834C109.055 237.78 109 238.026 109 238.476C109 238.996 109.041 239.146 109.138 238.996C109.207 238.886 109.276 238.599 109.276 238.354ZM192.406 229.706C193.674 227.141 194.752 224.85 194.793 224.617C194.821 224.385 194.793 224.03 194.71 223.825C194.6 223.525 194.475 223.443 194.157 223.443C193.757 223.443 184.593 224.792 184.524 224.86C184.497 224.874 185.547 226.728 186.843 228.979C188.138 231.216 189.355 233.343 189.534 233.712C189.714 234.067 189.921 234.354 189.977 234.354C190.032 234.354 191.12 232.254 192.406 229.703V229.706ZM106.792 233.306C106.792 232.541 106.709 232.527 104.916 232.841C104.017 232.992 103.233 233.183 103.164 233.251C103.012 233.401 104.432 233.579 106.215 233.647C106.768 233.675 106.795 233.647 106.795 233.306H106.792ZM117.32 232.445C119.085 232.145 120.796 231.844 121.141 231.789L121.763 231.694L121.805 230.956C121.832 230.546 121.805 230.177 121.736 230.123C121.584 229.986 112.489 231.526 112.296 231.718C112.185 231.827 112.406 232.018 113.098 232.428C113.609 232.729 114.065 232.988 114.079 232.988C114.106 232.988 115.568 232.742 117.323 232.442L117.32 232.445ZM132.181 229.99C134.416 229.621 136.265 229.307 136.265 229.307C136.334 229.307 136.873 227.917 136.873 227.753C136.873 227.452 136.776 227.466 133.48 228.012C129.175 228.736 129.147 228.736 129.009 229.078C128.954 229.242 128.636 229.624 128.332 229.925C127.751 230.471 127.641 230.676 127.945 230.676C128.028 230.676 129.945 230.376 132.181 229.993V229.99ZM148.949 227.206C151.461 226.783 153.669 226.4 153.876 226.359C154.139 226.305 154.332 226.113 154.526 225.704C154.913 224.925 154.913 224.532 154.512 224.532C154.332 224.532 152.235 224.86 149.834 225.27L145.487 226.007L144.561 226.868C143.552 227.811 143.39 228.149 144.022 228.04C144.229 228.012 146.451 227.63 148.949 227.206ZM167.331 224.341C170.285 223.849 173.015 223.412 173.429 223.344L174.176 223.234L174.494 222.415C174.881 221.417 174.894 221.257 174.59 221.257C174.452 221.257 171.996 221.626 169.11 222.09C165.69 222.65 163.838 223.005 163.727 223.142C163.423 223.511 163.147 223.73 162.487 224.167C162.114 224.413 161.713 224.754 161.602 224.918C161.423 225.191 161.422 225.219 161.699 225.219C161.851 225.219 164.391 224.822 167.331 224.344V224.341Z" fill="#FF6200"/>
<path d="M348.117 296.84C342.694 296.565 342.545 296.546 342.545 296.068C342.545 295.866 343.885 291.678 345.498 286.741C347.131 281.822 349.214 275.341 350.158 272.367C351.089 269.392 352.219 265.793 352.665 264.382C353.093 262.966 353.521 261.279 353.595 260.617C353.651 259.9 353.874 259.109 354.116 258.691C354.488 258.029 354.674 257.9 356.009 257.477C357.716 256.944 359.818 256.043 359.818 255.864C359.818 255.79 359.576 255.496 359.279 255.22L358.758 254.724L354.595 255.018C350.396 255.312 340.555 255.937 324.71 256.944C299.8 258.521 277.77 259.918 272.979 260.249C267.538 260.617 245.154 262.028 236.573 262.543C228.681 263.021 229.346 262.911 228.57 263.793C227.639 264.86 227.435 265.333 227.77 265.664C227.918 265.812 228.7 266.216 229.514 266.565L231.002 267.209L231.504 275.157C231.783 279.529 232.155 285.33 232.341 288.028C232.527 290.727 232.639 293.039 232.564 293.131C232.49 293.26 229.146 293.425 223.742 293.572C218.952 293.719 212.227 293.921 208.809 294.032C194.973 294.436 192.405 294.455 187.541 294.124C184.997 293.958 182.843 293.774 182.769 293.738C182.49 293.554 182.639 293.076 184.364 288.58C185.332 286.084 187.299 280.871 188.75 276.996C190.219 273.121 191.536 269.797 191.703 269.595C191.871 269.392 192.41 269.135 192.912 269.006L193.842 268.786L194.066 267.554C194.196 266.873 194.345 266.23 194.401 266.156C194.456 266.064 194.959 265.899 195.535 265.77C196.093 265.641 196.558 265.494 196.558 265.421C196.54 265.016 196.131 264.777 195.331 264.704C193.898 264.575 193.935 264.649 194.456 262.961C194.996 261.182 196.107 257.969 196.833 256.075C197.428 254.499 197.726 254.388 198.595 255.469C199.098 256.112 199.284 256.204 199.916 256.204C200.344 256.204 200.679 256.112 200.735 255.983C200.828 255.689 207.348 238.432 211.139 228.388C212.734 224.145 214.501 219.466 215.041 217.995C216.212 214.837 216.492 214.248 217.045 213.899C217.268 213.752 220.761 213.053 224.788 212.322C236.025 210.323 240.243 209.569 253.116 207.275C259.655 206.098 266.399 204.907 268.087 204.595C269.794 204.301 271.71 203.97 272.361 203.878C273.012 203.804 273.919 203.639 274.384 203.528C275.742 203.234 281.89 202.131 287.294 201.216C290.062 200.756 292.68 200.297 293.145 200.205C294.075 200.003 311.292 196.973 321.287 195.249C324.872 194.624 327.919 194.091 328.067 194.036C328.216 193.999 328.532 193.631 328.774 193.227C329.165 192.546 329.258 192.491 330.002 192.491C330.43 192.491 331.653 192.62 332.732 192.767C333.792 192.914 336.299 193.227 338.285 193.484C340.271 193.742 344.75 194.33 348.224 194.79C351.698 195.249 355.507 195.764 356.674 195.911C358.381 196.132 358.902 196.279 359.274 196.61C359.534 196.831 359.962 197.107 360.223 197.217C361.023 197.548 360.985 197.511 368.134 209.573C369.064 211.132 371.068 214.529 372.594 217.103C376.868 224.32 385.095 238.364 385.802 239.669L386.434 240.827L388.048 240.717C388.922 240.644 390.034 240.552 390.518 240.496L391.392 240.386L392.285 241.655C393.457 243.287 394.252 244.096 394.736 244.096C394.978 244.096 395.35 244.408 395.722 244.905C396.057 245.365 396.466 245.787 396.615 245.843C396.763 245.898 397.712 246.008 398.694 246.063L400.512 246.174V246.762C400.512 247.167 400.345 247.498 399.954 247.865L399.414 248.38L399.861 248.913C400.27 249.391 400.326 249.63 400.326 250.931V252.402L398.284 254.457C397.168 255.597 396.243 256.641 396.243 256.806C396.243 257.027 399.326 258.824 400.386 259.21C400.554 259.284 400.703 259.449 400.703 259.597C400.703 260.479 402.614 287.026 403.042 292.165C403.209 294.11 403.284 295.765 403.209 295.838C403.154 295.912 399.196 296.059 394.424 296.188C389.653 296.316 379.863 296.574 372.654 296.794C357.981 297.217 354.935 297.217 348.135 296.85L348.117 296.84ZM219.766 266.069C219.766 265.867 218.966 265.793 216.012 265.683C213.934 265.628 210.683 265.517 208.767 265.444C205.59 265.333 205.274 265.352 205.274 265.628C205.274 265.885 205.516 265.94 206.813 265.959C207.65 265.977 209.934 266.051 211.864 266.106C218.291 266.345 219.756 266.326 219.756 266.069H219.766ZM385.732 257.441C386.327 256.999 385.881 256.815 383.932 256.687C376.351 256.227 372.417 256.025 372.268 256.117C371.933 256.319 372.063 256.76 372.51 256.944C372.975 257.128 380.253 257.624 383.337 257.661C384.788 257.68 385.471 257.606 385.732 257.441ZM210.999 254.981C213.152 254.816 214.938 254.614 214.938 254.558C214.938 254.264 210.497 244.367 210.353 244.33C210.092 244.238 206.209 254.374 206.209 255.105C206.209 255.344 206.451 255.344 210.999 254.977V254.981ZM225.635 253.584C225.765 253.455 226.677 251.364 227.658 248.904L229.458 244.459L228.249 241.65C226.281 237.136 220.947 224.761 220.817 224.412C220.742 224.228 220.612 224.081 220.5 224.081C220.277 224.081 220.24 242.036 220.445 249.493L220.556 254.044L222.989 253.915C224.44 253.841 225.514 253.713 225.626 253.584H225.635ZM232.937 252.977C233.085 252.848 232.304 251.069 232.081 251.069C231.858 251.069 231.095 252.559 231.095 252.995C231.095 253.161 231.337 253.198 231.988 253.124C232.471 253.087 232.899 253.014 232.937 252.977ZM241.926 252.223C242.15 252.094 242.094 227.345 241.852 227.418C241.74 227.455 240.996 229.087 240.182 231.054L238.731 234.635L238.713 243.613V252.572L240.252 252.444C241.089 252.37 241.829 252.278 241.922 252.223H241.926ZM249.577 251.69C251.619 251.543 253.311 251.377 253.349 251.359C253.367 251.322 252.791 249.98 252.028 248.385C250.488 245.116 248.256 240.326 246.456 236.47C245.805 235.054 245.154 233.882 245.005 233.845C244.745 233.79 244.689 238.051 244.801 248.734L244.838 251.984H245.359C245.638 251.984 247.531 251.855 249.577 251.69ZM217.129 238.966C217.166 229.694 217.11 226.444 216.961 226.499C216.701 226.591 211.78 240.193 211.78 240.8C211.78 241.094 212.841 243.498 214.845 247.76C215.533 249.231 216.222 250.697 216.371 251.028C217.04 252.568 217.078 251.911 217.133 238.966H217.129ZM270.273 249.961C272.854 249.759 275.026 249.557 275.082 249.502C275.193 249.391 268.636 235.863 268.375 235.697C268.133 235.55 268.003 235.808 266.464 239.223C265.738 240.837 264.831 242.804 264.459 243.613L263.79 245.047V250.499L264.682 250.407C265.166 250.371 267.673 250.168 270.273 249.966V249.961ZM235.206 246.233C234.946 245.59 234.536 245.608 234.257 246.289C234.053 246.767 234.109 246.969 234.648 248.16L235.281 249.502L235.336 248.104C235.355 247.332 235.299 246.491 235.206 246.233ZM286.583 246.344C287.104 245.149 288.42 242.266 289.499 239.936C291.522 235.564 292.061 233.877 291.373 234.006C291.131 234.061 290.759 234.686 290.22 235.913C289.029 238.557 287.918 240.998 286.243 244.505C284.667 247.81 284.499 248.49 285.202 248.49C285.574 248.49 285.76 248.196 286.578 246.344H286.583ZM295.461 247.92C298.321 247.718 300.698 247.516 300.735 247.479C300.791 247.406 300.196 246.358 296.442 239.715C294.973 237.145 294.936 237.09 294.363 237.145C293.917 237.182 293.712 237.348 293.452 237.844C292.745 239.223 288.68 248.146 288.68 248.33C288.68 248.44 288.997 248.477 289.48 248.422C289.908 248.366 292.601 248.146 295.461 247.925V247.92ZM255.097 245.792C254.8 245.204 252.925 241.26 250.916 237.017C245.587 225.672 245.177 224.807 244.991 224.807C244.712 224.807 244.973 225.451 246.884 229.487C247.889 231.615 250.005 236.116 251.581 239.494C255.521 247.939 255.502 247.902 255.576 247.332C255.613 247.075 255.39 246.376 255.093 245.792H255.097ZM281.806 231.142C281.806 220.895 281.751 215.425 281.62 215.352C281.49 215.278 281.434 220.583 281.434 231.142C281.434 241.696 281.49 247.006 281.62 246.932C281.751 246.859 281.806 241.388 281.806 231.142ZM320.719 245.921C324.714 245.608 328.244 245.314 328.574 245.259L329.17 245.149V228.954C329.17 219.149 329.095 212.667 328.984 212.501C328.872 212.318 328.742 212.299 328.63 212.41C328.444 212.593 326.402 216.8 320.031 230.034C318.082 234.075 315.571 239.288 314.459 241.6C311.767 247.162 311.934 246.665 312.79 246.555C313.162 246.5 316.748 246.206 320.719 245.912V245.921ZM260.353 244.344L260.836 243.259L260.818 232.521C260.799 223.194 260.762 221.764 260.52 221.488C260.371 221.323 260.092 220.79 259.906 220.293C259.72 219.797 259.46 219.374 259.348 219.337C259.199 219.282 259.143 222.826 259.143 232.392C259.143 239.628 259.199 245.668 259.255 245.833C259.367 246.091 259.404 246.091 259.627 245.778C259.757 245.594 260.092 244.951 260.353 244.344ZM302.423 231.859C302.423 222.973 302.367 219.098 302.219 219.153C302.126 219.19 300.898 221.612 299.544 224.532L297.038 229.855V234.773L298.875 238.189C299.879 240.06 301.047 242.285 301.474 243.126C301.902 243.953 302.274 244.634 302.33 244.634C302.386 244.634 302.423 238.888 302.423 231.854V231.859ZM348.266 243.719C351.758 243.443 354.674 243.167 354.73 243.131C354.767 243.075 354.619 242.671 354.358 242.23C347.019 228.88 346.67 228.26 346.298 228.333C346.094 228.37 344.629 231.05 342.136 235.913C340.038 240.064 338.215 243.678 338.104 243.972L337.899 244.487L339.904 244.358C341.001 244.284 344.75 244.008 348.261 243.714L348.266 243.719ZM338.476 233.73C342.899 225.046 342.992 224.826 343.061 223.594L343.117 222.325L340.127 217.002C338.476 214.083 336.392 210.373 335.504 208.796C333.072 204.388 333.165 204.19 333.313 213.641C333.388 217.903 333.444 226.292 333.444 232.314C333.462 241.641 333.499 243.199 333.704 242.924C333.853 242.74 335.988 238.589 338.476 233.725V233.73ZM277.905 228.738C277.905 215.499 277.886 214.694 277.588 214.749C277.365 214.786 276.77 215.889 275.751 218.11C274.933 219.925 273.561 222.936 272.705 224.812C271.849 226.683 271.166 228.411 271.166 228.669C271.166 228.926 272.319 231.496 273.691 234.396C275.086 237.297 276.551 240.363 276.96 241.227C277.37 242.092 277.76 242.804 277.816 242.804C277.872 242.804 277.909 236.47 277.909 228.742L277.905 228.738ZM366.58 234.337C368.808 229.983 370.594 226.297 370.594 226.021C370.594 225.377 370.147 224.55 366.915 219.043C365.427 216.51 363.478 213.15 362.567 211.587C360.953 208.833 360.618 208.318 360.525 208.484C360.488 208.521 360.506 215.664 360.562 224.348L360.655 240.138L361.381 241.388C361.976 242.418 362.143 242.602 362.329 242.4C362.46 242.271 364.371 238.635 366.585 234.341L366.58 234.337ZM367.622 242.064C367.752 241.77 367.938 241.439 368.068 241.347C368.18 241.255 369.575 241.108 371.17 241.034C373.956 240.924 374.086 240.924 374.459 241.292C374.849 241.678 374.886 241.678 377.393 241.402C378.807 241.255 379.974 241.126 379.993 241.089C380.067 241.016 373.212 229.395 373.082 229.395C372.97 229.395 366.134 242.34 366.134 242.56C366.134 242.597 366.413 242.616 366.766 242.616C367.287 242.616 367.436 242.524 367.622 242.064ZM307.906 241.476C308.074 241.034 309.116 238.74 310.227 236.373C315.129 225.851 317.845 220.031 320.798 213.72C322.542 209.992 323.938 206.889 323.882 206.852C323.807 206.778 308.892 208.943 308.26 209.109C308.148 209.146 307.869 209.661 307.646 210.249L307.237 211.352L307.274 226.793C307.293 235.293 307.386 242.253 307.46 242.253C307.534 242.253 307.72 241.903 307.906 241.48V241.476ZM232.83 236.925C233.592 235.054 234.518 232.81 234.89 231.932L235.56 230.337V224.904C235.56 220.734 235.504 219.452 235.336 219.397C235.206 219.36 232.606 219.103 229.579 218.864C224.472 218.441 224.007 218.422 223.226 218.68C222.761 218.845 222.333 219.029 222.277 219.121C222.184 219.286 223.114 221.562 225.993 228.117C227.072 230.595 228.723 234.378 229.653 236.525C230.583 238.672 231.36 240.4 231.397 240.363C231.434 240.345 232.067 238.786 232.83 236.929V236.925ZM255.73 217.498C255.637 217.406 246.517 218.73 246.293 218.877C245.959 219.061 246.2 220.164 246.963 221.815C247.949 224.017 253.893 236.612 254.948 238.759L255.711 240.317L255.767 228.954C255.786 222.693 255.767 217.553 255.73 217.498ZM288.159 232.185L290.201 227.542L288.215 223.649C285.783 218.896 284.983 217.462 284.76 217.462C284.667 217.462 284.592 222.031 284.611 228.715L284.629 239.949L285.374 238.391C285.783 237.527 287.025 234.737 288.159 232.185ZM264.645 234.994C265.315 233.436 265.371 233.215 265.427 231.137L265.482 228.935L264.738 227.428C264.329 226.582 263.901 225.906 263.79 225.906C263.659 225.906 263.603 227.74 263.603 231.45C263.603 234.553 263.678 236.92 263.771 236.828C263.845 236.718 264.255 235.909 264.645 234.994ZM357.037 220.307C357.037 211.458 356.981 206.811 356.851 206.811C356.758 206.811 355.07 209.95 353.135 213.789L349.586 220.785L351.888 224.862C356.293 232.663 356.939 233.803 356.995 233.803C357.014 233.803 357.032 227.726 357.032 220.307H357.037ZM294.698 228.255C294.847 228.016 295.591 226.476 296.349 224.803C297.112 223.134 298.763 219.553 300.009 216.818C301.256 214.101 302.293 211.66 302.312 211.403C302.33 211.109 302.219 210.925 302.014 210.888C301.791 210.851 301.53 211.164 301.065 212.083C300.396 213.389 297.852 218.859 297.331 220.123C297.163 220.528 296.252 222.49 295.326 224.476C293.912 227.506 293.675 228.149 293.875 228.388C294.191 228.774 294.377 228.738 294.694 228.26L294.698 228.255ZM269.956 222.472C270.44 221.369 271.389 219.222 272.072 217.682C272.742 216.142 273.263 214.837 273.207 214.782C273.114 214.69 268.398 215.296 266.631 215.646C265.571 215.848 265.292 216.234 265.534 217.186C265.682 217.774 268.859 224.44 268.989 224.44C269.045 224.44 269.473 223.557 269.956 222.477V222.472ZM294.68 217.425C296.275 213.862 297.54 210.925 297.484 210.87C297.391 210.778 288.755 212.01 287.155 212.359C286.299 212.524 286.262 212.561 286.262 213.186C286.262 213.646 286.969 215.186 288.917 218.859C290.369 221.631 291.61 223.888 291.666 223.888C291.722 223.888 293.08 220.987 294.675 217.425H294.68ZM238.899 222.472C238.899 222.16 238.824 221.829 238.713 221.773C238.601 221.7 238.527 222.031 238.527 222.638C238.527 223.336 238.583 223.539 238.713 223.336C238.806 223.189 238.899 222.803 238.899 222.472ZM350.791 210.833C352.498 207.381 353.949 204.296 354.005 203.983C354.042 203.671 354.005 203.193 353.893 202.917C353.744 202.512 353.577 202.402 353.149 202.402C352.609 202.402 340.276 204.218 340.183 204.31C340.145 204.328 341.559 206.824 343.303 209.854C345.047 212.865 346.684 215.728 346.926 216.225C347.168 216.703 347.447 217.089 347.521 217.089C347.596 217.089 349.061 214.262 350.791 210.828V210.833ZM235.555 215.678C235.555 214.648 235.443 214.63 233.03 215.053C231.82 215.255 230.765 215.512 230.672 215.604C230.467 215.807 232.378 216.046 234.778 216.138C235.522 216.174 235.56 216.138 235.56 215.678H235.555ZM249.726 214.52C252.102 214.115 254.404 213.71 254.869 213.637L255.707 213.508L255.762 212.515C255.8 211.964 255.762 211.467 255.669 211.394C255.465 211.21 243.224 213.283 242.964 213.54C242.815 213.687 243.112 213.945 244.042 214.497C244.731 214.901 245.345 215.25 245.363 215.25C245.4 215.25 247.368 214.919 249.73 214.515L249.726 214.52ZM269.729 211.214C272.738 210.718 275.226 210.295 275.226 210.295C275.319 210.295 276.044 208.424 276.044 208.203C276.044 207.799 275.914 207.817 271.477 208.553C265.682 209.527 265.645 209.527 265.459 209.987C265.385 210.208 264.957 210.722 264.548 211.127C263.766 211.863 263.617 212.138 264.027 212.138C264.138 212.138 266.719 211.734 269.729 211.219V211.214ZM292.299 207.468C295.68 206.898 298.651 206.383 298.931 206.328C299.284 206.254 299.544 205.997 299.805 205.445C300.326 204.397 300.326 203.869 299.786 203.869C299.544 203.869 296.721 204.31 293.489 204.861L287.639 205.854L286.392 207.013C285.034 208.282 284.816 208.737 285.667 208.59C285.946 208.553 288.936 208.038 292.299 207.468ZM317.04 203.611C321.017 202.949 324.691 202.361 325.249 202.269L326.254 202.122L326.681 201.018C327.202 199.676 327.221 199.46 326.812 199.46C326.626 199.46 323.319 199.957 319.436 200.582C314.831 201.336 312.339 201.814 312.19 201.998C311.781 202.494 311.408 202.788 310.52 203.377C310.018 203.708 309.478 204.167 309.33 204.388C309.088 204.756 309.088 204.792 309.46 204.792C309.664 204.792 313.083 204.259 317.04 203.616V203.611Z" fill="#FF6200"/>
<path d="M-14.2383 287.426L1547.09 316.471L1547.09 413.304L-14.24 413.3L-14.2383 287.426Z" fill="#FF6200"/>
</svg>
